<mxfile host="Electron" modified="2023-04-06T10:46:38.099Z" agent="Mozilla/5.0 (Windows NT 10.0; Win64; x64) AppleWebKit/537.36 (KHTML, like Gecko) draw.io/21.1.2 Chrome/106.0.5249.199 Electron/21.4.3 Safari/537.36" etag="-P-FMHp9N6rHQBk26m6P" version="21.1.2" type="device">
  <diagram id="R2lEEEUBdFMjLlhIrx00" name="Page-1">
    <mxGraphModel dx="3357.9" dy="1230" grid="1" gridSize="10" guides="1" tooltips="1" connect="1" arrows="1" fold="1" page="1" pageScale="1.1" pageWidth="1169" pageHeight="827" math="0" shadow="0" extFonts="Permanent Marker^https://fonts.googleapis.com/css?family=Permanent+Marker">
      <root>
        <mxCell id="0" />
        <mxCell id="1" parent="0" />
        <mxCell id="1rfu-RK-qWv2y17Ju6D9-1" value="" style="shape=actor;whiteSpace=wrap;html=1;fillColor=#dae8fc;strokeColor=#6c8ebf;" vertex="1" parent="1">
          <mxGeometry x="-1152" y="299.96000000000004" width="40" height="60" as="geometry" />
        </mxCell>
        <mxCell id="1rfu-RK-qWv2y17Ju6D9-3" value="" style="endArrow=none;dashed=1;html=1;rounded=0;" edge="1" parent="1">
          <mxGeometry width="50" height="50" relative="1" as="geometry">
            <mxPoint x="-782" y="719.96" as="sourcePoint" />
            <mxPoint x="-782" y="259.96000000000004" as="targetPoint" />
          </mxGeometry>
        </mxCell>
        <mxCell id="1rfu-RK-qWv2y17Ju6D9-4" value="" style="endArrow=none;dashed=1;html=1;rounded=0;" edge="1" parent="1">
          <mxGeometry width="50" height="50" relative="1" as="geometry">
            <mxPoint x="-452" y="719.96" as="sourcePoint" />
            <mxPoint x="-452" y="259.96000000000004" as="targetPoint" />
          </mxGeometry>
        </mxCell>
        <mxCell id="1rfu-RK-qWv2y17Ju6D9-6" value="Source layer" style="ellipse;whiteSpace=wrap;html=1;strokeColor=none;fillColor=none;fontSize=14;fontStyle=1" vertex="1" parent="1">
          <mxGeometry x="-1072" y="240" width="260" height="80" as="geometry" />
        </mxCell>
        <mxCell id="1rfu-RK-qWv2y17Ju6D9-8" value="Архитектура аналитического решения&lt;br&gt;&amp;nbsp;электросетевая компания" style="text;strokeColor=none;fillColor=none;html=1;fontSize=24;fontStyle=1;verticalAlign=middle;align=center;labelBackgroundColor=default;" vertex="1" parent="1">
          <mxGeometry x="-660" y="130" width="100" height="40" as="geometry" />
        </mxCell>
        <mxCell id="1rfu-RK-qWv2y17Ju6D9-9" value="Storage layer" style="ellipse;whiteSpace=wrap;html=1;strokeColor=none;fillColor=none;fontSize=14;fontStyle=1" vertex="1" parent="1">
          <mxGeometry x="-732" y="240" width="260" height="80" as="geometry" />
        </mxCell>
        <mxCell id="1rfu-RK-qWv2y17Ju6D9-10" value="Business layer" style="ellipse;whiteSpace=wrap;html=1;strokeColor=none;fillColor=none;fontSize=14;fontStyle=1" vertex="1" parent="1">
          <mxGeometry x="-422" y="240" width="260" height="80" as="geometry" />
        </mxCell>
        <mxCell id="1rfu-RK-qWv2y17Ju6D9-13" value="Datawarehouse" style="shape=datastore;whiteSpace=wrap;html=1;labelBackgroundColor=default;" vertex="1" parent="1">
          <mxGeometry x="-702" y="320" width="185" height="300" as="geometry" />
        </mxCell>
        <mxCell id="1rfu-RK-qWv2y17Ju6D9-43" style="edgeStyle=elbowEdgeStyle;rounded=0;orthogonalLoop=1;jettySize=auto;html=1;exitX=1;exitY=0.5;exitDx=0;exitDy=0;exitPerimeter=0;entryX=0.009;entryY=0.331;entryDx=0;entryDy=0;entryPerimeter=0;" edge="1" parent="1" source="1rfu-RK-qWv2y17Ju6D9-16" target="1rfu-RK-qWv2y17Ju6D9-13">
          <mxGeometry relative="1" as="geometry" />
        </mxCell>
        <mxCell id="1rfu-RK-qWv2y17Ju6D9-16" value="СУПА" style="shape=cylinder3;whiteSpace=wrap;html=1;boundedLbl=1;backgroundOutline=1;size=15;" vertex="1" parent="1">
          <mxGeometry x="-892" y="299.96000000000004" width="90" height="85.04" as="geometry" />
        </mxCell>
        <mxCell id="1rfu-RK-qWv2y17Ju6D9-18" value="" style="shape=actor;whiteSpace=wrap;html=1;fillColor=#dae8fc;strokeColor=#6c8ebf;" vertex="1" parent="1">
          <mxGeometry x="-1152" y="404.96000000000004" width="40" height="60" as="geometry" />
        </mxCell>
        <mxCell id="1rfu-RK-qWv2y17Ju6D9-20" value="" style="endArrow=classic;html=1;rounded=0;" edge="1" parent="1">
          <mxGeometry width="50" height="50" relative="1" as="geometry">
            <mxPoint x="-1112" y="342.96000000000004" as="sourcePoint" />
            <mxPoint x="-892" y="342.96000000000004" as="targetPoint" />
          </mxGeometry>
        </mxCell>
        <mxCell id="1rfu-RK-qWv2y17Ju6D9-24" value="" style="shape=image;verticalLabelPosition=bottom;labelBackgroundColor=default;verticalAlign=top;aspect=fixed;imageAspect=0;image=data:image/png,iVBORw0KGgoAAAANSUhEUgAABLAAAARcCAYAAACKp2g2AAAABGdBTUEAALGPC/xhBQAAACBjSFJNAAB6JgAAgIQAAPoAAACA6AAAdTAAAOpgAAA6mAAAF3CculE8AAAABmJLR0QA/wD/AP+gvaeTAACAAElEQVR42uzdd5wlVbUo4FWnT08iDDkJAhIVMyaCJAEDCog556xXFAV9JsxZFBMG9ILheo3XRI4CBhSzYsQISBzCpJ7uPvX+YNRhnO4+3afq1K6q73u/+3v3jnb3rqpd6+y1eu/VWQC01G4nP3OD8dHR3aKT75pHfufIO7tG5NtExHoRsTgiNlj9vy9ytwBIyaJNFi9fsHh9n08AzGRFRCyLiFtW/8+yyOKqvBe/i072m5GI33ZGer/9wQOOvyX1C8k8S6Atdjr1+Vv0sskDssgOyiMOjIhd3RUA6mjRxhvGgo02cCMAKMofIo/zs0523sjIyPk/eMBrrkltgApYQKPd6XPP2yXv5U+JiEdGxB7iHgBNoIAFQMl+lUX+9bwTn7ls7+N/k8KAJHJA4+zw6advlHXnHx5Z/pTI40FiHQBNo4AFwBD9OvI4dbyTf/rn+xx/bVWDkNQBjXGnU597x7wTx0Qez4mIhe4IAE2lgAVABVblWfxvt5e/5dIHHv+7Yf9wBSyg9u74uRfcaSSffGnk8byImO+OANB0ClgAVKgXWXylN5kf/5P9jv/1sH6oAhZQW7t+/rmbjU/m74jInhERHXcEgLZQwAIgAb2I+Mx4lh87jKOFClhA/eSR7fjZ5z0lIn9PRGzuhgDQNgpYACTkpsjj+DtdfecPfemxj50s64coYAG1suNnnnePiPxjEXF/dwOAtlLAAiA1WcSP8l7+vMv2O/7HZXx/R26A2tjxM897akT+3VC8AgAASEoecZ/oZD/Y86I3Hhd5XviGKTuwgOTtdvIzNxif1/14HvF4dwMA7MACIHlfX5XPe8YvHvjqJUV9QzuwgKTt+Jnn3WNsXvcnilcAAAC1ccS8bNVle37n+HsX9Q0VsIBk7fCZ5x8QkV+YRezkbgAAANTKjtHJvnPvi45/SBHfTAELSNIOpzzviCx6p0fEYncDAACgltbLsuzr97nojU8Y9BspYAHJ2eHU5zw96+RfjogF7gYAAECtzcuz+NyeF7/pFYN8EwUsICk7fuZ5z82y7NMR0XU3AAAAGiGLyN9974vfdPRcv4ECFpCMHT/znMMj8g+7EwAAAM2TRf6++1z0pqfO5WsVsIAk7HDqc/aPyP437LwCAABoqizP8k/e+7tvfPBsv1ABC6jcTqc+/65Zln099LwCAABoutGsF1+67yXH33M2X6SABVRqy1Ofsl4v630x/LVBAACAttigl2df3vNH7+g7D1TAAiq1qLPwoxFxZ3cCAACgVXaKsbFP9PtfVsACKrPjZ5777MjjKe4EAABAC+XxmD0veeML+vmvZu4WUIXtT332nTtZ57KIWOhuAMDsLNp4w1iw0QZuBABNsDI62f0u2/v1v5juv2QHFlCJLBv5UCheAQAAtN2C6OUfjTyfdpOVAhYwdDue+pynZJEf5E4AAAAQEfvc5+I3P2O6/4IjhMBQ7fzZl2w4mY/9JiK2djcAYG4cIQSggW6I8Xz3yw48/vp1/Yd2YAFDNdlb+ZZQvAIAAOD2Ns1Hs7dM9R/agQUMzc6fffa2k3nnjxExz90AgLmzAwuAhprMO/nuP977+D+s/R/YgQUMLxL1smND8QoAAIB1G8l6ccy6/gM7sICh2OnU52/Ry3p/iohF7gYADMYOLAAabGyiM7LTz/Z+7ZVr/qMdWMBQ5Nnky0PxCgAAgOnNH+lN/scuLDuwgNJt+8WXLRwdW3Z1RCx2NwBgcHZgAdBwyxbEgq0v2fe4W//5D3ZgAaWbN7b8yFC8AgAAoD/rrYyVR635DwpYwBDkT3EPAAAA6FeWx+3ySAUsoFQ7fv7ZW+YRh7gTAAAA9CvP4sD7XviW7f75fytgAaXKJkeeFBFddwIAAIBZ6PRGek/61//hfgBlyiM/3F0AAABg1vlknj/in/+7AhZQmh0+/fQFEXF/dwIAAIDZyrK43/2/f/yGEQpYQIk6ndF9I2KBOwEAAMAcdCcnYt8IBSygRHknO9BdAAAAYM55ZcSBEQpYQLmB5gB3AQAAgDnLsoMiFLCAsuSRZRF3dyMAAAAYILe86wHnH99VwAJKcafPPHe7iFjfnQAAAGAA827qjOyogAWUIs+y3dwFAAAABtXpTO6mgAWUJFfAAgAAYGBZZApYQEnyfFc3AQAAgAIoYAEl6WRbuQkAAAAMKstiKwUsoBx5bOAmAAAAMHh6mW2ggAWUFWIUsAAAACgkv1TAAkqSre8eAAAAUAAFLKC8AOMWAAAAUER+qYAFlCKLmO8uAAAAUIAFClgAAAAAJE0BCwAAAICkKWABAAAAkDQFLAAAAACSpoAFAAAAQNIUsAAAAABImgIWAAAAAElTwAIAAAAgaQpYAAAAACRNAQsAAACApClgAQAAAJA0BSwAAAAAkqaABQAAAEDSFLAAAAAASJoCFgAAAABJU8ACAAAAIGkKWAAAAAAkTQELAAAAgKQpYAEAAACQNAUsAAAAAJKmgAUAAABA0hSwAAAAAEiaAhYAAAAASVPAAgAAACBpClgAAAAAJE0BCwAAAICkKWABAAAAkDQFLAAAAACSpoAFAAAAQNIUsAAAAABImgIWAAAAAElTwAIAAAAgaQpYAAAAACRNAQsAAACApClgAQAAAJA0BSwAAAAAkqaABQAAAEDSFLAAAAAASJoCFgAAAABJU8ACAAAAIGkKWAAAAAAkTQELAAAAgKQpYAEAAACQNAUsAAAAAJKmgAUAAABA0hSwAAAAAEiaAhYAAAAASVPAAgAAACBpClgAAAAAJE0BCwAAAICkKWABAAAAkDQFLAAAAACSpoAFAAAAQNIUsAAAAABImgIWAAAAAElTwAIAAAAgaQpYAAAAACRNAQsAAACApClgAQAAAJA0BSwAAAAAkqaABQAAAEDSFLAAAAAASJoCFgAAAABJU8ACAAAAIGkKWAAAAAAkTQELAAAAgKQpYAEAAACQNAUsAAAAAJKmgAUAAABA0hSwAAAAAEiaAhYAAAAASVPAAgAAACBpClgAAAAAJE0BCwAAAICkKWABAAAAkDQFLAAAAACSpoAFAAAAQNIUsAAAAABImgIWAAAAAElTwAIAAAAgaQpYAAAAACRNAQsAAACApClgAQAAAJA0BSwAAAAAkqaABQAAAEDSFLAAAAAASJoCFgAAAABJU8ACAAAAIGkKWAAAAAAkTQELAAAAgKQpYAEAAACQNAUsAAAAAJKmgAUAAABA0hSwAAAAAEiaAhYAAAAASVPAAgAAACBpClgAAAAAJE0BCwAAAICkKWABAAAAkDQFLAAAAACSpoAFAAAAQNIUsAAAAABImgIWAAAAAElTwAIAAAAgaQpYAAAAACRNAQsAAACApClgAQAAAJA0BSwAAAAAkqaABQAAAEDSFLAAAAAASJoCFgAAAABJU8ACAAAAIGkKWAAAAAAkTQELAAAAgKQpYAEAAACQNAUsAAAAAJKmgAUAAABA0hSwAAAAAEiaAhYAAAAASVPAAgAAACBpClgAAAAAJE0BCwAAAICkKWABAAAAkDQFLAAAAACSpoAFAAAAQNIUsAAAAABImgIWAAAAAElTwAIAAAAgaQpYAAAAACRNAQsAAACApClgAQAAAJA0BSwAAAAAkqaABQAAAEDSFLAAAAAASJoCFgAAAABJU8ACAAAAIGkKWAAAAAAkTQELAAAAgKQpYAEAAACQNAUsAAAAAJKmgAUAAABA0hSwAAAAAEiaAhYAAAAASVPAAgAAACBpClgAAAAAJE0BCwAAAICkKWABAAAAkDQFLAAAAACSpoAFAAAAQNIUsAAAAABImgIWAAAAAElTwAIAAAAgaQpYAAAAACRNAQsAAACApClgAQAAAJA0BSwAAAAAkqaABQAAAEDSFLAAAAAASJoCFgAAAABJU8ACAAAAIGkKWAAAAAAkTQELAAAAgKQpYAEAAACQNAUsAAAAAJKmgAUAAABA0hSwAAAAAEiaAhYAAAAASVPAAgAAACBpClgAAAAAJE0BCwAAAICkKWABAAAAkLSuWwCUYfLWFZ08MjcCoABZlkVkEbH6/886nYiR7Lb/vyPWAgDNp4AFlCKfzCPy3I0AKCKmTvd/ZxEx0olspBPZ6Ehk3c5thS4AgAZRwAIAqLM8IiZ6kU/0Ih+bWL3C60TW7UQ22r2toAUAUHMKWAAATfPPgtbKiduOGs7rRmde13FDAKC2FLAAAJpsMo98xXhMrhiPbLQT2YLRyLoj7gsAUCsKWAAALZGP9yIfH4vodqKzYDSyUYUsAKAeFLAAANpmohe9pasLWQvtyAIA0qerJwBAW030onfr2G3FrJ6/HAsApEsBCwCg5fLxyZi8dcW//4ohAEBiFLAAAIjoRfSWr4rJW1fajQUAJEcBCwCAf5vo3bYba2LSvQAAkqGABQDA7fXitt5YK1a5FwBAEhSwAABYp3zlxG0N3p0oBAAqpoAFAMCU8vHJmFy6MiJXxQIAqqOABQDA9CZ6mrsDAJVSwAIAYGaTuSIWAFAZBSwAAPrTyx0nBAAqoYAFAED/JvOY1NgdABgyBSwAAGZnohe9ZWPuAwAwNApYAADMWj4+Gb2V424EADAUClgAAMxJvmI88olJNwIAKJ0CFgAAc9ZbNuYvEwIApVPAAgBg7noRveX6YQEA5VLAAgBgIPl4L/KxCTcCACiNAhYAAAPrrVwVkTtKCACUQwELAIDB9SJ6K/xVQgCgHApYAAAUIh+b8FcJAYBSKGABAFAYu7AAgDJ06zLQO7zzqG0nordblseuWZ7vnneyrSPPN4zI14vI1ovIFw9tMHkS32KI8qS/XZX3Im/A4yhrECuuv2HLJHuh5EXfVv1eUroXeXMnmtk0038w2Yssj4heftv/TNz2P9lkRNaLiF7BAxzpRDaSRWSdyLqdyOaNRGf+aHQWzYvOgnkR3Rb/jnCiF/nEZGTdERMZAChMkgWsnU986PylKxc8ICbzAyPygyKLe03mk+tn/1y7ZrFGk9Bsrf+/xPRH4apNFz/j4POaP46yB5LN69RiOucDRZCWVSPytO9DXuAnQaqfIQ2ZMH19VTbrb9eZ8vvlEbcVtVZMRL5sIrKxXsR4XuozyUY60Vk0P0Y2XBAjGy6Mznrz2/X0V45Htr4CFgBQ4PoqlYFs855HbNabzB6f5dkRecQ+EbEwuQy3KfWHKkZb28QtT+NS8gbOiYqHnrf1XhR+uXZdzTgKhavBvqqs+9fLI182HrFsIrIVveJ3aK294BrpxMgGC2Jko/Wiu8miiE7zd2h1NlgQWVe3irIs2njDWLDRBm4EAG2xpNIC1s4nPnT+rcvnHZpl2VMiz4+IiHlNTDwUrpqRhClcNSePdlywiMtVuCpxojVxwsz+K/PhDj1fNh5x63hkK/Io/fjzSCe6ixfGyCbrR3ejRY2dEdnoSHTWnx+UQwELgJappoC17fses8nE+NhLIs9eEhGbJrnYVrhq08XPOHjHBZuRRytcFXG5ClfD+gxp0KSZ/VdVef8m8siXjEV262QMo49fZ143RrdaHN3NNmzkn9YZ2WhhRJYFxVPAAqBlhlvA2uptj9k8svEX5Vn+0ixio4ZluDXNWxSuphu8wlUz8mjHBeteUajRKBSumjDNbtPLI79xLLKlkxGT5Q8s63aiu8WGMW+rxY06XpgtHI3OglFL7hIoYAHQMsMpYG357kPXyyYXvD4ie0lU0tuqj9WxPldtu/hpB+64YHPyaLuuirhcu65mHIXC1WBflfL96+WR3zAW2dKJ0vtkRdzWK2veNhtFd8vFzZgq3dt6f1E8BSwAWmZJ6X8eZst3HPGIrDf6rciywyKiwl/BOS5Y2mj1uWrA/VO4asiELvhyFa5KnGhNnDCz/8o63L8si2y9bsT63cjHJyMbL3nQeR6Tt6yIySXLY2TRvMjmdes9ZXp5ZPNGIus4Rli00YXzo7tAjzEAWmNlaauJLd/+qDtl2fiHIrKHJrvYVrhq08XPOHjHBZuRRytcFXG5jgsO6zOkQZNm9l9V1/t3y6qIG1dFTA7nx3U3Wz/mb7tpRI3/mp9jhOWwAwuAlilnB9bW7zz8qDzyb2eR3a1hGW5N190KV9MN3q6rZuTR+lw1p6KgcNWMz5C8kfcvj5g/ErFBN2JsMmKi/J/YW74qJm9YFiOL5kc2v767sTrzu0Gx7MACoGWK3YG1w/EHLBibv/ideRb/1eTEQ/GqGQmYwlVz8mi7roq4XMcFh/H50aAJM/uvzJt3L/IlY5EtGc5fK4yIGN1qo5i37ca1vIMjGy2KcIqwUHZgAdAyxe3A2vzth++cj84/K8+yI5qaeChcNSPxULhqTh6tcFXE5SpclTjRmjhh5vaVeTPvRbawG/mCLLLlvaFcY2/pyugtG4vu4kURNesplY12ImvQX1dMgR1YALTMykIKWFu/8/D7ZJGdG5HtlNwCU+GqTRc/4+D1uWpG7qhw1ZyKgl1XzfgMaexxwT5ko52I9UciXzEZ2RD6YuVjEzG5ZFmMbLxeZCM1Kgh1sshGR4LiKGAB0DKDF7C2fPsjDoronBYRmzQkw63p2lvharrB23XVjNxRn6vmVBQUrprxGdLmwtXtdLLI1u9GvmJiOEWsyV70blweI4sX1qoopA9WsRSwAGiZwQpYW7/z8KMiOl+JiPWalnjYddWMpEPhqjm5o11XRVyu44IlTrQmTpjZf2XeznsREbcVsTYYjXysF9l4+Tci7/Vi8sZlMbLegpo0d8/9JcKCKWAB0DIr57z3fMu3H/mEPM++FBELhr/AzGf9HxXw3RNdbOfJfruqE4+85o+jCSWCIu7f3G9rrSd0wZdb/b1I52kUPtFqPmkKfJZ5I1+e2ckisq3nRywcztG+fLIXK37/j+gtXZn+be7F0JrdAwDNNKcV1pZvf8RBWZZ/eq5fX/gCU+GqTRc/4+CHfjlJFa7yJjzCAq7GrquU5kTShasWTpe5zotpC1cNbdI+N1nEVgsjnz+kJut5Hit/f030VqxK/25PKmABAHM36wLUVm9/xH2zrPP1iBjinuXyClf1y10cF5zq4VeSQylcFX7/Bi9c2XWVyuTMUx9F63ZdKVwNbfCdiGybhZGPDqeIlU/2Yux310Rv1UTat73Xs/IGAAZZYvVv83c9fJfIOqdFxPpJJB6tSvvtuprq4VdWuMobNicSGLrCVRGX67jgjDNK4WqwO6hw1ecKK4tsm4URQ+qx3hufiLHf/SNiIt0iUd6zAwsAGGB51e9/cYfjD1jQ6Y18MSI2q3SB6bhgmy5+xsHrc9WM3FGfqyIuV+Gq78+QVtHnqtLZ2c0itloQkQ1nJ1Zv5Xis/OO1CT8GBSwAYO76LmCtWLD4xCzinpUtthWu2nTxMw5en6tm5NH6XBVxufpc9XUv7Loa7Kv0uZq7BSORLx4Z2o+bvHVFjP/jZo8CAGicvgpYW779iMdlEc+pZLGtz1WLF4z6XDUie3RcsMRHr8/VjKNQuBrsqxwXLGQI2SbzI184vCLWqr/fmOZfJrQDCwAYwIwFrM3ffvjOWRafqCzxaFXab9fVVA9fn6vm5I6OCxZxuY4LzvhBoXA12B1UuCp8amZbzr/tSOGQjF1xXXr9sBSwAIABzFjAGsnixIjYYKgLTMcF23TxMw5en6tm5I4KV0VcruOCfX+GtIo+V0nFiqmG0cki32R0aMPorZqIVX9fktYTUr8CAAYwbQFry7cf8biI7KFDW2wrXLXp4mccvOOCzcij9bkq4nKTP6iXxijsuhrsq/S5Kv1xZOuPRr6gM7QhjV9/S/SWjVntAgCNMOUqarN3Hr5BZPHeoSYe9V++VjdahasGZOb6XDUkky74chWu+vr8ULia+0eF44JDHUK2+fyIzhCPEv7lBqtdAKARpixgdfPO8VnEHeqQeNh1VefEo+JLUbgqZeiOCxZxufpcTRUr2jpdpr0Xc32WClfDfxyjnYgNhrcLq7d8LCauvcWKFwCovXWuoDZ761FbR+QvLHWBqXDVpoufcfD6XDUjd1S4KuLR63PV92dI6yaM44LJPPxB79/GCyKG90cJY9VVSyJ6vQAAqO9yOB/truvfR0Ymjo3IFpSywCxo3VmvwlXjssrCBp834JG07kHmRV+NwlVK9yJP/SbZcTXYV+XtuxdJDqETMT4yHuNXDa/J+sqJpdHZeGGlty8b6US2aDQo6Jluvlks2GRjNwKAthj/jx1Yd3jbIzfNInv2YKu7cvtcKV7VMelwXLCOM7ifoetzVcTlOi4444zS52qwO6jPVXJD6G6zOLLR4W3D6t2wwrIXAKi1/yhg9Tq9l0fE+oWu7hwXbNPFz5hKOS7YjNzRccEiLlfhqsSJVvNJU+CzVLhKMnRnnSy6W2wwvMuYmIzeTSutfAGA2rpdAWvb9z1mYS9iDr2vFK5KGW0D+1zlNX4crXyQhdcTHBdMaU7oc9WMzxB9ruoburvbLI5sZHh/kbC3ZLmVLwBQW7crYI2vWvXILGKjgVd3BS366rXudlxwqodf2XHBNmQ/Qxz64IUru65SmZx56qNwXHCwr3JcsDZDyLqd6CxeNLxLG5uM3vJxq18AoJZuV8DKsnhKIYlHq9J+u66mevj6XDUnd1S4KuJyHReccUYpXA12BxWuSpuaZf64kc3WH+7PvMUxQgCgnv5VwNrirYdvGXkcPOcFpuOCbbr4GQevz1Uzckd9roq4XMcF+/4MaRV9rpKKFUMexpo/bmSThZHN6wztZ/duHbP6BQBq6V8rpk6n8+SI6M56sa1w1aaLn3Hw+lw1I4/W56qIy03+oF4ao7DrarCv0ueqdi/If/y4LKKz8XrDG8BkHr1bFLEAgPr596/8st6Rc0o86r98rW60ClcNuH+OCzYkky74chWu+vr8ULia+1c5Lli7Iaz7R972L91N1hvqWHpLV1kBAwC1042I2Ob4RyzqRXa/vhMwhas2Xfy0g88b8Dha9xALr0fbcZXSvcibO9GaOGFm/5V5O+9FnYeR9/GvnQ0XRDaSRT45nMHlyxWwAID66URE5As6D4yIef9eVDkuWMpo9blqyP3T56oBE7rgR6/PVV/3QvFqsDtox1WthjH1jqt8nauxbL15wxvcRC9i1YRVMABQK7cVsLI4cNrVscJVmy5+xsE7LtiMPFqfq6IqCo4LzjgKxwWbMM3qGytS6HPVxyBGNlww1DH2lo1bBQMAtXJbD6y8d6A+VyWNVuGqAZm5PlcNyaQLvlyFqxlHoXA12EeFPle1G8J0fa5mXJAtXjjUsfaWOUYIANRLJ774mJGI7B5lLPzsuqpz4lHxpShclTJ0xwWLuNzq70U6T0PhasZ7MddnqXBVxeMo+Kpndy866y9Y80/rlG9s0ioYAKiVzuZ/HNsxIuYXufZUuGpO4qHPVTNyR4WrIh69Pld93YtWFq4cF0zm4dfkuOC6V2QRndHu8MY9PhnRsxAGAOqjM5LFbkUu+lpbuKp14qbPVSOyR32uSnz0jgvOOArHBQf7KscFazeEQY4LTmlBd7gXoZE7AFAjnSxit6IKV/UqXjUusyzkXjgu2JzcUZ+rIi7XccEZZ5TC1WB3UOGqdkMo4rjgVLL5o0O9lp4CFgBQI91eHrtlxac0CS+20/12Vd+Ldu64qvGDLPwEl6OCKd2LvLkTramTZvZf5ahgrYaRD2EQnUWjMdTOVPpgAQA10s0itml+qqtwNd3gFa6akT/m7Z3UBV5ubmb2MwoN2pswzeo7O/MUfmQ5g8jmjQz3uiY0wQIA6qMbERs0O9VVvBru8rsO969ZhavBrkjhKqV7oXDVjM8PhavmDCEf8kCyTjbc6+u1cislAFBT3YhYv5mprsLVVINXuGpO7qhwVcTlKlyVONGaOGFm/5UKV7UbRl7RILLucHdghQIWAFAjfe3AUrhqTuLhuGAzckeFqyIu13HBvkaheDXYV+lzVath5FUPYqQz3AtWwAIAamTaHVgKV81JPOy6akb+qM9VEZercNXXKBSumjDN6js7G9znavpVmQIWAMCUS6WIWFj/tbfiVULLb4WrkoZu11URl+u44IyjULga7CsVrmo3hDylezEy3B5YClgAQJ106732VriaavAKV83JHRWuirhchasSJ1oTJ8zsv1LhqnbDyL0IAAC10q3nkk3harrB63PVjNxR4aqIS3ZcsK9RKF41YZrVN1YoXAEA0IeuwlVzEg+7rpqRP+pzVcTlKlz1NQqFqyZMs/rOzrYfFwQAYFa6rV1s63PVgPvnuGBrEzDHBQcbhcLVYF+pcFW7IShcAQDUXw0KWApXUw1e4ao5uaPCVRGXq3BV4kRr6qSZ/Vc5LlirYShcAQA0R8IFLIWr6Qavz1UzckfHBYu4XMcF+xqFXVdNmGb1nZ1J7LpSuAIAqLNEC1iKV0ktv+26KnzoCldFXa5dVzOOQuFqsK9SuKrdEOy6AgBopsQKWApXUw1e4ao5uaPjgkVcrsJViROtiRNm9l+pcFW7IShcAQA0WyIFLIWr6QbvuGAzckeFqyIuV+Gqr5EoXg32Vfpc1WoYClcAAO1QcQFL4Wq6wStcNSN/dFywiMvV56qvUShcNWGa1Xd26nM1+MWouwEATKnCApbiVVLLb8cFSxm6XVdFXK5dVzOOQuFqsK9SuKrdEBq160rRCgCgLxUUsBSuphq8wlVzEg+FqyIuV+GqxInWxAkz+69UuKrdMBp3XFDxCgCgb0MsYClcTTd4xwWbkXQoXBVxuY4L9jUKxavBvkqfq1oNQ+EKAIAhFLAUrqYbvF1XzUg89Lkq4nIVrvoahcJVE6ZZfWenPlctXsMAAFSr5AKW4lVSy2+Fq1KGbtdVEZfruOCMo1C4GuwrFa5qNwR9rgAAWFNJBSyFq6kGr3DVnMRD4aqIy1W4KnGiNXHCzP4rFa5qNwzHBQEAWJeCC1gKV9MNXp+rZiQdCldFXLLjgn2NQvGqCdOsvrFC4arFaxgAgPQUVMBSuJpu8HZdNSPx0OeqiMtVuOprFApXTZhm9Z2djgu2eA0DAJCuAgpYildTDVzhqjmJh11XRVyu44IlTrQmTpjZf6XCVe2GYNcVAAD9GqCApXA13eAdF2xG0qFwVcTlKlyVONGaOmlm/1WOC9ZqGApXAADM1hwKWApX0w1e4aoZSYfjgkVcruOCfY3CrqsmTLP6zs4kdl0pXLU4IAAA9G2WBSzFq6SW344LFj50hauiLteuqxlHoXA12FcpXNVuCPpc+fwAABhEnwUshaupBq9w1ZzEw3HBIi5X4arEidbECTP7r1S4qt0QHBf0GQIAUITuUBdVjgs25P45LtjKpEPhavCRKF4N9lX6XNVqGApXPkMAAIrUHcqiSuGqIffPccHWJh76XA02CoWrJkyz+s5Ofa4Su38KVwAAc9EtfWGlz1UD7p/jgq1NPOy6GmwUCleDfZXCVe2GoM+Vzw8AgLJ0S1tY6XPVgPuncNXaxEPhqqqJ1sQJM/uvVLiq3TAcF/QZAgBQtq7C1fSDd1ywGUmHwlURl+u4YF+jULwa7Kv0uarVMBSufIYAAAxLt7DvpHDVkHuoz1VrEw99rgYbhcJVE6ZZfWenPleJ3T+FKwCAohVTwNLnqgH3z3HB1iYejgsONgqFq8G+UuGqdkPQ58pnCABAFQYrYOlz1YA1rsJVa5MOhauqJloTJ8zcvtJxwVoNw3FBnyEAAFWaWwHLccGGrHH1uWpt0uG44GCjULxqwjSr7+x0XDCx+6dwBQAwDLMrYClcNWSdq89VaxMPu64GG4XC1WBfpXBVuyE4LujzAwAgFf0XsPS5asA613HB1iYeCldVTbQmTpjZf6XCVe2G4LigzxAAgNTMXMCy66oha1zHBVuZdChcVTXRmjppZv9V+lzVahgKVz5DAABS1W3mGk3hqqmJh+OCRVyuPld9jcKuqyZMs/rOTn2uErt/ClcAAFXrNmud5rhgUxMPhauiLteuqxlHoXA12FcpXNVuCPpc+fwAAKiDblMTD4Wr5iQejgsWcbkKVyVOtCZOmNl/pcJV7YbhuKDPEACAOuk2MfFwXLAZSYfCVRGX67hgX6NQvBrsq/S5qtUwFK58hgAA1FHXccEmrHEdF2xt4qHP1WCjULhqwjSr7+zU5yqx+6dwBQCQsm79hqzPVZMTD7uuirhcxwVnHIXC1WBfpXBVuyHoc+XzAwCg7mpWwNLnqvaLbYWrEh+9wlWJE62JE2b2X6lwVbthOC7oMwQAoClqUsByXLD2i22FqxIfu+OCfY1C8Wqwr9LnqlbDULjyGQIA0DSJF7AcF2xq4qHPVRGXq3DV1ygUrpowzeo7O/W5Suz+KVwBANRVogUshasmJx52XRVxuY4LzjgKhavBvlLhqnZD0OfKZwgAQJMlWMDS56r2C22FqxIfvcJViROtqZNm9l/luGCthuG4YHM+Q5TYAACmllABS5+r2i9hS6knKF6ldB/sumpGuuu4YHOG4LhgMz4/FK4AAGaWQAHLccGmJh4KV0Vdrl1XM45C4Wqwr1K4qt0QHBdsxueHwhUAQP8qLGApXDViCeu4YImPXuGqxInWxAkz+69UuKrdEBwXbM5niOIVAMDsVFTAclyw9ktYhasSH7vCVYkTramTZvZfpc9VrYahcNWczxCFKwCAuRlyAUvhqqmJh+OCRVyuPld9jcKuqyZMs/rOTn2uErt/ClcAAG0xpAKW44JNTjzsuiricu26mnEUCleDfZXCVe2GoM9VMz4/FK4AAIoxhAJWXv1CTuGqlKErXBVxuQpXJU60Jk6Y2X+lwlXthuG4YHM+QxSvAACKU2IBy3HB2i9hFa5KfOyOC/Y1CsWrwb5Kn6taDUPhqjmfIQpXAADFK6GA5bhgUxMPfa6KuFyFq75GoXDVhGlW39mpz1Vi90/hCgCAQgtYCldNTjzsuirich0XnHEUCleDfZXCVe2GoM9VMz4/8vZdMgDA0BVUwNLnqvYrT4WrEh+9wlWJE62JE2b2X6lwVbthOC7YnM+QvF2XCwBQmQELWPpc1X71qXBV4qN3XLCvUSheNWGa1TdWKFwldv8UrgAAWLc5FrAcF2xq4qHPVRGXq3DV1ygUrpowzeo7Ox0XTOz+KVwBADC9WRawFK4asfq066rER++4YIkTrYkTZvZfqXBVuyHYddWMz5Dy+1zlobIFADC1WRSw9LlqatKhcFXE5SpclTjRmjpp5pbftug+1H0YClfN+Qwpf9eVwhUAwEz6KGDpc1X7BWYp9QTFq5Tug+OCzUh3HRdszhDyJj1EhasSv4nCFQBAv7rJL7/tuip86ApXzUk8FK6ake4qXDVnCPpcNePzQ+EKACA93X4WVgpXzUk8HBdsRuLhuGBz0l19rpoxBMcFm/MZUm7xSuEKAGCuujMtrBwXbEbSoXBVxOUqXPU1EsWrlua3+lw14iVQuGr0ZwgAQJ11p1pUKVw1I/FwXLCIy9Xnqq9RKFw1YZrVd3bqc5XY/VO4anFwBAAoRddxweYmHnZdNSPxULhqRrqrcNWcIehz1YzPD4UrAIB66Va6zFK4KmXoClfNSDz0uWpOuqvPVTOG4bhgcz5D9LkCAKifbiVLLccFSxm2wlURl+u4YF+jULxqaX6rcNWIl0DhqvGfIQAATdRtZ/6jz1VrF9v6XA02CoWrJkyz+s5Ofa4Su38KVy0OjgAAQze8ApbCVSlDt+uqGYmHwlVz0l3HBZsxBH2umvH5kZf+jRSuAACGpfwClsJVKUNXuCrichWuSpxoTZwwLctvHRds8mdIGz5P7boCAGiW8gpY+lyVMmyFqyIu2XHBvkaheNWEaVbfWKFwldj9U7hq9ecpAEACyilg2XVV+ND1uSrichWu+hqFwlUTpll9Z6fjgondP4WrFgdHAICkFFvAUrgqZeh2XTUj8XBcsDnprj5XzRiCXVfN+AzR5woAoB2KKWApXJUydIWrIi5X4arEidbUSdOi/NZxwSZ/hrTh89SuKwCA9hisgKXPVSnDdlywiMt1XLCvUdh11YRpVt/ZmcSuK4WrOt4LhSsAgPaZewHLrqvCh65w1ZzEQ+GqGemuwlVzhqDPVTM+PxSuAADaa/YFLIWrUobuuGAzEg/HBZuT7upz1YxhOC7YnM+QcotXClcAAKnrv4DluGApw1a4KuJyFa76GoniVUvzW4WrRrwECleN/gwBAGBmMxewFK5KGbrjgkVcrj5XfY1C4aoJ06y+s1Ofq8Tun8JVi4MjAECtddNf5zou2NrFtl1Xg41C4Wqwr1K4qt0Q9LlqxudHXvo3UrgCAKijbrprO4Wr1i62Fa6qmmhNnDCz/0qFq9oNw3HB5nyG6HMFAMBUummu7fS5auViuwZHPey6aka6q89VM4ahcNWczxDHBQEAmEk3rbWdPletXWzrczXYKBSumjDN6js79blK7P4pXLU4OAIANFZX4aqcodt11YzEQ+GqOemu44LNGII+V834DNHnCgCA2epW++MVrlq72Fa4qmqiNXXStCi/dVywyZ8hbfg8tesKAIC5qLCApc9VaxfajgsONgq7rpowzeo7Ox0XTOz+KVy1+vMUAKBFKihg6XPV2sX2LCsK2y7ePO60ybbhJs1+uiwfH4sf/v3Xzb0XxU2zNqX+cZctdozRkW6VQyjgR5Y3kIneZPzqmitq8tGncNW4z9I81OAAAKYxxAKW44KNW2yXnHhM9npxymNeG+vNW+hNnfUtz+PAj7+4vGQ80Vihz9XU7n2H3eLMZ30gssi8IFP44He/FL86+4qUH2OtJrU+V5YEAABF6lidzTDsvO9/nvs3bKp8psRj+ntx9a03xAkX/6+3dA6yyOKV+z2pNZnclLMpb+TLMyevf9CzFK+mceUt18W7L/xs4o+xPp8heemXq3gFANA2JRewalywyYu+Gruu5nIXT/rBV+MPN/zdmzoHD9t9r7jXNrvWaMLkxX1VrWvFxQ/8obvtFfvucA8vxTRedfqHY9mqFYl+9NWrcJWX+k0a8oug5lXdAQBKV1IBq+aFq0J7Xdl1NchdXDU5Ea8+86Pe1DnIIotjHvjERqa7zS1cFT/4kawTrznoGV6IaZz7hx/Gab/5boKPUOGqcZ+lzQxeAABDUXABq5mFK8cFq008LrziJ3Hab7/rbZ2DB+96/7j3Nrs1Kt1VuJqdp9z7obH75tt7GaawcmIsjj3tQ8U8xsLnRX1mcHnfROEKAIDbFFjAUrhq5WJ0SL8xf+1ZH4vl4yu9sXPwyv2flOCkKTj/a97LU4j15i2MV+7/ZC/BNN594efiz0uuTugx2nXVgJe7j8tQuAIAmK0CClj6XDVusT3w5RY/J/5+83Xx4e99xRs7BwfvfN+4/3Z71Dbd1edq7l6016Njy/U38RJM4Y83/D0+Ote4onBV4jfR5woAgP80QAFLn6vGLbYLSzzK8YFLvhhX3HiVt3YOjtnvialOmLnlfnZdzWiz9TaKF+71KJN/uvfi2yfG2OR4xY+wZYWrCMcFAQCYkzkUsPS5au1itOLfmK+aHI/jz/mkt3YODrzTvWOvO961NumuwtXgXnXAU2P9eQtN/il88efnxEV/+mkBE3PQeVGfGVzea9Cgz1KFKwCA0syygKVw1drFaCK/MT/jd9+Ps/9wqTd3DobbC0mfqypjxc6bbhtPuteDTfop3DK2LI4/+5MVPkbHBRvwcvdxjQpXAABF6rOApc9V4xbbhVQUqrkXrznzYzE2scrbO0sP3OEesc/2d08y3dXnqlhvOPjZMdrpmvRTeNM5J8c1S2+s4KNP4aohL3efwQsAgCJ1mrLY7nfo+lwVlXhU589Lro6P/uBr3t45+H8HPi25dNdxwWLdd9s7x0N2fYDJPoWfXvW7OPWy0yp4hPpcNeqzVJ8rAICh6zRugem4YInZS/X34p8jeO9F/xN/u+kab/As3W+7u8T+O94ricTcccFyvPGQ50aWZSb7OkzmvXjZt94fk3mv6OnciM+QvPTL1ecKAIC56zRmgalwVWL2ksa9WHMEKydWxfHnfsobPAfHHfCUShNzxwXLG8IRd94v7rfdXUzyKZx86Tfi51f/YUhhznHBxn2e6nMFAFCpTiMWYfpclZx4pDm8b1x+UZz/x8u8xbN0323vHAfutOfQ093mFq7yJIYw2unGax70dBN8CtcuvTHeccGpQ3iEClcNebn7DF4AAAxLR5+rBi62G5J49DOC15798RjvTXiTZ+n/Hfi0yCIb2vuhcFX+EJ5+n8PiTpvcweSeas6f8dG4eeXSoj4sZjPTmzt79bkCAGCIOrUcteOCJWYv9Shc/dPvrv9bfOLSb3iTZ+meW+8SB+9y39ITc32uShzGGtaftzBevt8TTOwpXHDFj+Nrv7qwxMeoz1UDXu4+LkPhCgCgSvUrYDkuWFL2kl6fq369+zufi3/ceoO3eZZetf9T+tiF5bhgUrFiivv30n0fF5uvt7FJvQ5jk+Nx3GkfKmn+OS7YkJe7z+AFAECV6lPAclyw5MSjvsnV0lUr4k3nfdrbPEt333rneMhuDyj0iehzNfwhbLXBpvH8BxxlQk/hAxd/If5w/d8Vrkr9/HBcsNBxAACwTukXsBwXbHTiUdQIvvyL8+O7f/mFN3qWXn3AU6OTZYW9Wc163dI8Lvgfz/DAp8XC0fkm8zr86car4v0X/W9rKwz6XA3ymldQuFK8AgCYVroFLIWrEhfD9T0uOPX3yuNVZ3wkJnqT3upZuPMWO8TDdt9noCeiz1V1w9h1szvG4+5xsIk8hVef/pEYm1jVugrDcHZdNeRzsurnrHAFANC3NAtY+lyVsChPZ6Vc1iguv+4v8d+XfdtbPUvH7f/k6GQFPkd9rob2grzp0OdEtzNiEq/D1355YZz9+0sTjliJxlZ9rur9QQgA0GBpFbD0uSo58WhAcjWDt11waly7dIk3exZ233z7OPwu+836WTbrdUu7z9W67L393ePgXe5nAq/D0rEV8bqzPlb/OTHskTouOLxxAAAwa2kUsBwXLDF7aU6fq37cOrY83nbBqd7sWXrV/k+Nkawzt2epcDX0hDaLLN506HNM3Cm89bxPx9W3XN+KCkNe6mvQoM9SxwUBAGqv2gKWwlWJ2Uvz+lz1639+dlb86MrfeLtnYadN7xBH7rH/3PLb2r44eW2H8ai7HRj33GZXE3cdfnXNFfGpH36z3vNiWCNtS5+rqqvuClcAAIWoroClz1VJC+Jm97nqRy/P47jTPxKTec8bPgvH7v/k/+inpM9Vei/IvJFuvOrAp5qwU7z7x3zrxDn8MQeFq4a83H0GrxZ8EAIANNDwC1j6XJWceDQguSpgFD//x+/jcz850xs+C3fa5A7xqLseOP1sclyw8iE8+35HxA4bb23CrsMpl307fvi3X8/hobRo9upzNbxxAABQqOEVsBwXLDF7aVefq36zhrec/+m4cfkt3vJZeMV+T4qRzojjgokmtIsXrB9HP/DxJuo63LD85njbef/dyM+QvPTXQJ+rBn4YAgA0TvkFrMILVw1abA98ue3tc9XPvViy4tZ4x4Uaus/GDhtvHY+7+8ENSsjqfVxwbS974ONjk4Ubmqjr8NozP9ZnwdpxwYa83DNcRv0KV/nq/wcAwLqVW8AqpXBl11UqiXny3bbyiFMuOy1+ctXvvOmz8Ir9nhTzRrqOCyY2hG023Cyefb/DTdB1+N5ffhlf+tm5jfn8ULga9Brz4Y9joC9XuAIA6Ec5BSx9rhqdeKR4XHCqAfbyPF5z5kmSg1nYbvEW8fi7H9rEl6fWQ3jdg54ZC7rzTdC1rJqciGO+9YEZ3vG8VjO4vG+iz1Vq77rPJgCA/hVbwNLnqsTFsMJVXyNZxz//8O+Xx//OuDuDNb38gY+PeSOjTXl5hjuMEuyx5Z3iUXc7yMRch49898vx2+v+UvvPkOHsumrI52TVz9lxQQCAShRXwNLnqqTEV5+rvu7FDLfpTed+Km5eucwb36dtF28RT77Xg+v+8tQqoZ3OGw99TnSyzMRcy99vvjbee9Hnk42bQ5s6jgvW5mEpXAEAzN3gBSzHBUtOPBqdlw8+ij4HeN2yJfHu73zWGz8Lx+z3xFjQndf01D/5ITxo5/vEAXe6twm5Dsed9qFYvmplLT8/FK4GvcYKdl0N9OUKVwAAg5p7ActxwUYnHnXqc9Wvk3/4zfj1NX/y1vdpy/U3iafc+6FNTf0rT2j7CtBZFq990DNMxnU47TffjTN++/3hPpCUpo7CVW3CjcIVAEBB+VFRizmFqyIu13HBvu7FHAc40ZuMY0//sGRiFo7e93GxcHR+HV6eRg7jcfc4JO621c4m4lpWjI/Fa874aO0+Q/S5GuRDSJ8rAIC2m10BS5+rEhbl6SRgTTkuOJ0f/O1X8X+/+o43v09brr9JPH3Pw1J+eRr7gszvzovjDniKSbgO77zg1PjrTf8Ihau0ond5N0rhCgCAfgtY+lyVnHi0Ki+f/SgKHuBrz/pY3Dq23Nvfp6P3fVysN29he2dnBUPII+L5Dzgqtl28hQm4lt9c++c46ftfrX/on+03avJnqT5XKS0JAACS1ZnLotJxwSIuV5+rGVfsJQ3w2qVL4v0Xf8Hb36dNFy2OZ9znsHbOzryaq95owfrxkn0eY/KtfX/yPI497UMxPjlRi/Bf/mdIQz4nq37/U+hz1bLlEQDAXHRms5BSuCoie9Hnqq97UfIAT/rB1+L31/9NBOjTS/Z+bKw/lF1Y7etzta4fd+wBT46NFqxv4q3lf356Vlzy558lH/odF5zrNba0z5XCFQBAXzr9LKT0uSpiQazPVV+jGNIAV01OxKv/1QSamWy6aMN49v0OH8K8aN8LsvaP236jreLp93m4SbeWJStujTee84n6hf7Cvok+Vyk9rMIKV4pXAAB968y0kNLnqqjEo3V5+ezuRQUDvPBPP4lv/+a7okCfXrjXo2KD+YuaOTsrKlzl6/jX1x38zJg/MmrCreWNZ38irl92c71CfwGhUZ+r4XwE9f/lClcAAFXpOC5YZvaiz9WMI6l4gK8586RYPr5SJOjDJgs3jOfd/8jmzc5EClcRedxrm93iyLvsZ7Kt5cdX/iY+95Mzkgz/5X+GNORzsur3X58rAIDa6xS7vtLnKqVVatv7XPXjyluuiw9+90siQZ9euNejCurN5LjgugbxhoOfFVmWmWhrmOhNxsu/+f7o5el8vjguOMg16nMFAMDcdIpZ49l1ldIqVZ+r2Tnxki/FFTdeKRr0YcP568VzB9qF5bjgVLHiIbvtFQ/c8Z4m2Vo+/oOvxS/+8cf0Q39hnx/6XBU6joG+3HFBAICUdAZb4ylcpXQv9Lmam1WT4/GGsz8pGvTp+Q94ZGy8cIP6zc6kCle3/9eRrBOve9AzTa61XHPrjfHuCz+bclQr6Jvoc5Xau65wBQCQnk7PymzAy1W46mskiU+XM373/Tj795eKCH3YcP568fwHHFWv2Zlo4eqfnnzvh8Tum29vcq3luNM/FLesXFb/+KrPVW0e1sC7rhSuAABK00k+E0w28dXnqq97UaPF/P8786QYm1glKvTh+fc/MjZdtDj92Zlgn6u1LejOj1fs92STai3n/eFH8c1fX1TvqeO4YG0elj5XAADpm0UBy66rlFap+lwV789Lro6PfP+rokIf1pu3MF6411Hpzs5E+1yty0v2eUxss+FmJtUaVo6PxbGnfbC+U6f1hashF68G+nJ9rgAA6qKPApbCVUr3Qp+rcr3vov+Jv910jcjQh+fc74jYbL2N0nv4iR8XXNNm620UL9rr0SbTOt7DP914VT2nTtMLV1Neoz5XAACUq2Nl1s/lOi7Y171owHRZObEq3nCOhu79WDS6IF6y96MjqcJV5fnz7AZx3AFPiQ3mLzKZ1nDFDVfGh777xfpNnbb0ucqTfPFm+S0cFwQAqKOOlVnUonDluODwfPPyi+O8P/5IdOjDs+97eGy1waate0HyAgax06bbxlPu/VCTaC3HfPsDMTYxXp+po89Vbd5zxwUBAOqt0+qVmT5Xg42iwdPl1WecFKsmx0WIGczvzosX7/2Y1rwgc+1ztS5vOPhZMdrpmkRr+NLPz43vXPGT+kwdfa6GN46BvlzhCgCgCTqtXJnpczVY1tCC6XLFjVfGJy79hgjRh2fseVhsvcFmSUzN4b6Tc38R7rPtneNhu+1t8qzh1rHlcfzZn6jH1GnLccGqg38r+1ypkgEATKXjuGBlq9SEl67N7nPVr/d853Nx9a03iBIzmN+dF/+1z2Nrk9AO/uMGH8SbDn1uZFlm8qzhzeecHP8o8X1zXHCQa9TnqnHBDQCghjqtudJUjkIkvXRt53HBqS546arl8aZzTxYl+vC0PQ+L7RZv0agXJC8po33EnR8Y999uD5NmDT+76vfx35d9K92po89V1S/eLL48t+sKAKChml/A0udqsAV0CwtXa17wl39xXlzyl5+LFDOYN9KN/9rncY14QcradRUR0e2MxP876GkmzBp6eR6vPO3EmOz10pw6+lzV4sOwvoUrxSsAgH41t4Clz9VgI2nlunrdF/yq0z8cE71J0WIGT773Q2L7jbYq+3EM+U0o9kV4+n0eHrtudkeTZQ2f+uE34rK//2YIb3LRnyFNDXn6XPncBQBIUzMLWPpcDbZib2XhauqL/s11fynteFOTjHa6cfS+j08ioR38nSx+EOvNWxiv2O+JJsoarlu6JN523n8P6U0u4ps4LpjSw6pfn6spfqDCFQBAX5pVwHJccLBRtPy44HTedv4pcc3SG0WMGTz+nofE9htvXZsXZOpdV8V76T6Pi83X29gkWcNrzvxo3LxyaRqxtfWFqyEXrwb68oYcF1S4AgCYlWYUsBwXHCxrULia0a1jy+Nt558iYsxgtNONYx74xMKm5nBnQHkvwlYbbBov2OsoE2QNl/z55/HVX1xQVlQr6JsoXKX2Ydio44IAAMxKvQtYCleDj0Sfq76/6vM/PSt+dOVvguk97h4Hx86bbpvkSzLswtU/veqAp8ai0QUmx2qrJifimG+9f6BixHB2XTU15NWzcJUP1uVdnysAgJqrbwFLn6vBVux2Xc36q/LI49jTPxSTeS+Y2kjWiZfPtAuroX2u1mXXze4YT7jnoSbGGk68+Avx++v/NsQ3eTbfRJ+risPuWt9CnysAAG5TvwKWPleDjULhaqCv+vlVf4jP/eQMkWMGj7rbgbHLZtslMf+G2edqXd546HOi2xkxKVb7203XxPsv/kJ1sdVxweGNY6Av1+cKAIDbq08By3HBwbIGhavB7uAa3+7N5346blh+i+gxjZGsE6/Y70mFJrTFzIDhvgj7bH/3OHSX+5sQazj2tA/GivGxIqJaQSGhQcFRn6uKHqk+VwAAw5B+AasGRz30uapFFjdYfruGJStujXdccKroMYNH7nFA3GWLHVvT52ptWWTx+oOfZSKs4Ru//k6c9bsfFBP+C/sMaUjIyyue8608LqjPFQDAMKVdwKpB4cpxweSzuLl/1TTf7pTLvh0/uep3Ish0wSXLZu6FVXrIqO4lOOquB8R9tr2zibDa0rHl8ZozThpebNXnqjYfhPU9Ltj2z1wAgCHnmPValA95YZ506qNwVcQFz/XETS/P4/+d8dHBk66GO+IuD4w9trxTRTOgumczb6Qbrz7oaSbAGt5xwalx1S3XDSe26nM1vHEM9OX6XAEA0L+0Clj6XA2WNShcFZP/9emHf788vvCzc0SRaWRZFq/c/8lDngHVvwjPuu/hsePG25gAq/36mj/FJy/9+lyiWsGfIQ0Je1XPeX2uGjetAADqIJ0Clj5Xg63Y9bka7A7OcZq98ZyT4+aVS0WSaRy2+95xr212HcIMSCNWLF6wfrx8vyd68Kv18jyO+dYHYnxyorwI39rjgvpcVXbRdl0BAAxd9QUsxwUHG4VdV4N91YD37/plN8W7L/ycSDKNLMvimAILOqkdF1zb0fs+PjZZuKEHv9pnf3x6XPq3X5UTuvS5Gu44Bvpyfa4AABhMdQUsxwUHyxoUrga7gwXev0/+8Bvxy2uuEE2m8ZDd9op732G3EmZAWi/C1htsFs+53xEe+Go3Lr8l3nLup/qNaoWERn2u0vowbEyfqwiFKwCAig2/gKVwNfgC2nHBwfO/Ak30JuNVp39YQ/cZzLUXVh0KV//0ugc9IxaOzvewV3v9WR+LG5bfXOxT0+eqNh+GjSpcCe8AAJUbbgFLn6vBVuytLFylc1xwOt//66/ia7+8UESZxiG73C/us+2dB3wn080k99jyTvGYux/sQf/rnfhlfOGnZxf31BwXTDnsrvUt6tbnaoofqHAFAJCU4RSw9LkabBSOCw6e+w3h/r32rI/FrWPLRZVpHHvAkwd4lmm/BG885DnRyTIPOW7blXjcaR+MXhH7EltfuBpy8WqgL2/IcUGFKwCAJJVbwHJccLCsQeFqsDs45Pt37dIlccLFXxBVpnHQTveJvba/2yxnQPovwr473CMO3GlPD3i1j3zvy/GLf1xRTEhocnBsSJ+r276FPlcAAJSrnAJWDX5j7rhgiplcwflfBU76/lfj99f/TWSZxiv3f1Kfz7EeRYpOlsWbD32eB7valTdfN/hf5tTnqvKPoP6/Rd2OCybc58rOLwCA6XOv4SzK01mZOS6YYhZXv+OCU1k1ORGvOuMjIss09tvxXrHPDnefJmTU6yV47N0PjrtvvbMHu9pxp38olq1aUUI40OcqpQ/C+h4XTHRaKVwBAMyouAKWPleDjULhavDcL5H7d+EVP4lvXX6J6DKN/3fQ02vZ52pt87vz4tUHPs0DXe2c318ap/3muwUn8I4LFj6Ogb5cn6sGLk4AAGph8AKWPleDZQ0KV4PdwUTv32vOPCmWj68UYaZw/+32iP12vFftX4Tn3/+Rse3iLTzQiFgxPhavPO2DBYaEBgVHfa4qeqQJ97lK7fw7AEANDFbA0udqsBW7PleNXedfect1ceIlXxRhpvHqA58adS5SbLRg/XjJPo/1IFd714Wfib8s+UchobFRhau84s9Hfa7SWpq0oWALAFCSuRWwEl+AOS5Yiyyu8ev8Ey/5UvzxhitFmSncb7u71PMv962ef6/Y78mx8cINPMiI+MP1f4uTvv/VAsKBPlcpfRDqc1X+0BSuAAD6N7sClj5Xg41C4apV6/xVk+Px+rM/IcpM47UHPSOyyGo3nbffeKt45n0f4QFGRJ7nccy3T4yxifE5vtgNCo76XFX4SOvW50rhCgBgtvorYOlzNVjW0Mp1anuOC07nzN99L87+/aUizRTuuc2ucfAu963ddH7tg54Z87ujHmBEfOFnZ8dFf/rpgJ8hTQ15+lxVdtH6XAEANM7MBSx9rgZbsbeycNW+44LTPfxXn/GRGJtYJdpM4dUHPi3dXVjrmH9333rnOHKP/T24iLhpxdI4frpdhq09LqjPVWUXrc8VAEBjdeaeeCS6PkxlFI4Ltnidf/vB/3nJ1fGh731ZtJnCPbbeJR682wNqM53feMhzopNlHlxEvPGcT8Z1y26aw+eHPleFjmOgL9fnqvznoXAFAFCETt0SD8cFa5PFtXCdP/XgT7joC/HXm64RcabwmoOenk5RaJr59+Bd7x/73eleHlhE/OTK38ZnfnzaLO6fPlcpfRg2ps9VhOOCAAAt0elvIapw1dcCWp+rlq7zZ374KyfG4vhzNHSfyl222DEetvs+ST/GkU4nXnfwszysiJjs9eJl33p/9PK8z/unz1VKH4aNKlw5LggA0Bqd6XMLfa76uhf6XLV4nd//wL/x64vi3D/8SNSZwqsPfFo1u7D6nH9PvOeD485b7OBBRcTHL/2/+PnVf+jj/jkuWHHYXetb1K3P1RQ/UOEKAKCVOvpcDTAKxwVbvM6f2+BffcZHYtXkuMizDrtvvn0cfpf9knyEC0bnxyv3f7KHFBHXLr0x3nnBqQpXwy5eDfTlDTkuqM8VAECrdVJchOlzVZssroXr/MEGf8WNV8bHf/B/Is8Ujt3/ycPZhTXLR/jivR8dd1i8uQcUEced/uG4ZcWy5KN3OXPEccHKLlqfKwCA1uuklng4LliLLK6F6/zi3o/3fOdzcfWt14s+67Db5tvHI/c4IKnHuNl6i+PFez/Gw4mI8/94WXz9l99JOnqXM0fqWbiq13FBfa4AAJhepwYH9dIYhV1XLV7nFzvwpatWxBvPOVn0mcKrDnxqdDsjyQSYY/d/Smwwf1Hrn8vYxHgcd9qHmxsc9bmq8JEm/IdRFK4AAJLRSTZnSGUUClctXueXN/gv/+K8uOTPPxeB1uFOm9whjrrrgUk8wh023jqesufDPJSIOOGiz8cfrv9b84KjPlcVPtLE+1zlld8gAADWUFkBS5+r2mRxLVznD2fwx53+oRjvTYhC63Ds/k8efBdWAY/w+EOeHfNGuq1/HlfceFV84OIvNi846nNV0SPV5woAgNmrpIClz1UtsrgWrvOHm8X95rq/xKd/9C1RaB123GSbeOzdD670Me657e7x8Dvv62FExKtO+3CMTawKfa7SCjf6XA3jedRrJx4AQJMNtYDluGAtsrjarPObkDW8/fxT4pqlN4pE63DsAU+e3e6nguffmw99XmTD+IuIifvqL86Pc37/g9DnKp1wo8/VMJ5H/QqaAABNN5QCluOCtcniarHOb9LsvHVsebz13E+LROuw3eIt4/H3OHQoBYG1PfzO+8T977hH65/BrWPL43VnfazBIa9eRYrG9LmK0OeqtesPAIC5K7WAlVbhKk95gEO+FwXnf83KaIc+jP/56dnxw79fLhqtwzH7PTHmj4wO8THm0e104jUHPcPNj4i3nvupuPqW6xsY8vS5avXnbkN24gEAtE1pBSx9rlLM4hwXTObhr3H/8sjjuNM+FJN5T0Ray7aLt4gn3eshQ5h///6GT9vzsNh18zu2/t7/7Orfx8k//EbDQp4+V5VdtD5XDfn8BACoTuEFLH2uapHF1Wad37jZOcUQfn71H+KzPz5dRFqHY/Z7Yizozi/pEd7+G643b2G8Yv8ntf6e9/I8XvmtE2Oy12vQa67PVSUXrc9Vi9cfAADFKqyApc9VbbK4WqzzG5c19DGEt5z76bhh+c2i0lq22mDTePK9H1LCI/zPb/iSfR4bW6y/Sevv+X//6Fvxo7oda23Q7hp9roY1L9rzEQQA0AQDF7CS73MVoc9Vjdb5jcwa+hzCkhW3xtvPP0VUWoeX7/uEWDA6v9R5seUGm8SL9np06+/1dUuXxFvO/VQDQl4Ljwvqc9XnB1pe8dwEAGAuBipg1aJwZddVbdb5jcsa5nD/Tr3stPjxlb8Vmday5QabxNP3PKzUB/KqA54Wi+YtaP29ft1ZH4ubVtxa85Cnz1UlMdZxwRavPwAAyjenApY+V7XJ4uae+9l1VckQenkerznjo5HnMp+1vXTfx8bCOe3CmvmB7Lr5HeOJ93pw6+/xRX/6aXzp5+fW+DWv1+6a+va5ytP8zGhI434AANZtVgUsfa5qk8XN7Q4qXFWe0EZE/PDvl8cXfna26LSWLdbfJJ5138NLeSDHHfDU6HZGWn1/V01OxCu/fWL6xVN9rioKefpcDWNO5KpfAABT6ruApc9VLbK4Wqzzk8saEhzGG885OW5euVSEWsuL9350n72w+n8gu22+fRx+l/1af28/dMkX43fX/bVmr3oL+1wNPV7rc1X281C4AgDoz4wFLMcFa5HF1Wadn1TWkEhCuy7XL7sp3nXBZ0WotWy+/sbxpHseWugDeeX+T45OlrX6vv795mvjfRd9vmYhr6WFq6EXrxL9zLATDwCgdTrJrJNnOwqFq1qt85PLGmowhE9e+vX45TVXiFJr+a99HxejI91CHsium98xjthj/9bf02O//cFYvmplTV5zfa4qufn6XBX64+y6AgCYvU6CpYHps4ZWNkh1XDCphz+kIUzmvXjVaR/W0H0t2y7eIo6664GFPJBX7Gf31TcvvzjO+O33ahDy9Lmq7KL1uSrsxylcAQDMXSe1Nao+V4NnL44LppvQztb3/vrL+OqvLhCp1vKyBz4+Otlg8+JOm94hjmz57qsV42PxujNOSjzk6XNV2UXrc1XYj1O4AgAYXCeVNarjgoNfcHMLV3nrhrDmj3ztmR+LW8eWi1Zr2GWz7eJhu+8z0Pc47oCnxkin0+r7+Lbz/jv+etM/En7NW7i7Rp+rGZ6HPlcAAG3VcVwwJfpcJTX4igtX/3Tt0hvTbbBdoVfs/+TIYm7H/+y+irj82j/Hx3/wtUTfsRburnFccIah6XMFANB2FW8/SPjYQiX3ouD8r7b3oT19rqa/6n//60nf/2r8/vq/iVhruNtWO8WBO+85p6995f5PiW5npLX3Ls/zOPbbJ8b45ERi75g+V63+3LUTDwCAaVRUwNLnatCsQZ+rdBPawa/6PwexanIijjv9wyLWWo7e9wmz/podN9kmjrrrAa2+b5/7yRlxyZ9/ntA7ps9VZTFWn6vC50XdPwYBAFI15AKWPleDXrA+V80ZwtS7rtbtwit+HN+8/CJRaw377HD3eMAd7zqrrzm25buvlqy4Nd50zicTesf0uark5utzVeiPG3hetHLnOQDA7AyxgKVwNegFK1ylmdAWc9X93YvXnvmxWDE+JnKt4egH9r8La4eNt46j7nZgq+/XG876eFy/7OYEXnPHBSu76GT7XEXYiQcAwFSGUMByXHDQC9bnqhnDGKRw9U9/v/naeP/FXxC51nDILveLu2+9S1//3Rfu/ehW7776wV9/GZ/7yRkVhzzHBSu7aMcFC3se9dyJBwBQbyUWsBwXHPSC9blKN6Ed/KrnPogPfvdL8aclV4lea3jpvo+b8b+z6aLF8cR7Pri192iiNxnHfOsDked5he9YSwtXQy9eJfqZYSdeS9dAAADFKKGApXA16AXrc9WcIcy2z1U/xiZWxbHf/pDotYZH3PmBseMm20z733n2/Y6IhaPzW3uPTvreV+LX1/yponfM7ppKok1KhSuN+wuZmwAAbVZwAUvhatALVrhKM6Et5qqLuxfn/fFHcebvfiCCrTbS6cSz7nv4lP/5wtH58cxp/vOmu/Lm6+KdF3ymgnfM7prKLlqfq0LnhF1XAADVK6iApc/VoBesz1UzhlF24WpNrznjozE2sUoUW+0p935obLhgvXX+Z0+854Njs/UWt/bevPr0D8eyVSuGOOntrqnsovW5Kux5KFwBAKRlwAKW44KDXrA+V+kmtINfdbmD+NOSq+JD3/2yKLba+vMXrbPH1UinEy/Y61GtvS/n/uGH8a3LLx7iO2Z3TSUxVp+rwudF3T6DAACabo4FLIWrIi7YccFmDKGMPlf9et9F/xN/vekakWy15z3gqBjp3D6sHbb7vjP2x2qqleNj8cpvnTikd8zumkqijT5Xhf44fa4AANI1hwKWwtWgq1THBdNMaIu56uHei5UTY/G6sz4mkq12x422jEN2ud/t/u3Fez+mtffjPd/5XPx5ydUlv2N211R20fpcFfbjHBcEAEjfLApY+lwNukp1XDDdhHbwq67uIX7r8ovj3D/8UDRb7al7Hvav/33v7e8We267eyvvwx9v+Ht8+LtfKvEds7umsovW56qwH6dwBQBQH30UsBwXHPSCm1u4clywgox2nV51+kdibHJcRIuIQ3a5f2y30ZYREfHifR7b2vtwzDc/EGMT4yW9Y3bXVHLR+lwV+uMUrgAA6qUzp6xB4apW6/zksoYaDiGF44LTueLGK+PjP/g/ES0iOlkWT7zng2OXzbaLQ3a5fyvvwRd/dk58508/KeEds7umsovW56qwH6fPFQBATXO9WS+g9bkaPP+r7X3Q5yrlF+E9F342rr71elEtIp73gEfG557wpuhkWeuu/eaVSwfri2Z3TUWveV2PC9Yn/jsuCABQb52+V2b6XA2+ztfnqlZJQ16zh7h01Yo4/uxPimoRsXjB+rHTptu28trffM7Jcd3SJQW+Y3bXVBJj9bkqfF7U7TMIAIDb68y4MnNcsFbr/OSyhhoOIdU+V/348i/Oi0v+/DORraV+ctXv4pTLvl3P4NXaPld5mp8ZDSpc1a9xPwAA69JRuBr8ghWumrGOr9Nxwekce9qHYrw3Ibq1TC/P45XfOjEme70BX3O7ayq76GT7XEW0tnCleAUAkIyONdTcL1ifq2YMoymFq3/6zbV/iU9d+k3RrWU+eenX48dX/maAkGd3TWUX7bhgYc+jUY37AQC4nU6711COC1aUxSWzhm9S4WrNob/9/FPimltvFOFa4tqlN8bbz/vvAYNXfd7zxuyucVyw8HlRvzmhcAUA0K9OO9dQCldJDV6fq8Iv5tax5fGW8z4twrXE/zvjo3HzyqXpBy+7a9L6zFjnOOzEq+yi1bMAAKbVUbgaYG2rcFV5QlvMVdd819UU/ucnZ8X3/vJLUa7hLrzix/HVX5yfdvCyu6aymDe7e2EnXiVBW+EKAKAvnfZcqj5XSa2U9bkq/f7lkcf/O+Mj/Tf1pnZWTU7Esd/+4CzmiN01lV20PleFPY9G9blSuAIA6FsLCliOCya1Uk6iz1WNs4ZZ3r+fX/2HOPXHp4l0DXXCRZ+P31//t1kEr/q853bXDCMQ2olX2UXbdQUAMGsNLmA5LpjU4JPqc5W36hG+9dxPxw3LbxbtGuaKG6+M91/0hT7miN01lbyg+lwV+uPsxAMAoKEFLMcFk1opK1xVev+WrLg13n7eKaJdw7z6tI/E2MSqaeaI3TWVXbQ+V4X9ODvxAAD4p4YVsBwXTCqDSuK4YLP7XPXrlMu+HT++8jciXkP83y8vjLN//wO7ayoLefpclT0v9LkCAGBtDSlgKVwlNfikjgt6hBF59PJevPLbH4xeLpOqu6Vjy+M1Z3zU7prK4o0+V2U/D32uAABYl5oXsPS5Smrw+lxVXhCY7hv+9KrfxRd+epaoV3NvO++/4+pbrq92zttdU+I7W+S9sBOvkqCtcAUAUIoaF7D0uUpqpaxwldhjXPc3fOM5n4ybVy4V+Wrq19f8KT75g69XN+ftrkkr3Gjcn9a8ULgCAChVDQtYjgsWljUkktAOftUKV/1+w+uX3RTvOP9Uka+GenkeL/vGCTHRmxz++293TXrhxnHBip6HPlcAAFWpUQFL4Sqpwetzldj96/8bnvzDr8cv/3GF6Fczp/7o2/HDv/067K6p6AVNqXClcX8F4V+fKwCAqtWggKXPVXKDd1wwsfs3u2842evFcad9MHIN3WvjxuW3xFvP/VTYXVPRRetzVeic0LgfAIC5SLyApc9VUivlJH7J77hgEd/w+3/9ZXzll+eLgDXx2jM+Gjcsv7k289TummE8DzvxKrn5ClcAAJVJtIDluGBFWVwiSYPC1TC+4evO/FjcOrZcFEzc9/7yi/jfn51di3lqd80wwr8+V5VdtMIVAEClEitgKVwlNXh9rhK7f8V+w2uX3hjv/c7nRMGETfQm49hvnVj+cU+7a9L6zNDnqqLwr88VAEDKEilgFdznauiL3sSyhgQS2mKuWp+rsh/ISd//avzuur+KhIn60CVfjF9dc8WwX7xZfgu7a8p/HvpcVRK0Fa4AAJKSQAGrhD5XtVxw6nPViKwh8V1XaxufnIjjTv+QSJigv998bbznws8mO0/trhnG89DnqtJ5AQBAUiosYDkumNRKOYk+VzXOGmpWuFrTd674SXzz1xeJhok57tsfjOWrViYXbuyuGcbz0Oeqsou26woAIFkVFLAKPi6oz1XthuC44NC/4Yxec+ZHyymWMCen/eaSOP03303qXbe7ZhhD0+eq0jmR7E48AAAihl7AKuG4YC3pc9WIFXuNd12t7cqbr4v3X/wFETEBK8bH4jWnfySpaWV3zTBe8yS2wM5qTtiJV9/PYwCAOhpSActxwaRWqUkcF1S4Su1efPCS/40/3vB3UbFi7zz/lPjLkn8kMa3srhnGa+64YKXzooWfxwAAdVVyAUvhKqnBJ3Vc0CNMbUKvmpyIV53+YVGxQr+59s/x0e99pZipNdCX211T9tBaeVzQTrw+FzoAAKxLSQUsfa6SGrw+V5UXBOqSpJz3hx/Fmb/7vshYxRTL8zju2x+M8cmJSt91u2uGEXv1uaokaNuJBwBQayUUsPS5SmoxqnCV2GNM/178v9M/EmMTq0THIfufn54VF/3pp5VNK7trhvGaV7Drqso5kcq8sBMPAKARCixgOS5YWNZQ3eMo+KoVrup4L/605Oo48ZIvio5DtGTFrfHGsz5eybSyu2YY4V+fq8ou2k48AIDGKKCApXCV1OD1uUrs/tVnQq850hMu/kL89aZrRMgheeNZn4jrlt00+wc20PO2u6b82NHCPlcRduI1e6EDAFCZAQpY+lwlN3jHBRO7f3ltL33l+Fi87syTRMgh+MmVv43P/vi0oYYbu2uGEf5bWrjSuL+pCx0AgMrNsYClz1VSi9EkfsnvuGAd78V0I/3m5RfHOb+/VJQs0WSvFy/7xvuil+dDmVZ21wzj5dHnqpKbbyceAEDjzbKA5bhgRVlcIkmDwlVyD6Tkkb76jI/E2MS4SFmSj3//q/Hzq/9Q+rSyu2YY4V+fq8ou2k48AIBW6LOA5bhgUoPX5yrB+5c38tL/eMOV8bEffFWkLMGqyYl41wWfKXVa2V0zjBdIn6vKLtpOPACAVumUtVJ2XLDEYVR+1fpc1fFezHWUH/7eV/o74saszBvpxuPveWhp08rummG85vpcVRK57MSD20xMugcAtEq36HQ3H1rhIPW0v97DyJv1EDVoH8DR+zwuOlkmWpbgNQ96Rnzj19+Jq2+5vrBplRfzTaqfoXnKL09eq5e4fnOijvOimIFlecTojauGdilZdyTmz18xvHvX6URnvmPpRVl160SsWLLEjQCgLbqddS/C9LlKZqWcRJ+rCMcF6zehixjpvbfZPZ57/0cKlSVZf/6ieNtDX1jIK2Z3zTACoT5XlV108scFoQI9cw+AVpnsFLE61OeqGUNwXHDo3zDpqdPNRuKEw4+OkU4nKM8Re+wfD971AQM879xxwdKHps9VpXNCnysAAOJfPbD0uUpqMapwldhjbH6fq3Vd7sv3e0LcbaudRMkheNfD/ysWzVswh0dld035r3n9jgvaiVf281C4AgCoQsdxwYqSlETun8JVYg+kypGu8U123my7eNkDnyBCDsl2G20ZL9/vSbN4VHXbXTPFD7S7ptAfZyfesOYFAABVmNXZoOYWrhwXrPXCXOGq0G/SybI48YiXx/zuPBFyiF6872Njty22n+FRNeS4oN01hf64geeFnXhNX+gAADRC3wUshathJlDDvmp9rip7IFWPdB3f5Dn3PzIecMe7io5DNm+kG+87/GWRTfEXH+2uGUb41+eqksiloAkAQB9mLGDpc9WMYehzVZN5MayRTvFNtl28RbzmoKeLjBXZa/u7xRPv9eC1HpXdNeW/PBUE5IG+3E688udF/XbiAQA0XSf1dX5SWUNNF6kKV83IGsosXP3zP3zXYS+O9ecvEhkr9MYHPy82W28ju2uGEv71uarsou3Ea8CaCgBguDqzWs/ZdVWrIehz1YysobCR5tP/hMfd45B4yG57iYoV22TRhvG6Q55Vs+ltd03Zz6N+BU078dJ6HgAA9deZcS2lcFW7Rao+V83JGvJSX4N//webLlocb37w80XERDz53g+NB+54zxqEPLtryn4e9T0umOhHUEN24gEAtFEnlXV+I1eH+lwldv8cF5zq5X7XYS+JzdZbLCImIsuyeNfD/ytGR7oDJuZDnqF21xT2PPS5Gsa8ULgCAKiTjj5XzVikKlw1I2sYTuHq9v/hIbvcPx551wNEw8TsvsUO8aJ9HpPg9La7puznoc/VMJ6HwhUAQN10mrPI0ucqrawhlfunz9V0P2GD+YvifY84WiRM1HEHPDV22HjrROKN3TVlv8T6XA3jeehzBQBQV536L7L0uUovm0zh/tVr11W5lzv1Tzj+kOfEHRZvLhImasHo/HjPI15a8dS2u6bsl1ifq2E8D8cFAQDqruO4YP0WqY4LNiNrqOK44Jr23v7u8fT7PFwUTNyDdrlfHL7HfhWEPLtryn6JG9PnKpGPY32uAACarVPPYTsumFbWkML9U7iazU+Y3x2N9z3i6MiyTBSsgXcd9pLYcP56Q56lib5i+lxV9DzqWtCsem7Obk7kql8AAFOqWQFL4Sq9bHL4i/zKk5SqR5oPPjmPO+BpsevmdxQBa2LLDTaNVx309OoCnOOChYXd+vW5irATbzjzAgCA6dWkgKXPVXL3IonHaNfVXCbnXbfaKV6096NFv5p57gMeGffYZpfhzlBFisLif2OOC9qJV+iPs+sKAKB/NShg6XOVVtaQwv1TuJrrT+h2RuLEI46J0ZGu6FczI51OnHDEy2Ok0ylhlib4itldU+HzsBNvGHNC4QoAYHYSLmA5LphW1pDC/VO4GvQnvGjvx8Q9t9lV5Kupe91ht3jGfQ8vb5baXVPojxu4SKHPVR9jaOFOPACAlkqwgOW4YHrZZAr3T5+rQefETpveIY474CmiXs29/tBnx1YbbFp8jLW7prCwq8/VMIKqPlcAAG2TUAErocJV5WtixwXreC9S6nO1tizL4j0PPzoWjM4X9Wpug/mL4q0PfUFxk8vumiJesdVfrs9V+fNCnysAgLZKpIClz1VaWUMK90/hqsif8LQ9D4v973QvEa8hjrr7QXHIrvcfLMbaXVPoj9PnahjPQ+EKAKDNKi5g6XOVVtaQwv1rWeFq2kdfzE/YcoNN4g2HPFu0a5h3HPbimN+dN/tZandNoT+ufscF7cQr+3koXAEAlKOiApY+V+llkyncvxb2uRpCsvaeh780Fi9YX7RrmDtteoc4Zv8nzW5y2V1T2CtW3+OCiX4E2YlXt49BAIChG3IBS5+r9LKGFO6f44JlZS+PvOsBcdju+4h0DfXS/Z4Qu26+/cyTy+6awl4xfa6GMS/sxAMA4D8NsYClz1VaWUMK90/hqsx7sfHCDeIdD32RKNdg80a6ccIRL4ssy8LumvJfYn2uhvE88gTm5uzmRP3mBQBAPQ2hgKXPVVpZQyr3T5+rsifnWx/ywth8/Y1FuYbbe4e7x2PvcXCaCbHdNRWFPDvxyp4XClcAAMNXYgFLn6tGrFLzhs6LYV36EI8Lrmm/He8Vj1u7qEFjve1hL4pNFy2uJObNbt7bXVPJRduJV+iPU7gCAKhGSQUsxwVrv0p1XLDEb1LuvVg4Oj/ef8TLVx8row02WbRhvPaQZ9tdU+CPc1yw7KHZiQcAwOwUXMByXLD2q1SFqxK/yXDuxesOflbssPHWolvLPPU+D4v7b3/Xal+gqt//FIoUKRWuki5oVj03hzgn6vVRCACQrIIKWApXjViltrTPVWEjzaufnHtue+d4zv2OFNnaGMyzTpxwxMtjdKSbSOy1u6aSyKXPVeHzou7LIwCAxuQ8jViZKVwl9hjtuqpics4b6cYHjzgmRjqdoJ3uvOWO8YK9H13xy1NBkWKgL8+bcVxQn6tCf5zjggAA6Rkg09XnKq2sIYX7p3BV5b142X5PjN232KG1weyLPzsnTvreV1sf1I876Gmx3UZbVvDy2F1T2UVr3F/onLDrCgAgTXMoYDkumFbWkML9U7iq+l7sstl2cfS+T2h1MHvvhZ+Lt5376Vi2akWr78OieQvifUe8rLwXqOo538rdNXXtc2UnHgAAxZlFActxwUasUvW5KumbVDcnOlkWHzzyFTG/O9raQPb9v/wyfn/dX2Pp2PL4v19e0PrAfvCu94/D7rJv2YEw7K6pKHI5Llj4vKjXnAAAaKc+ClgJFa4qXxM7LljHe9GkPlfr8rwHHBX3226PVgeyz//kjH/97//9o2+L7BHxzoe/JNabt7CkeW93TSWRK6XCVZ7kh3Q18wIAgKHoJL8y0+cqsfuncJXSvbjjRlvFaw56RquD2C0rl8X//fLCfyWjP/rbr+NnV/2+9cH9Dou3iFcf/IzB5n7Vc16fq6Q+ju3Ea8ayAACgrjrJrsz0uUrs/rWscDXto0/nXrzvEUfHonkLWh3ETr3s23Hr2LLb/duHv/sl0T0inrfXUXH3bXYp4AWyu6ayi9bnqrDnoXAFAFBvnSRXZvpcJXb/WtjnKoVkbQZPvNeD46Cd79PqADbZ68Unf/D1//j3//vlBfH3m69tfYDvdkbihCNeHp0sG3DeVxqMZ/kt9LkqP6jaiQcAwPB1klqZ6XOV2P1zXLCSJL4Pmy5aHG889LmtD2Df+PV34i9Lrv6Pfx+fnIiPf/+rInxE3Hvb3eNp9334HOa93TWVRS59rgr7cfXciQcAwLp09LlqwMJR4arEb5LmvXj3Yf8Vmy5a3Orgled5fOCi/5nyPz/lR9+Om1bcKspHxOsPfU5ssf7GfYY8u2squ+jkjwtW/iE9qznRiJ14AAD8S6fSn55Un6saLhxLGbY+V6nPiQfv+oA48q77tz54fevyi6dt1n7LymXxke9+WZSPiI0WbhBvfugLZpjedtdUdtH6XBX24xq1Ew8AgNuproClcJXY/avXrqtyLzfd+7DB/EXx3ke8tPWBq5fn8a7zT53xv/eR7345rl92k0gfEY+95yFxwE572l1TWcjT56rs56FwBQDQbMMvYCVxXFCfqzrei7YeF1zTmw59Xmyz4eatD1xf+8X58ct//HHG/96ysRXx0e9+RaRf7d2HHx3zu6PVzXlFiuk+mBIKqnbiVbEyUc8CAJje8ApYSR0XrCGFqxK/ST3uxb473COeuufDWh+0Vo6PxRvP/kTfz/tj3/tqXHPrDaJ9ROy82bZx9P5PjFYeF9Tnqo8xaNxfyc1XuAIA6Ev5BSx9ripf5A/hG6Z96TUvXEVEzO+OxnsfcXRkWdb6oPX+i74Qf7vpmr4f6bJVK+Kt53xatF/tZfs/KXbZ/I5VBuNZfgu7a8p/HnbiVXbRClcAAH0rt4ClcJXYAtuuq7pmDf/voGfELptt1/qAdeXN18aJF39h1hPmcz8+fdqG720yvzsaJxx5TPnFULtr0gq7DSpcadwPANBO5RSw9LlK7P4pXNV5Xtxj613iBXs9SrSKiNee8dFYMT4262S0l+fxhjM/5gauts+O94hH3f1Byb7EdtcM43m0tHClcT8AQG0VW8DS5yqx+6dwVfesodsZifcf8fLodkZaH6x+9PfL4+u/+s6cH+mFf/xxnPv7H4r6q731sBfFRgs3SOoltrtmGEFVn6tKbr7CFQDAwIorYDkumNj90+eqCVnDS/Z5bNxj611Eqoh43RknRZ7nAz3SN5z5sejlssiIiC3W3zhed+izywrGs/wWdteUH1T1uarsooUcAIBCDF7ASmJN7LhgHe+FPlfT22nTbeOV+z9ZlIqIb/364vj+X34x8CP91T+uiK/94nw3dLWn3+8Rcd877jHY+zfQ62t3TflBVZ+ryi7arisAgELNvYClz1ViSZfCVZOyhk6WxYlHHBMLRue3PkhN9nrxlnNOLuyRvvnsk2PV5IToHxGdrBPvP/KYGB3pDv0ltrtmGEFVn6sqViYKVwAAJeUv6S8O9blK7oFUPdIGF67+eRlPv8/DY6/t7yZCRcQpP/pW/PbavxT2/f6y5Or4zI++7caudpet7hTP3euoob3EdtcMI6jqc1XpvAAAoBSzK2Dpc5VY0tXCPlcNPS645mVstcGm8bqDnyU6RcSyVSvineedWvj3fed5p8TSseVu8GqvOeSZcceNtyq1OGB3zTCCqj5XlV20XVcAAKXrr4Clz1ViC2zHBRuXNaxxGe95xEtj8YL1RaeIOPGi/41rl95Y+Pe9btlNcdL3vuoGr7ZwdEG89WEvmnpuDjS17a4pf2j6XFU6JxSuAACGopNW0jDVj1O4qttKWeFqbtf4qLsdFA/bfW+RKW4rMn3ku18u7ft/4KL/ieuW3eRGr/bwPR4YD73zPoW+YnbXDCOoJvEhPas5YSceAABz0UmlNuC44NC/4XBzrMIut5mFq4iITRZtGG972AtFpdXeds6nSjrmd9vNXzq2PD7wnc+70Wt41yP+K9YbXWh3TUrhJqU+Vwqadfo4BgBonE7VCzPHBZNbsVebb7akz9W6/vFtD31hbL7eRqJSRPz++r/FZy87vfSX85M/+Hr8/aZr3fDVtt1oy3jlg546wB22u2YYsaJ1xwXtxAMAINYsYCVxXFDhqo73wnHBQa7xtn88eJf7xWPvcbCItNrrzzgpJnqT5VYC8oix8VXxjvP+2w1fw4v2fWzcdeud5nCH7a4pP6jqc1XFykThCgAgDZ20jgvWkMJVid+kyYWrf8/5RfMWxLsf/lLRaLXv/vnnccZvvlfezV/rn77wkzPjN9f+2Y1frdsZiRMe+YroZP3+jQ+7a4YTK4ZcvBroyxvSuF/hCgAgKZ1h/jB9rob+DdO+9FYXrv79H7zhkOfE9htvJRpFRJ7ncfxZHy/v5q/jnyZ7vXjzWZ9089dwn+3uHE++z0NnuMN21ww7VlQ3jtl8CzvxAAAox1AKWPpcJbdir3akLe5ztfZ/sOe2d45n3vdwkWi1r/3ygvjhX39dTjI6zdQ67fJL4tK//soDWMPxD3lebL7+xuu4lXbXVBErUg/sGvcDAFC20gtYCldJZXHVjtRxwduZ3x2NDx75ihjpdIKI8cmJeOs5nyo2+53FtDr+zI97CGvYeNGG8caHPm+t22l3TRWxIuXArnF/+UMDAOA2pWXO+lwltVqvfqSOC/6HY/Z/cuy+xQ6i0GonX/r1uOKGK4u5+XOYVt/788/j7N/+wINYw+Pv9eDYb6d7211TcawobRwDfbmdeGmvMwAAmqfwApY+V0llcdWPNJVkbeg3avrru8uWO8Z/7ft4EWi1pWPL430XfK6YyTXAtDr+zI9HL+95IKtlWRbvPfJlMb87WqPEvG67a/S5quyiFa4AAGqlsAKWPlfNWaXqczXINc589zpZFicc/vKYN9IVgVZ774Wfi+uW3TR4Mjrg1Pr1NVfEV35+ngeyhp032y7+a78n1CDk1W13jT5XlV108jvxAABYZy5d1DoszayhmkV+Xe+FPlfDSTxesPej477b3UX0We3qW66Pj33vq3PPfgueVm85++QYmxj3YNbwigOfGjtvtl2iIU+fq7Kfhz5X5Q/NViwAgJkNVMDS52pOq9TmXro+VzO640ZbxasOfJrIs4a3nPOpWDE+NvubX9K0+uuSf8QpP/ymB7OG+d3ReNfhL00s5OlzVfbzaEyfq1Q+jlPYiQcAUGNzKmDpc5Xcir3aS2/LccEBn3OWZfH+I14e681bKPKs9utrroj//elZySWj7z7/M7F0bLkHtIaDdrlvHHX3gxIJeXbXlP0R1KjCleOCAACNMOsCluOCSa3Yqx1pa48Lzu3annivh8QBO+0p6qzh9Wd8LCZ7veSS0euX3RQfueTLHtBa3v7wl8TiBetX+JrbXVN2YNfnahjPw64rAIC56LuA5bjgUL9h2peuz9WsbbH+JvHmBz9PxFnDRVf8NM79/Q/7u8cVTKsTL/pCXLt0iQe1hi032CRec+iz7K4pMVYMNI6Bvlyfq/Kfh8IVAMAgZixgOS449G843ByrsMvV52o67374S2KjhRuIOKv18jxef8ZJ/d3jiqbVslUr4v0Xft7DWsuzH3Bk3PeOdxnyS5lguEmpz5Xjgul8HDsuCABQms7s1mCOC9bxXuhzNciNGvw5P2S3veIRd9lPtFnDl352Tvz0qt/NnIxWPLVO/v7/xZ9vvNoDW/NDI+vE+x/5iuh2RoYftO2uKfTHDbzryk68PsZg1xUAQGG5SH9rc4WrOt4LxwWLSDwGs+GC9eK9jzhapFnDyolV8dZzPjX1PU4oGV01ORHvPPe/PbS17LH1TvHsvY4c7gtpd01h70f9+lylHysa+/kIAJCQzszLLYWrui1GFa7SSTze8pAXxNYbbibSrOHj3/ta/O2mf0Rddtd88adnxy+v/qMHt5bXHvrsgue23TWznZuz//K8GccF7cQDAGilztTLLX2uSvyGaV+6wlUh9t3xHvGkez1ElFnDTStujfd/53NpvmJTPP5e3ou3nn2yh7eW9ecvirc/4iXlRS5FikJ/nD5Xw/oMAQCgLB3HBZNasVc7Un2uCrNwdH68/4hjIssyUWYN77ngM7Fkxa1pvWJ9FDTP+M134+IrfuoBruXIux0QD7nz3sXe/JQKV3nFnwmtPC5oJx4AAOvWacQCTOGqxG+iz9Vc/L+DnhF32uQOIswa/rrkH/HJH/xfWtNqFsnoG8/8WOS5JHVt7z786Fg0b0ExL6TdNYW9H/U9LpjoR5DCFQBA5TrpZA0pLK5bVria9tE7LjhXd9tq53jeXkeJLmt58zmfjLHx8drurvnR3y6PM3/7PQ9yLdttvGUcc+BTBnsh7a7pIyb3++X6XFUdKwAAKEdHn6vSvmHal96GoxAVXF+3MxIffOQro9sZEV3W8Iur/xBf/dl5iSaj/b9VbzrzEzHZ63mga3np/k+IPbbeafYvpN01hf44fa7SiRUAABSvU7sR23VV4jdpUOGqot+YH/3AJ8Tdt95ZZFnL607/aPSqPH5XUMH28mv+FF/62dke6Fq6nZF47xEvm6Lnm901ZQd2fa7SixUAABSvPgUshasSv4k+V0XYebPt4pj9nySqrOWs334/Lvzjj6udFwXO+bed/akYmxj3YNfygB3uFk/c8yEz32O7awoLu/pcpR0rihsDAAARdShglbJ21OcqrayhzGR0ONfXybI48YhXxPzuPFFlDZO9Xhx/5scTmheDz4m/3XRNfPrSr3u46/Dmh70wNltvcdhdU+5HUGP6XKXycdyQnXgAAE2XdgGrlMJVfYpX5V6uPldFjuFZ9z0iHrD9XUWUtXz+x2fE5df8KYFktNg5/57zPxO3ji3zgNeyyaIN4/iHPi/NsKvPVUXPo67HBeu81gEAaKY0C1iOC5b4TZq866qaZHTbxVvE6w55lmiylpXjY/HO805JJBktdl7csOzm+NBFX/SQ1+FJez4sHrjTvdJJzPW5uv04hn7zE/wISmknnuIVAEDf0ipgKVyV+E30uSorL3vnw18S689fJJqs5cOXfCmuvPnayvLksuf8hy/+Yly7dIkHvZYsy+Ldhx8d8zqjYkUBP64xxwXtxGvcxzEAwLClU8BqaZ+rwkaqz1Ul43jMPR4UD919b5FkLdcvuyk+8J3/qXhelGvZqhXx3vM/42Gvw+5b7hgv3u9xYoXjgul8HDekcT8AQJtVX8Cy66rEb6LPVZkPa5NFG8ZbHvpCUWQd3nXeqXHr2PKKktHhzYtP/+Ab8acbrvLA1+HYBz0tdthkG7FiTt9iwF1X+lwlFysUrgAABlddAUvhqsRv4rjgMB7WOw57cWy+3kaiyFr+fOPVccoPv9n8ZDSPGJ+ciHec+2kPfR0WjM6P9xz5MrFiVt9Cn6uyh+a4IABAfQ2/gKVwVeI3cVyw/OTnNgfvcr949N0fJIKsw/FnfixWTU60Jhn98k/PjZ9f9XsPfl3vyW73jyPudkCrY0V/X67PVfnzQuEKAKDuhlvA0ueqpG+icDXMxGP9+YvihCNeLnqsw4/+dnl841ffGeK8qH5O9PJevOWskz38KbzziJfGhgvWG1JQ1eeqsovW56pRH8cAACkaTgHLrqsSv4k+V8N+WG849Nlxh8Wbix7r8LrTPxp5npf8PNLbXXP2b78fF13xExNgHbbaYNN49SHPLPk9bWGfq6GHf32uyn4ehcwJAIAGK7eApXBV4jfR56qKh3Xf7e4Sz7jv4SLHOnzr1xfF9//yixITwbSLFG884+PFFe8a5rl7PyrucYddWxUrpv4WdT0umOhHkJ14AACtUU4BS+GqpEV5ve7F3JPRNH9jPr87Gice+YroZJnIsZbJXi/ecvbJJc2LeiSjl/3t8jj98u+aDOsw0unE+496RYx0Oq2IFev+cn2uyn9PW7oTDwCgJYovYOlzVdKCuEGNNWr6G/NXHvDU2G2L7UWNdTjlh9+M3177l5LmfX2S0TeccVJM9CZNiHW417a7xzPvf0QrYsV/fgt9rsp/HvnwxzHgnFC4AgCYneIKWHZdlfhNGlS4qulvzPfY6k7xkn0fK2Ksw7JVK+Kd559aQjJav901v7/ur/G/PznLpJjC6x/y3Ni6n/5xdtdUFP71uSp7XihcAQDM3eAFLIWrEr+JPleFj2MORjqdOPHIV8ToSFfEWIcTL/pCXHvrjQU9j/rvrnnLWZ+MleNjJsY6bLBgvXjLYS9sbKxYc07oc1X289DnCgCgbQYrYLX0uKA+V4PeqHolHi/c+9FxrzvsJlqsw3XLboqPXPLlAp5Hc3bXXH3L9XHyD75uckzhUfd4UBy6+wMaGSsa0+cqlY9jjfsBAFjD3ApYLd91Ve7l6nOV0rS648ZbxXEHPk2kmMLbzj45lo4tr08yWsCP6ycZffd5p8ZNK241QabwjsNfGgtG5zcqVjSqcOW44NBiBQAA/ZtdActxwRK/SZN3XdU0Gc0i3n/Ey2PRvAUixTr8/vq/xWcvO71eyeiQihQ3rbg1PnzxF02SKdxp0zvEyw94sj5Xa45j6IE6wY+gFsYKAAD6118BS+GqxG+iz1XZedlck9Gn7vmwOGCnPUWJKfT1F/calIzONiH98MVfjGvm0husJY4+8Ilr/VVPfa4qeRn0uao8VlT5kQkAUCczF7Ba2ueqsJHqc1WLxGPtpGPLDTaN4w99rggxhe/++edx+uXfneO8aEcyunzVynj3eaeYLFOYNzIaJxz1isiyes6LqsdQyA/U5yqJWFHD5REAQCU6w1tg23XVuFVqg496vOfhL42NFm4gQqzrfuV5HH/mx+eQjLasd00eccql34orbrjSpJnC3ne6Rzzu3g+uVayoV5FCn6u6xArFKwCAmXXKX0gpXDVuldrw35gfscf+8fC77Cs6TOFrv7wgfvjXX/X5+NvdjHt8ciLedtbJJs003vaIF8em6y2uZaxI+6Mw0cKVWNG4JQEAwLB0yltIKVw1bpXagt+Yb7hgvXj7w14kMkxhfHIi3nr2yX08fs24/+krPz8vfnbl70yeKWyyaHG8/iHPq12sSPejMPE+V2JFIXMTAKCNOuUspPS5SitrKOsam/cb87c/7EWx9YabiQxTOPkHX//3kTi9a/oaR57n8aYzP2HyTOOp93t4PGCHu9UqVgxjDIX8QH2uahMrAACYXqfYb2fXVVpZQ1k3qpm/MX/gjveMJ9zzwaLCFJaOLY/3XfBZvWvmcMnn/u7S+M4ff2wSTSHLsjjhqFfE6Ei3FrGi7LlZyEXrc1XLWAEAwNQKKmApXDVuldqy35gvHJ0fHzjyFZHd9ifRWIf3Xvi5uG7pTWkkozXcXXP86R+LPJfBTuXOW90pXrDvY5KPFWl9FOpz1cRYAQDAug1YwGpZ4SpCn6tKk5/yktHXHvys2HGTbUSEKVx9y/XxsUu+0ohktKrdNT/++2/iW7+6yGSaxqsPfWZsv8nWSceKNMK/PldNjhUAAKzbAAWsFva5asNxwaozswp+Y77ntrvH8x5wlGgwjbecdXKsGB+rZs43aHfNG8/4eEz0Jk2oKSwcXRDvOfLlycaKqsOjPlflf+A7LggAkK45FLAcF2zcKrXFvzHvdkbihMNfHiOdjmgwhV//44r435+eVd28aFAy+ofr/xb/c9kZJtU0Dtn9AXHYHg9MLlYUPTcLmYT6XBX24xSuAADSN4usXeGqcatUvzGPl+//pLjb1juLBNN4/eknxWRvMvSuKcZbz/5UrBhfaWJN411HHB3rzVuYVKyoLvzrc9XWWAEAwO31WcDS56pRq1S/MY+IiF022y5ett8TRYFpXHTFT+Lc319au2Q05d01/7jl+vjE975mck3jDhttEa8+9JmFz4s0PmAG/IGOC7YmVgAAcHudxFbs1a4h9bmqVeIx2MTP4sQjXxELuvNEgSn08l68/vSP1uYlrtPumvee/9lYsvwWk2waz9/3MXH3bXapfl6kVLhyXLB1sQIAgDXz+JqvzBwXHOQa2/uXoZ7zgEfGA7a/mwgwjS/99Jz46ZW/q828qFMyevOKW+ODF33BJJtGtzMS73/UK6OTdSqNFcMP1Al+BDVk124dYwUAAP/WqevKTOGqiMSj2ryskmQ0j9h2oy3itQc/09s/jZUTq+KtZ59ci2S0rrtrPnLxl+Kqm68z2aZx7+3uHE9/wOGVxYpKA7U+V2nFigiFKwCAinXquDLT52qQBb/fmL/74S+N9ecv8vZP4+Pf+2r87aZrJKMlRq6V42PxnvNONdlmcPzDnh9bbbhZJbGisgCpz1V6sULxCgCgch27rlLLGgrPk6tZgSe6u+bx9zo0HrL7Xt78ady04tZ4/wWfH+LcbHoyOvXumlMv/Vb87rq/mnTT2HDBevGmw14wnHlRdYB0XFCsUCkDAJhSpw6DdFywiMSjPg+rrGR000WL480Peb63fgbvOf8zsWTFLUnOi0Yko2v800RvMt5+1skm3Qwee+9D44Bd7lNerBj6vEj0I8iu3bRiBQAAt5N0AauwJZ3jghUmP7NLOspMPN71iP+KzdbbyFs/jb8u+Ud88vtfSy4ZbfLumv/7xQXxo7/+2uSbwXuPOuZffzVUn6thTFl9rmq0ygEAaIVkC1iFFa5SKOwM/Ub5jfnaDtn1/nHU3Q70xs/gzWd9MsYmxpuVjCa+uybP83jrWZ80+Waw02bbxtEHPkmfq6HEbn2uUowVAABtl1wBS5+rQa7Rb8zXZYP5i+KEI17mbZ/BL67+Q3z15+eVkpe1Ixmd++6a83//o7jg9z8yCWfwsoOeErtusX1lc7OQSajPlViR6k48AIDEJVPA0ueqiMSjPg9rmInHGx/yvLjD4i287TN4/ekfjV7eq3xe1D4ZnePr+MYzPh55LoudzvzuaJzwqFdGlmU1mBeJfgTZtVv7WAEA0FaVF7D0uRr0RvmN+XT23uHu8fT7PNybPoOzfvv9uOAPl1WajLb9r8j95O+/ia//4gKTcQb73ume8eh7HjzkD5gC5kWSnyF27dYxVgAAtFWlBaxy+1ylkjWUdaP8xnwm87ujccIRL5v9bo2Wmez14vgzPlbJS6x3ze295cxPxvjkhEk5g7c94iWx0cINEpsTdTwuWJ8PfLECAIBKCliOCw5yjX5j3q9XHfT02HXz7b3lM/j8j0+Py6/501DnRWN61xRcB/jD9X+Lz/3oNJNyBltssEm8/qHPLSxWlDIn9LkSKyqdmwAAzTPUApbCVRGJx5DHMdCXV5d43HWrneJF+zzGGz6DleNj8c5zTxnqS9yoZLSEcbzj7E/HivGVJucMnvGAI+J+29+14nmR6EeQXbutiBUAAG0zlAKWPleD3ii/MZ+NbmckPnjUK2N0pOsNn8GHL/5iXHnztUNLRvWumdk/br0hTrrkKybnTB9eWSfe/6hXxmina3dNX58h9fj8qGesiFC4AgAYQg5QwZKu4AWxPlepJR5Vj+HF+z427rnNrt7uGVy/7KY48aIvlP4S610ze++/4HOxZPktJukM9th6p3jevo+uNkA6LihWrP0DFa4AAEpRWgHLccEiEo+qx1BB4jGgnTbdNo478Kne7D6867xT4paVy0qfF7VPRiOGHmpuXrE03n/B503SPrz2Ic+OO26y9RDmRaIfQX750epYAQDQJoUXsBSuBr1GvzGfqyzL4r2HHx0LRud7s2fw5xuvilMu/VapyXisypAAADFVSURBVGg+2DnU1veu+dglX44rb7rWZJ3BwtEF8bbDXzK8eZFS4cof+Sjkc6zusQIAoC0KLWDpczXIgt9vzAf19Ps8PPbf6d7e6j4cf8bHYtXkuGR0qh+YQLhZObEq3jWbBvst9oi77hcP22Pf8gOkPlfpxQqN+wEAWqOQAtZwdl01QIMKV6kVKbbcYNN4w4Of443uw2V/vzy+8avvFPo89K4pZ2if/eG347fX/sWk7cO7H/myWG/+wnICpD5XYoU+VwAAlRuogOW4YBGJR9VjaEbi8d7DXxqLF6zvje7Da0/7SOR5Xui8qH0yGpHk7prJXi/eeuYnTdo+bLvRlnHswU8f8OYn+hFk165YAQDA3ApYha0hHResMPmZXdKRcuJx1N0OjMPuvK+3uQ/f+tVF8f0//0LvmtTCzTSx4hu/uCB++Ndfmbx9ePH+j4+7brPz4Ddfn6tCf5xYAQBAEWZdwCqscJVCYafs9W/V19eC35hvvHCDePthL/Ym92Gy14u3nHWy3jWphZs+YsXxp51kAveh2xmJDzz62OhknblPQn2uCv38ECsAAChK3wUsfa4GuUa/MS/L2x72othi/Y29yX045dJvxm+v/XMLk9H676655Iqfxnm/u9Qk7sN97niXeMr9Hj77SajPVWGxuzGxokFLEwCAJpixgKXPVRGJR9VjaGbisd+d7hWPu+ch3uI+LFu1It553ikDzQvJaLWx4vXf/mj08p7J3Ic3Hvb82HydhW19robxGdKYWKF4BQCQlE7pa0h9ripMfmaXdNQp8Vg4Oj8+cOQrIssyb3EfTvzOF+LaW2+sbl5IRgeOFb+8+g/xfz8/32Tuw8aLNow3P/xF/c2LJD9D7Nqt7INT4QoAIFmd0taQbTkuWPXqt6W/MX/Doc+JHTbZ2hvch+uWLomPXPylapJRvWsKjRVvPP1jsWpy3KTuwxPu85DYb+d7Rz0LmlXPzTbEirxGsQIAgIi1CliOCw5yjX5jPqyLvs+2d45n3/9Ib2+f3nb2p2Lp2PJ2JaOpJIIFx4q/3Hh1fObSb5vUfTrhUa+M+d3RtD6CUtq167hg4rECAIA1dQpbN+lzNdxxDJh01HV3zbyRbnzwqGNjpNPx9vbh99f9LT77o9Pal4w2eHfNO2ZRkGy7nTffLv7rgCfpc1Xwjxv4M0SsaNzyCABgGDr6XA2ajNYn8WjC7pqX7//k2H2LHby5fXrD6SfFRG9yOPOi6kpAS3bXXLd0SXzskq+Y3H165cFPj122uGPC86Ienx9ixXCGppoFADC1wbax6HNVq8Sj6jEM+gN32fyOcfR+T/TW9ul7f/55nH75JeUno3rXDD1WfOCCz8WNy282yfswvzsa7zryZdXNCX/kQ6zo617YigUAMJO5FbAcF6x4DBUkHhVXAjqRxYceeezt+9kw9R3M8zj+jI9POy9qn4xWMjfTiBW3rFwWJ5z/ORO9Twftdr846p4PqjqMhV9+iBV2XQEAzN3sClitL1z5jfnQb/7qf3reXo+K+91xD29sn772i/Pj0r/8srx5kUIy2vJm3J+45Cvx95uuMdn79I4jXxqLF65f0bzwRz7EigavmwAAhqT/ApbCVa0Sj6rHUFjiERHbbbRlvOaQZ3pb+zQ+ORFvPevkcpLRChr3JxluEogVK8dXxTvO+rQJ36ctN9g0XvuQ51b0GVKvzw+xolmxAgCgKWYuYOlz1b7Eo+qLXuuf33/kK2K9eQu9rX06+fv/F1fccGXNk1G9a/oZw/9cdnr85po/mfR9evY+j4z7br/HEOZERfMihc8PsSKdWAEA0DCduS1E9bkqfwxtSDxmHsMT7/2QOGiX+3hT+7R0bHm874LP/Wte1D4ZjdC7ZpoxTPZ68ZYzPmni9/uBl3XiA485NrqdkdLCmF27YoU+VwAAJa3n+1+UV7JKrWCB6TfmQ7/5U4xh00WL400Pfb63dBbee8Fn49qlN+pd06JY8a1ffid+8Odfmvx92mPrneM5+zyqhHlh165Y0eB1EwBAAjqtW4D5jXlFj3T2vzF/zxFHx6aLFntL+3T1LdfHSZd8pYbzItFwU6NYcfxpJ3kBZuG1D31ObLN48wKfR57A3Jzd54c+Vw2LFQAALdCZeZ3VoMKV35hX8Ejn9hvzB+++Vxx51wO8obPw5rM+GSvGV9YoGa3TEaC0Y8X3/vSzOPs33/cS9Gn9+YviHUe+tIDnUa/PkMbs2hUrAABaqRO9ZFapQ17w63M1nAuf/Rg2mL8o3nf4y7yds/Drf1wR//uTM+udjOZixSA/7vjTTope3vMy9OmIux8YD7nLPnN8HnbtihUJxAoAgJbppLk6LHuBqc/V0G/+LMbw5oe+YG7He1rs9ad/NCZ7vaHOzXYko/UpUvzy6j/EV356rpdhFt5z1Mtj0bwFs3gedu1W9sEpVgAAtF6n4lXq0Na+fmNe4UXPYgz77HiPeOp9DvNmzsJFV/wkzvndpYnPi0TzvYbFijed/vEYmxj3UvRpu423ilce/PQ+n4c+V5W8DGIFAACrdRq1CPMb84pyrWJ21ywYnR8feOQrIssyb2afenkvXnfaR+uTjFZQB2hTrPjrkqvjlB98w4sxC/914BNjj613bsxOvH/Oi6rH0OxYkcrgAADapdOIq/Ab84oTj2LG8OoHPT122nRbb+UsfPGn58RPr/xtfZJRvWtKjxXvPPvTsXRsuZejT93OSLz3Uceso3Dulx9iRRIBFQCA1epdwPIb8wrX1MX+xvyuW+8UL9j70d7IWVg1OR7vOOfTCSWjIRlNIFZcv+ym+MhFX/SCzMJeO949nnTfh1Xz4vgjH2nFigiFKwCARNW3gNWgZDQf7O+i1/435t3OSHzoqONidKTrjZyFky75cvz5xqvSnReS0cpixfsv+Fxct3SJl2QW3nL4i2Oz9ReHP/LR8liRwtFiAADWqX4FrBSOAPnLUIXei//a7/Fxj2128TbOwk0rbo0TLvx8msloKklYi2PFsrEVccL5n/WizMLGizaM4w97Ya3mRdVjECvSmhMAAE1XnwJWSkeAhpyMJpl4FDSGnTfbNl554FO9ibP07vNOjSXLb6kwEdS7JvVY8YlLvhp/vuEqL8ssPPl+h8UDd753BXOzgs8QsaIxsQIAoC3SL2Dpc1Xhgr/c35h3sixOfOQrY0F3njdxFv665B/xye9/reJ5kWAyGmLFmmNYNTEe7zz7016YWciyLE549LExvzua5JzQ50qsAABos7QLWPpczXAvhnzRBd/6p9/v8Nhrh7t7C2fpzWd9IsYmxvWumXEcYsUXLjszfnnVH7w0s7DLFneMF+3/hJI/xyqYE2JFo2IFAEAbpVnA0ueq4sSj/DFsteGm8fpDn+0NnKVfXP2H+MpPz9O7Rqzoaxy9vBdvPfOTXpxZOvbQZ8QOm26TxLyo3+eHWDHbj1gAAPqT1p99yxNZ8VWddFSyyB1u0tHr9eLITx0zwL2oX9JRxIivvvm66OW9ai86FyvqFCtO+9XFsd8Jz4wsy1o8L2ZvxaqxCmNF3T5DxIr0PtMBAJonnQJWY4oUDfjLgkMYx7VLl8S1S5ekn3i0Mhmd4gfmYkVdY8XPrvxdbWPFYPdCQVOsqH+sAADgNtUXsCSjFV22ZFQy2oR5IVaYE2KFWNHMWAEAwO1VV8CSeKSVePiNeaE/zk48sUKsECvECrECAIDiDL+AJRmVeEhGE5oXklGxwrwQKwb4geZEwfMiIgsAANZluAUsRQrJaEMTD8moWCFWiBVihVhR6bwAAGi44RSwLDAlHg1NRguZF4oUac0LscKcECvEijrFCgCAlii3gOU35pLRvu+FZFQyKlaIFWJFGvNCrKhFrAAAaJlyClh+Y55WMirxaHkyOsUPVKQQK8QKsUKsqOe8AABooeILWBaYktEUk9ECfpxkVKxoxrwQK8QKsaK2sQIAoMWKK2D5jbnEQ+KR9pxIZV6IFWKFWCFWiBUAAMzS4AUsvzGXjEpGE5oXklGxQqwQK8SKxsQKAAD+ZbAClsQjnWRU4tHyZHSKH6hIIVaIFWKFWFHPeQEAwO3MrYBlgVnRZUtGy34eklHJqFghVrQqViQ9LxSuAAD4t9kVsPzGPK3EQ5EirXkhGRUrxAqxQqyoX6wo4McVFivUvwAAptRfAcsCUzIqGU1oXkhGxYomzAuxwpwQK5L6TAcASNzMBSyJh2Q0xcTD7pr0kh+xQqxIMVYU8OPECrGiGbECAKDeuhaYqS0yJaOS0SbMC7HCnBArxIoE50Vrf/kBAFB/XYlH4omH35inlXhIRsUKsUKsECvEitrMCwCA5uhaYEo8JKM1mheS0bTmhViR1rwQK9KaEz5D0nseAAA11rXAlIwmm4wW8OMko5JRsUKsECvEinbNCwCAZupWvsj0G3PJaKrzQpEirXkhVpgTYoVYIVYAALRWt86Jh2R0GM9DMioZrf+8ECvEimbMC7FCrAAAaK9uaxMPRYq0Eg+7a9JLfhQpxAqxQqwQKxKeEwAA7dKN6FlgSkZrnXhIRiWjzZgXYoVYIVaIFQAATKVrgSnxaHXioaDZxxjsrhErxAqxQqxI9nkAALRE+QUsvzGXjEo8JKNihVghVogVYgUAAAMor4DlN+YSD8no1D9QkUKsECtKfSZihVjRjFgBAMA/FV/A8htzyahkVDIqVogVYkWD54VYAQDA8BVXwLK7Jr1FrsRDMtr3GOzEEyvECrEisVhRwI9TuAIAaI5iClh+Yy4ZTTEZHfplS0bFiibMC7HCnGhCrCjsmwz5olXLAACmMlgBy2/MJR6lJB4KmuU/D7trxAqxQqwQK5KOFQAA3M7cClh+Yy4ZlYzWdF7YXVPZhYsVac0LsSKteSFWAAAwg9kXsBQp0lpzKlJIRlNMRsUKsUKsECvEitnHCvUsAIAp9V/AssCUeKSYjKaUeJgT6cwLsUKsECvmcC/EilbHCgCAxM1cwLLAlIyW8OMko5JRsUKsECvEivbMC4UrAIBBdS0wa5J42F2T1pwwL8QKRQqxQqwQK+oeKwAAaqRbxuLOAlMyKhltQTIqVogVqcaKoV+2WCFW1CxWAADUUDe5xEORIq3Ew2/M00s8FCnECrFCrBArxAoAgJbptjfxkIyW/Twko5JRsUKsECvECrHCYhMAoAhdiYfEI8nEw2/M+xiD3TVihVghVogVYgUAQDt05/qFFpiS0WbMC8lo2c9DrBArxAqxolWxIqV4AQDQIHMqYPmNecMSD78xTy/pUKQQK1KMFQX8OLFCrBArAACYi1kVsPzGXDIqGZWMihViRatjRdLzQqxo9ZwAAGi4vgpYihQSj1LmhWS0jzEoUogVYoVYIVaIFQAAdFuxwEw68fAbc3NCMipWJDgvHC02J1KdF2IFAEArdS0wJR6S0ZTmhWRUrBArxAqxQqwAAGBt3fonHpJRiUcT5oWdeJVduFghVvgMESvqEisAAFqsa4E5zEW/ZFQyWv95IVaIFWKFWCFWAAAwbF29axqYePiNuTmR6rwQK8QKsWIO90KsaHWsAAAgIvr8K4QWmDVJRgv4cZJRyWgz5oVYIVaIFWJFzWMFAAC3M/cClsSjUcloIYmHgmZa88LumvSSUUUKsUKsECsAAJiT2RewLDAlo5VftmS07OchGRUrxAqxQqxIaV4AANB/ActvzNNKPPzGvCaJh901YoVYIVaIFWJFavcCAKB++itg+Y15OsloAT9OMioZbca8ECvECrFCrGhqrAAAYG1diYfEo3bJaPKJh901YoVYIVYkFisK+HFiRQNjBQBAjXQtMCWjaSYeklHJqFghVogVYkVb5oXCFQDATLoWmAknHnbXpLe2V6QQK1KMFQX8OLFCrBArWhIrAABqqlvN+skCUzLahHlhd405IVaIFWKFWFGTWAEAUHNdvzGXeEhGa5B4KFKIFWKFWCFWiBUAAC3WHd6P8hvz5JPRoV+2ZLQW80KRIq154WixOSFWiBUAAC00hAKWBWbZi37J6DCeh2RUrBArxAqxQqyoSawAAGigkgtYfmMu8ZB41G5OpDIvzAmxQqwQK+oSK6Ych8IVAEBRSipgWWBKRiWjw34mklGxohnzQqwQK8QKAAD+U8EFLImHZLRGiYfdNWnNCfNCrFCkECvECgAAplBQAcsCs+xFv2RUMtqMeSFWiBVihVghVgAAMHsFFLAkHsknHn5jnlbiYXeNWCFWiBVihVgBAMCsDFDAssCUeEhGh/08JKNihVghVogVLY0VAAAtN4cClsRDMirxqOW8sLtGrBArxAqxon6xAgCAiJhVAcsCs+xFv2RUMtqMeSFWiBVihVghVgAAUKw+C1gSj+QTD78xTyvxsLtGrBArxIohPROxooGxAgCA/9C1wKx5Mjr0y5aMSkabMC/ECnNCrBArmhkrAACaqivxkHgM9AMVNAv9cXbXiBVihVghVogVAAD8p64FpmS0eYmH3TXmhFghViQ4LxwtNidSfT8AAGqgm/wCc8px+I25ZLT+80IyKlaIFWKFWCFWAAAws67dNTVIRod+2ZLRWswLRYq05oXdNeaEWCFWJPk8AACaoWuBWd4iUzI6jOchGZWMihVihViRxrwQK9J7TwEAmqNrgZlo4qFIkda8sLvGnBArxAqxon6xYspxKFwBANRN1wJTMioZLfeZSEbFimbMC7FCrBAr0n8eAADN1ZV4hN+YSzzSnRcKmmKFWCFWiBWtjBUAANxedQUsvzGXjEpGE5oXklGxQqwQK8SKVOYFAAD/qZoClsQjnWRU4tHyZHSKH6hIIVaIFWKFWFHPeQEA0FDDLWBZYFZ02ZLRsp+HZFSsECvEilbFiqTnhcIVAEATDaeA5TfmaSUeihRpzQvJqFghVogVYkX9YkUBP07hCgCgf+UWsCwwJaOS0YTmhWRUrBArxAqxojGxAgCgZcorYEk80klGJR4tT0an+IGKFGKFWFHqMxErxIrS5gUAQAsVX8CywKzosiWjktEmzAuxorILFysKjBWFfROxIpV5oXAFAFC54gpYihSS0b7vhd01klGxQqwQK8QKsQIAgP4NXsCywJR4SEYTmheS0VrMC7EirXlhJ545kfK8AAAgIgYtYClSSEYbmnhIRofxPMQKsUKsECvECgAA+tONyFdEZBtbYEo8JKMFzQtFirTmhViR1pzwGSJWiBVT6yl8AQBMpRsRS2u1wCzgx0lGJaOS0RYko2KFWJFqrBj6ZYsVtYkVEz0rUwCAKXQjy26dcd1ld01ayajEo+XJ6BQ/UJFCrBArxAqxot6xYtLCFABgKt3IZ9iBZYFZ0WVLRst+HpJRyahYIVaIFWJFUvPCDiwAgCl1I4t178DyG3OJh8Qj7TmRyrwQK8QKsUKsECuKGcekAhYAwFS6WZ5flUeW1gKzgB8nGZWMNmNeSEbFCrFCrBArWhMrxhWwAACm0s2zzm8jzyUeqSWjEo+WJ6NT/EBFCrFCrBArxIrmxorlmmABAEylm/XiN3kKK3C/MZeMlvDjJKOSUbFCrGhVrEh6XogVM1oxYWUKADCFbm8k+202mVe3yPQb87SSDomHZHRWY1CkECvECrFCrChsDCvGI7IRq1MAgHXo3PzbTf+cR6z892qrPsWrfPX/G3gMQ99JkWhCus6hVTAnUpkXKcyJPMU5Ub95IVaIFWKFWDGbeVHJGPI8YqUeWAAAU+nEl7402YnezywwJR6VZ8qtLWgmOCdCMipWiBViRftiRT5YpXywMSybiH/1JAUA4D90IiJ6Eee3ZoE59FzLb8zLnhd21wxjaHbXVFYJECsKnxdixTDmhVgxazetsioFAJhGZ/XCq/wClt+Yp5OMhmQ0yWTU7pqWx4pcrCg5VlS6u6Y1sUIbgjm7acyqFABgGp2IiPUWLLs4IspZOdldU1kdoP+h2V0jGU0kGVXQTDxWhFgxtAsXK1oVK/KIuNkOLACA6XQiIq46/rLlEXGpBWaJyajdNYX8ODvxhvE8FDTFikTmRStjhZ14rYwVt66K6Ol/BQAwnc4a//v/WWAW/AMlo4XPi9onoxF216QYKxQ0p3n8YoVYIVaUPi+uX2lFCgAwg38VsCbGxz8bERPFJz9tSEb9xrwWiUcKyaiCpliRaqxwtFisECuqiRV5HnGdAhYAwEz+VcBa+p7vXptHnFVl4lH7ZHToyc9cEo8WJqN210zz+O2uESvECrFCrKh0Tty0KmLVpBUpAMAMOrf7P7LsM7VNPFJIRv3GvJDnYXfNMOaF3TVihVghVogVScSKa5ZbjQIA9OF2Baz1Vox9PSJuqtUC02/Mp1ls+415ZRdtd41YIVaIFWKFWDGTicmIG8YCAICZ3a6A9fcTvrciz7IPzz75aUMy6jfmtUg8UkhG7a4RK8QKsUKsECv6+YFXr/DXBwEA+tRZ+x96+cgJEbG0rMSj9sno0JOfuSQeLUxG7a6Z5vHbXSNWVBwrQqwQK8SK//iBvTziymVWogAAffqPAtatbz/3hoj4eNELTL8xH0Yy6jfmQ7/5dteEWCFWlDkvGhMrQqwQK9b6gVcvjxjvWYkCAPS3nBrtruvfRyeyd4+P5C+IiIWDLjALWfMNfXWfYNIR0YhdFIXMizyJG5/wLor6zQuxQqwQK8SKVsWKybD7ioGNLhmP0SXjbgQAbbFqZF3/uvy7f166cN8dFkfEPq1eYCadeLQwGR36ZUtGJaNihVghVjRmXqQUK65aFnH9Opq3ZxGd0ZGhjTDrdKK7wYLh3ZIsi6zbsfwGAOZi5ZSriIULlh4fEX+pZIHpCNAMY9C7ppKL1rum0B8nVogVYoVYMZR5kVqsWDUZ8Te7rwAAZmvKAtZVx1+2PM+yVww98ZCM6l2TauIRKc+LFiWjlTwPsWIY80KsECtaESuuuDViQu8rAIDZmnYf981vv+DLecRpQ1lg+o35NIttyWilyagiRSGJoMb9YkUp80KsECvqFCuWrIq4fqXVJwDAHMzciGBy5L8i4pbGFylSSEb9xryi5yEZHca8ECvECrFiuEMTKxKLFZN5xB9vSWsVmFkIAwD1MWMB6+Z3n/fHPM+fU2ji4TfmfSajfmM+9JsvGS08GXW0WKwQK4Y9L8SKJGPFH2+JWDkx7XfNsiFXlDIVLACgPvr6Uzdjl/zlV/P33X6riLhP1clPIT/Qn7ov9Mf5U/fDeB55u+aEWCFWiBViRZNixdXLI/4+c+P2LMsiG+ZfIRzpRHf9+cO7df4KIQAwdyv7XkXcvGy9oyPiJwOt9/zGfJpx+I15ZRdtd01hz8PuGrFCrBArxIq1LBuP+POt/f2IoW/AsgMLAKiP/n8N9sHTx2Ky+5iIuLZ2C8yhJz9zSTxamIxq3D/N49e7RqwQK8QKsaL2sWK8F3H5Tbf1v+rH0I8QWggDAPUxq33cN7/7vD92OvkhEXHz3BfbFSww/ca8kOdhd80w5oXdNWKFWCFWiBWNiBW9POLyJRErJ/v/kcMuKHVUsACA+ph1I4Ilb7vo51kne2REjKWVeCSYjEb4jXlKyWiE3TUpJqNihVghVqQbK0KsmNMY8vy2nVe3jM/qp2ZDLihlClgAQI3MqZPmTW+78Pw8z58eEb3kEg+/MU+zSJFCMmp3TcuTUbFCrBArhjkvGhMrZjs384j43c0RS8Zm/+OHfYSwo6E6AFAfc1653PLOi76QRfboiFjpN+b9Jh4tTEbtrpnm8dtdI1ZUHCtCrBArxIoZY8Wsi1c3RVy3ck6jsAMLAGBqA/3q7aZ3XPi1rJc9LCJuqdUCc+jJqN01lc2LSHFe2F0jVtS/SCFWiBVixVp6ecSvl8y5eBVZDHUHluIVAFA3A+8dv+ldF54fWe+gmO1fJyxiRes35oUnHo1JRpMuUlQ9N9tQpBArxAqxQqwYYqwY70X8Ysncjg2uNvzdV44PAgD1Usjq5eZ3XHxZZL29IuLHQ008UkhG/ca8gudhd03Z88LumgYWKVoZK0KsGNK8aHWsWDoe8bMbI25dNdCospHhFpSyrgIWAFAvI0V9o7GL/7pk7N53OWXhvPENI+J+MfAfg84TSX5mM4b6/ca86jEUloxGqvOiXnOisGQ0hYsWK8QKsUKsKDtWXLsi4jc33bYDa0DZvG5kQzxCODJ/NGKkE5353eE9gixTOAMA5mplKSuljY594JF5ln0qIjZuVOLRkGRU4tHAeZHCnEhlXihSiBVihVhRdqyY6EX88Za597taWxYxsmje0O5G1sliZL35ESOd6G64YHiPoTPkghkA0CRLRsr4risv+etvFj5wx//NI98pi9hNMioZlYymOy8ko2JFM+aFWCFWDClW3DgWcflNEbeMFzbKrNsZ6s6kTncksu5IRCezAwsAqIuVpe9V3/i4/R/Ri/wDEbGjxEMyWnniIRktdl4oaIoVYsUc7oVYUctYMdaL+OutEdesKHy0nfndoRZ2RhbOu+3n2YEFANRHOTuw1rTykr/8btNDNvvE+MRoFpHtGRGjktHhLfolo5LRZswLsUKsECvEiopiRS+P+Pvy23pdLR0vfshZDLWok2VZdBasXorZgQUA1MfKof7N5g2OOWCzkdHei/M8XhqRbyTxSDzxsLumjzHYXVPJhYsVYoVYIVaUHSsm89t2W/19WcSqydJGnXWHuyupM6/7759nBxYAUB9Lsip+6kZHH7BRb97kS7IsXhIRm0tG2554SEbLfh6SUbFCrBArxIo+jfcirloecfWyiInyL6azoBvZyBCPD643P7LO6uWfAhYAUB/VFLD+5TGPGVm8/dUHZp3sqXnEoyJiUWsTD78xTysZnXIcdtdUdtGKFGKFWCFWlBUr8oi4aWXENSsjblg5tGvJOll0Fo4O7Y5lI53b/7VDBSwAoD4qLmCtYcOX7bVJNtp9bEQcEREPjIj1WpGMFvDjJKOS0WbMC4UrsaIJ80KsqM2c6OURt6yKuGEs4roVQ9lttbbO/NV/DXBI/tW8/V//oIAFANRGOgWs23nunqMbb7zw/pO97KAsi4Mii3tFHhtKPEpIPCSjfYxBkaKSi1bQFCvECrGiyFgx0YtYNhFx86qIm1ZF3DoekVc4obK4/W6osn9cJ4uR9ebf/h8VsACA+ki0gLUOmx27zzYT0d0tz/Jd88h3yyLbNvJYP4/e+llk60XERrVJRgtZwhcw5p5ktFnJaPVjuN23WjG+Q0R0mjUvWhor7MRrVKyIpu7Em8hv21U1ufp/Vk1GrJiMWD4RsWIiYlUvqXezM28kstEh7r5aMPqfP08BCwCoj/oUsIB6WX+PbW7J83wDdwJgLSnsvopQwAIA6mRJxz0AABiezryR4f68+aNuOgBQ/zWUWwAAMBxZJxtq4/ZspHP7xu0AADVlRQMAMCTZkI/QdRbYfQUANIMCFgDAEGSjncg6w2s/2pnfHerPAwAodW3jFgAAlCvrZNEZ7Q7x53WiMy+xhulqaQDAABSwAADKlK0+OpgN68dl0Vno6CAA0CwKWAAAZS62RkeGe3RwQZpHB7PMFiwAYIA1jlsAAFCOrNuJbHR4f3WwMzoy1J8HADC0dY5bAABQvKyTDbUPVTbSic58RwcBgGZSwAIAKFjWyaKzYIh9rzqdGFk4L+1G6f4iIgAwyFLCLQAAKFAW0ZnfjRhSz6csy2Jk4Wjyf+VPDywAYBAKWAAARckiOgtGh7bbKMuy6CyaV4/dTXZgAQCDLCXcAgCAAqwuXmVDLl5ldSgM2X0FAAyo6xYAAAwm62S3HRscVvGq07nt2GBddjUpYAEAA1LAAgAYwL8btg+peDVSg4bt67hHAACDUMACAJijrNuJzrzh/bXBzujIbT226kYBCwAYkAIWAMBsZbcVk7LRkeH8uOy2I4rD+nlF36xsRNtVAGAwClgAALOQdbLI5neH16y9bv2u1mb3FQBQAAUsAIB+ZKuPDI4O58hgFllk80Zuaw5f59s2ooAFAAxOAQsAYAbZ/2/v3mLsus4Cjn/f2ufMjC9RoYjaghYBDwEkaJEICeEBSnlCQmqlNg9t7bYS4iIuQhGqgAeQ4AEeykVISAVEQ4gvCQShRjwBIrVEgzMulcARJTFFCsJ27VxKFDutb3MWDzNOnTR2PDNnn1nn7N9PisYznjnH8yk6Wvuvddbucv2sq1ntuhqV6JbHC7F7ydsHAYBpELAAAG4iS0aOu8hRmdHzlfWzrkYLEn1KmdndGQGAxSZgAQC8zo6Eq6VuTg9pv8XvZfcVADAlAhYAwIbsMnI0w3DVlShLC7Tj6rW/nYAFAEyNgAUADNvG4ew56mZyZ8HM9d1dZdwt9h36upzJYfcAwDAIWADA4GTJiG59h9AsdgllKRuRrAxmV1IZdf5HAwCmRsACABZbru96inI9WGWvB4tnXH+u/FqwGtpB5l1Z7N1lAMDMCVhAPxdw426Sk2oQwAxecK5/zFc/fzVYbXyc+vPlRqjKjefNXD/4vaRwE3ZfAQDTJ2AB/by4vHXP1QwBC2Bwit1XAEAPSwwjAABgaovLsd1XAEAPawwjAABgGnLU2X0FAPRCwAIAYPsy1wMWAEAPBCwAALYtx93XDtQHAJgyAQsAYIimGZu6EtlZVgIA/bHSAAAYoMyc1gNFGbuxNQDQLwELAGCIcjoPUpZG3joIAPROwAIAGKIp7MDKsbsOAgCzIWABAAzRNrtTjrrIkaUkADAbVh0AAAOUZRvLwK6s774CAJgRAQsAYIByq2/9K2X93CsAgBkSsAAAhqjbwjIwU7wCAHaEFQgAwNBkbn4H1vWdV85sBwB2gIAFADA0m41XnbcNAgA7y0oEAGBgNnP3wBx1DmwHAHacgAUAMDBldDtBKiPH3aZiFwBAXwQsAICByfGbRKnrh7UXB14BAG0QsAAABrX6KxF5izDlvCsAoMUljBEAAAzHTd8+mLl+3pW3DAIADRKwAAAGJJdeH7AyclQc1A4ANE3AAgAYiq5EduU1n5dxd+u3FAIANEDAAgAYiHJ991VX1t9K6JB2AGBOCFgAAIOQkbuWoyzbcQUAzB8BCwBgkZUSUTK6XePoViz9AID5ZBUDALBQMqLL9bsKbnyMiCi7xkYDAMwtAQsAYG5lRMb6WVaZESUj3+Bcqxx1kSN3GQQA5peABfSjpDNWAKZmI1Td+OkmXmc7u68AgDknYAG9KONuEvoVwI7LURc5tvsKAJjza0wjAABYXN3uJUMAAOaegAUAsKgLveVx5MhyDwBYgHWNEQAALJ7MjG63s68AgMUgYAEALOIib/eSm2kAAIuztjECAIAFW+CNuyjL7tUDACzQ+sYIAAAWR5aMbu+yQQAAC0XAAgBYIN3eZW8dBAAWjoAFALAgut1LkaPOIACAhSNgAQAswqJueRRlxV0HAYAFXesYAQDAnC/oxl10e5x7BQAs8HrHCAAA5leOSnR7VwwCAFhoAhYAwJzKrsTojpUIZ7YDAAtuZAQAAPMnR12M7nDHQQBgGAQsAIA5U8bd+tsGtSsAYCAELACAOVKWx9HtWTIIAGBQBCwAgDnR7V6KsjI2CABgcAQsAIDGZSnR3bEc2bn/DgAwTAIWAEDDytIouj3LzrsCAAZNwAIAaFCWEt2epchxZxgAwOAJWAAAjel2jaOsLNl1BQCwQcACAGhEWRpF2TV21hUAwOsIWAAAO0y4AgC4NQELAGAHZGbk8ijKyjiyeK8gAMCtCFgAADNUxt16uFqyDAMAuF1WTgAAPcqSkaMucqmLMu4i0m4rAIDNErAAAKYkMyO6EtltRKtRca4VAMAUCFhAL8rKeBJRDQJYPJnrm6gyN/7b2GXVFburAAB6ImABvSh7ltZcxgEAADCVa0wjAAAAAKBlAhYAAAAATROwAAAAAGiagAUAAABA0wQsAAAAAJomYAEAAADQNAELAAAAgKYJWAAAAAA0TcACAAAAoGkCFgAAAABNE7AAAAAAaJqABQAAAEDTBCwAAAAAmiZgAQAAANA0AQsAAACApglYAAAAADRNwAIAAACgaQIWAAAAAE0TsAAAAABomoAFAAAAQNMELAAAAACaJmABAAAA0DQBCwAAAICmCVgAAAAANE3AAgAAAKBpAhYAAAAATROwAAAAAGiagAUAAABA0wQsAAAAAJomYAEAAADQNAELAAAAgKYJWAAAAAA0TcACAAAAoGkCFgAAAABNE7AAAAAAaJqABQAAAEDTBCwAAAAAmiZgAQAAANA0AQsAAACApglYAAAAADRNwAIAAACgaQIWAAAAAE0TsAAAAABomoAFAAAAQNMELAAAAACaJmABAAAA0DQBCwAAAICmCVgAAAAANE3AAgAAAKBpAhYAAAAATROwAAAAAGiagAUAAABA0wQsAAAAAJomYAEAAADQNAELAAAAgKYJWAAAAAA0TcACAAAAoGkCFgAAAABNE7AAAAAAaJqABQAAAEDTBCwAAAAAmiZgAQAAANA0AQsAAACApglYAAAAADRNwAIAAACgaQIWAAAAAE0TsAAAAABomoAFAAAAQNMELAAAAACaJmABAAAA0DQBCwAAAICmCVgAAAAANE3AAgAAAKBpAhYAAAAATROwAAAAAGiagAUAAABA0wQsAAAAAJomYAEAAADQNAELAAAAgKYJWAAAAAA0TcACAAAAoGkCFgAAAABNE7AAAAAAaJqABQAAAEDTBCwAAAAAmiZgAQAAANA0AQsAAACApglYAAAAADRNwAIAAACgaQIWAAAAAE0TsAAAAABomoAFAAAAQNMELAAAAACaJmABAAAA0DQBCwAAAICmCVgAAAAANE3AAgAAAKBpAhYAAAAATROwAAAAAGiagAUAAABA0wQsAAAAAJomYAEAAADQNAELAAAAgKYJWAAAAAA0TcACAAAAoGkCFgAAAABNE7AAAAAAaJqABQAAAEDTBCwAAAAAmiZgAQAAANA0AQsAAACApglYAAAAADRNwAIAAACgaQIWAAAAAE0TsAAAAABomoAF9CIjLpsCAAAAU3BJwAJ6kREXTAEAAIApuCBgAb2oAhYAAADTkAIW0Jt60QwAAADY/uWlgAX0ptiBBQAAwBRUAQvoSU7OGQIAAADbVTPPCVhAT68wccoQAAAA2K6cxDMCFtCLWsrTpgAAAMC2ZX1awAJ60V1Ze8YUAAAA2K616J5JYwB6kvsP3PNyROw1CgAAALboyrnTu/bYgQX0pWbUk8YAAADAlmU8FceOXROwgN5MMj5jCgAAAGxZjccjIgQsoD+TKmABAACwdTU/EyFgAT3aNd7zRERcMgkAAAC24Nq15e6zEQIW0KNnHzx2KSKeNAkAAAA2q0asvvDAExciBCygZ1njMVMAAABg09eTkX93/c8CFtCrSemORsQ1kwAAAGBTl5PX1o5e/0TAAnp1/tC/PBcR/2ASAAAA3K6s8fjZRz73v9c/F7CA3tWMQ6YAAADA7V9H1tdcRwpYQO/Gl8pjNeIlkwAAAOA2XFy7vPtvb/yCgAX07vSjx79aanzSJAAAAHhz9c+ef/TYxRu/ImABM1G6+vsRcdEkAAAAuLl6eVS6P/i6a0qDAWbhzEMnXsyIT5kEAAAAN5efOv3Q8TOv/6qABcxMqfF7EfWySQAAAPAGrsYoP/GG15NmA8zKmSOrpzPyT0wCAACAr1f//NyDTz77Rn8jYAEzdbnGb0bEWZMAAADgBi92JX7jZn8pYAEz9eUjqy/XWj9uEgAAALyq1l8589CJF2/212lCwE7Yf+Cef4qI95gEAADA4H323OHVH4mIerNvsAML2BEl1n4+Ir5iEgAAAIN2KbrJz8Ut4tX6NSTADjh7+F+fiYhfNAkAAIDhyoxfPveXn/uPN/u+zqiAnXLx5Jl/2/vOd3xHRHy/aQAAAAxN/etzh0/8+u18px1YwM6+XOVXfiEivmASAAAAg/LFKzV/+na/WcACdtT5QydfiRr31YiXTAMAAGAQXp6UeP+Xj6y+fLs/IGABO+7ckdUvRI2fiIhXTAMAAGChXZlEfOC5h1ZPbuaHBCygCeePrD5ZMz8YEddMAwAAYCFNIuuB5w6v/uNmf9Ah7kAzXjl5+tQd73r7sxHxvohIEwEAAFgcNeL+84dPPLCVnxWwgKZcPHnm5N53veN/IuInwy5RAACARVCjxsfPH1n9w60+gB0OQJP2feie92aJhyNil2kAAADMrSs146PnD60+sp0HEbCAZu0/eO+PRp08FhFvMQ0AAIC5czGzfuBLh078/XYfSMACmrbvw/d+X+bkbyLiTtMAAACYF/W/JxHvf+7wiX+fxqM5XwZo2vkjx5+6tjS6KzOPmgYAAED7asSnV0ZX7ppWvIqwAwuYI/sP3P2RiPxkROw2DQAAgNbUyzXyV88fXv2jaT+ygAXMlX0H7/reUsuf1sgfNg0AAIBmrE6i/uw0d13dSMAC5lHuP3D3wYj8RES8zTgAAAB2zP/ViN86f/nb/jgefXStt4tAcwbm1dvvu/etV5cnv5sRPxURnYkAAADMzFpGPphrV3/t7MOff6HvJxOwgLm3/2M/9O15td5fM34mIlZMBAAAoDdXo8YjZVJ+5+zDx5+e1ZMKWMDCeNsH79lXunp/RP5SOOgdAABgmq5Ejb9ay/Lbzx8+/sVZP7mABSycb7zvB96yvNy9N2serBk/7rUOAABgizI+X2scyvHS0XN/8c/P79w/A2CB7fvQD35nljxYI9+XEe+MiGIqAAAAN1Uj4qnI+PTaWhx+/ujqf7XwjxKwgMH41o/c/U2TSb67RrwnIn4sIr7HVAAAAOJU1Hw8yuTxGC0f28mdVjcjYAGD9c33vXvvePnSnWtZ78ya3x1RvysiviUi9kbEN2x83BvO0wIAAObTVyPqxYi8EBEvRcTFyPhS1DhVo/5nmeSpqyujUy888MSF1n+R/weGh3UcjFIp4AAAACV0RVh0ZGF0ZTpjcmVhdGUAMjAyMS0wMy0yOFQyMDozOTo1NiswMDowMLBkOSsAAAAldEVYdGRhdGU6bW9kaWZ5ADIwMjEtMDMtMjhUMjA6Mzk6NTYrMDA6MDDBOYGXAAAAAElFTkSuQmCC;" vertex="1" parent="1">
          <mxGeometry x="-285.6" y="329.96000000000004" width="80.64" height="75" as="geometry" />
        </mxCell>
        <mxCell id="1rfu-RK-qWv2y17Ju6D9-25" value="" style="shape=image;verticalLabelPosition=bottom;labelBackgroundColor=default;verticalAlign=top;aspect=fixed;imageAspect=0;image=data:image/jpeg,/9j/4AAQSkZJRgABAQAAAQABAAD/2wCEAAoHCBYRFRYSFhEYGRgaGBgYGBoZGBgYGBgSGBgaGhoaGBgcIS4lHB4rIRoZJjgmKy8xNTU1GiQ7QDszPy40NjEBDAwMEA8QHxISHj0sJCwxMTo2NzQ6PzQ0NDQ0NDQ0NjQ0NDE0NDQ0NDQ0NDQ0NDQ0NDQ0NDQ0NDQ0NDQ0NDQ0NP/AABEIAIYBeAMBIgACEQEDEQH/xAAcAAEAAgMBAQEAAAAAAAAAAAAABgcBBQgEAgP/xABLEAACAQICBgUFDQcCBAcAAAABAgADEQQSBQYHITFRIkFhcYETMlSRoRQWFzVCUnJzkpOxstI0U2KCo7PRIzMkdMHwFSVDRGOiwv/EABoBAQADAQEBAAAAAAAAAAAAAAACAwQFAQb/xAAqEQACAgEDAwMEAwEBAAAAAAAAAQIRAwQSMSFBURMUMiJhcZFCUoEzBf/aAAwDAQACEQMRAD8AgtpjLAmZ2jELRaInoMZZm0RAMZYyzMQBaYyzMQDGWMszEAxlmbREAxljLMxAMZYyzMQDGWMszEAWmMszEAxlmbREAxljLMxAFpjLMxAMZZm0RAMZYyzME2njBggCWXs/1GzZcXiqe7c1Kkw8Q9RT7FPeeqZ1A1HzZcXiU3bmpUmHiHqA+xT3nqlpiYc+e/piXwh3ZkRETGXCIiAIiIAiIgCIiAIiIAiIgHL4mZgTY6F0LWxr+TopmPFmO5EHN26u7iZ2nJJWzGlZr5guB1y4dC7M8PSAbEM1Z+sXK0wexRvPifCS7B6Iw9AAU8PTQD5qKPba998yy1cU+issWFvk5wzQXHC++dPZByHqn4V8HTfc1JGHDpKDu8ZX7z7EvS+5zTEvrHakYGte+FRSeunemb8+hYSI6W2WEAth8Rc7+jVA9jqPxWWx1UHz0IPFJFZxPbpXRdbCP5KuhR7XAuCCvDMpBIIuD6p4ppTtWiDVCJutUdFe7MXRokXTNnqfVpvIPYTZf5pdfvWwPoGH+5p/plGXUKDqiUcbkc9ROhfergfQMP8Ac0/0z86uqeBYFfcVAXBF1pICLjiCBcGV+7Xgl6LOfonox2EbD1Hov5yOyHtKm1+4ix8Z55rTsqETf6jYZK2Ow9OpTV1Y1MyuoZTai5F1O47wD4S5vetgfQcP9zT/AEzPk1CxyponGG5Wc9ROhfergfQMP9zT/THvVwPoGH+5p/plfvF4Jei/Jz1E6Bq6n4FuOBoeFNV/LaeLE6gYB7/8Nl+g9RLdwDW9kktZHwPSfkouJaek9lakFsPiWU9S1AGXuzKAR6jK/wBN6BxGBbLXplQfNcdJG+i/PsNj2S2GaE+GQlCS5NZERLiIiIgCIgm08AJll6gaj5suMxScmpUmHiHcH2Ke8xs/1HvlxmJTk1Kkw8Q7j8FPeZacw6jP/GP7LoQ7syIiJjLxERAEREAREQBERAEREAREQBERAObNDaNfF1kw6ec7Wv1Ko3sx7AAT28OudA6D0RTwdJaFJbKo3n5TN1sx6yZXexzAAviMQeKqlNeYzEu/5U9stW81arI5S29kVYo1GxMzEg2u2vXuBxh6VMPVyhmLXyoG824G9ieNrjqmaMXJ0ixtJWycxKPbaNjyb+UQdgpLb2kn2z14Xafi0PTSi45BWQ+BDH8Je9LkXgh6sS5Z58bi0oI9V2Cqis7E9SgXMhuiNpWFrELVDUG4XbpJ9teHewAmk2o6yrUVMHRqBlbLUqMpBBHGmoI7RmPcvOQjhk5KLR65qrRB9PaWfG13xD3Gc9FT8mmNyJ4Dj2knrmuifSIXZUUXZmCqObMbKPWROokoqjN1bLT2Q6LypVxbDe7eTT6Cb2I723fySyprtB6OGEw9LDrwRApPNuLHxNz4zYTk5JbpNmqKpUZiIkCRTW1jRfksSuIUdGstmsP/AFadgbnmVK/ZMgsvTaLor3Tgqlhdqdqybrm6XzADmVLCUWJ0tNPdGvBmyKpEl2d/GWG76v8AYqS+RKG2d/GWG76v9ipL5Ezar5r8FmLgzESMa96dqaPw61qSqWNRUswJXKVYncCN+4TOk26RY3Ssk8xKfo7U8SPPw9Ft/VnTdy4t65LNWNoFDGMtF0NGq25QSGVzyV7Df2EDsvLJYZxVtEVOLdE1nkx+Cp4hGpVEDo3FTwPWO49s9YiVEzn3W7V5tH1zSuWRhnpseunexB/iU7j3g9c0Uujano4VcEatulRZWB/gYhGHdvB/lEpedTTzc42+TLOO1iIgmXEATabTE4CvgBhsUyKrVM7U0dQxCpkszq27fnuAeGUE8ZONQNSL5MXiU5NSpMPEO4PsXxM/LbUOng/o4j8aMpjmUsqguOtk3FqO4j/wj6Q/fJ90v+I+EjSH75Pul/xIjE1e3x/1X6K98vJLvhI0h++T7pf8R8JGkP3yfdL/AIkRiPb4/wCq/Q3y8kv+EjSH75Pul/xPuntMx44vSb6VP9JEhsTx6fH/AFQ3y8k+w+1XFr51Gg/cHT/9GSbQu1DD1SFr02oE/Kvnp37WABXvIt2ym4EhPR4pLivwSWWS7nUNOoHAZSCCLgg3BB4EEcZ+hlQbKdY2Sr7hdro4Y0r/ACKigsyD+FlDG3UV7Zb85OXE8ctrNMZblZS2nNfsdRxGIpLVUKlaqig01JCI7KLm2/cBPF8JGkP3yfdL/iaTWf8AbcX/AMzX/uvNXOtiwY3BXFcGaU5W+pLvhI0h++T7pf8AEfCRpD98n3S/4kRiWe3x/wBV+jzfLyTBdo2kCQPLJvIH+2nPul6icuU/OXvH4zqMTna3HGDW1VyX4ZN3ZmIiYi4rbY3UHkcQlxcVFbtsyWF+zoG3jLIlG7N9OLhMVkc2SsopsepXBujHsuWX+bsl53l+oi1kb8leJ3ExIZrtqUukLVUYJXVctzfKyjgrW4WubEc+Bk0iUxk4u0TaTVM5y0xoLEYMkV6DIPn2zIe5xu9e+a2dOOgIsRccj1yM6W1FwWJuTQ8m3zqRyG/MqOifETZDVriS/RTLD4KJiTnTuzbEULvQYV0+bYJVA7ATlbwIPZIQ6FSVZSrAkMrAhlI4gg7wewzVDJGfxZXKLjyfMluzPRfujGq5HQoKah5ZzdUB8bt/JIlLp2W6K8hhPLMOlXbP2+THRpjuIu388r1MtsPyewjcibRE+HYAEk2A3nsE5hqPJQ0ij1quHB6dNabNw4VM1vy+0T2ym9T9YC2lnqs1lxLOnhxpexAP5pcgk8kHB0RjK0fLLcEHh/0nOusOjPcmJrYe25HITdxptZk7+iyjvBnRkqvbBouzUcWo43oue0Xemfzj1S3Sz2zryRyq1ZGtnfxlhu+r/YqS+RKG2d/GOG76v9ipL5E91XzX4PMXAkF2ufsS/Xp+R5OpBNrp/wCCX69PyPKsPzX5Jz+LKcjyhTpqbMpDA9YZTcEdxExnHC4v1C++SjVbU6vjXRmpMlAMC7OCudOtUBF2J4X4C/GdOc4xX1GVRb4LywrlkRjxKqT3kAz9p8oLAC1rT6nINhoddlvgMXcX/wBGofEKSPbOfhL72gYgU9H4kn5SZB9KoQg/NKEJm/SfFlGXkXlmbP8AUe+TGYlOTUqbDxDuD7F8TGz/AFIvkxmJTk1Kmw8Q7g+xfEy0hIajUXcYnsId2BI9rPqnQ0iaZrPUHkw4XIyr5+S97qb+YPbJDEyJtO1yWtJ9Gc462aNTCYyvhkLFEKBSxBbpU6bm5AA4seqaiSXaL8ZYr6VP+xTkanfxNuEW/CMU/k0JP9lGiKGLbEivRSoEWjlzqGyljUzW77D1SAScbM9YcPgGxDYiqUDrSC2R3uUNTN5im3nDjK9UpPG9vJ7jrd1LLq6lYBhb3FSH0QUPrUgyqNoOrSaPr0xSJ8nUVmVWNyrIQGW53kdJSL8zLJbaPo4DdiGPYKFcX9aASsdetZhpKsrohWnTUqma2ZsxBZjYkC9lsOyYtJHN6nW672W5dtdOSMREwTOoZjc6oZvd2EycfL0/sZun/wDTNOjRKq2Y6oujjHV0KWBFFGFmJYWNRgd43EgA878pas42syRlk+nsjXhi1HqQrTOoGCqeXxBV87eUqEiowGc3Y7uV+qUcpuB3TpzSf+zV+rf8pnMScB3TToZSadvwV50lVH1EROgUFt6q6h4PE4XD4h0fO6Bms7AZr8hw4SyhI9qEf/L8L9UPxMkU4GaUpTabumzfBJLoIiJWSOYLSxNTtoRpBcPiySgsqVQLsoFgBUHyh/EN/McTK6EzOtPHGapmOMnF9DpfC4lKqiojq6neGUhlI7CJ6JzbozStfCtnoVnQnjlPRbh5yG6tw6xJ1onalUWy4nDq463pnK3ijbj6xMU9LOPHU0RyJ8lrzMjWhtdMHizlSuFf5lT/AE2J5C+5vAmSQGZ5RcXTRNNPgzItrdqjS0gpYAJXUHJUA4kA5VqfOS9u0dRElMQpOLtBpNUzm/CaIeriVwbKVc1PJMOtSD0zw32W58J0Vh6S00WmosqqFUclAsB6hNL73U93/wDiHX5HJb/5L2z9+Tozfy3Nl31+CMI7bMyMbQdJ+5sDWINmcCkvPM+4kdy5j4STys9rVGvV8glOhUemuZ2ZEZh5Q9FQctyLDN1fKkcSTmkz2TpFYYeu1N0qKekjK6/SU5h7ROksBilrU0qrwdVcdzAGc4DB1CbCk5PII5PqAvLr2cCsuCWnWpsjIzKodSpNO+ZSAd9hcjfymrVpUmivE+tEsml1t0V7swlagB0mW6fWL0l9oA8Zu4mJOnaLWrKF2c/GOG76vHj/ALFSXyJU+F0V7l0/TQCyO1SqnLK9GqSB3MHHgJbAl2oluaf2IY1Sa+5mflWoq4syKw42YBhfuM/WJQWH40sOiblRV+ioG/wn7REAxE+WYC5J3DjIDrftDp0A1LDMtSpYguLGnT7b8Hbs4DrPUZQhKTpI8bSXU1O1nTocpgkbzCKla3DNboKT2AliO1Z+moGo98mMxKcmpUmHiHcHr5Ke877W+9RNTGdhj8YGZmOdEe5Ysd4qVb779YU9532As+XTybI+nD/WQjG3bMiIiZywREQDn7aL8ZYr6VP+xTkakl2i/GWK+lT/ALFORqd/D/zj+EYZ/JiIk42Z6vYfHtiFr0y4RaRWzuli5qZvMYX81ePKMmRQg5PseRjudEHiXudnOjrfszDt8vXJ9rmV7r9qamj8lWk7NSdsmVrFkexYdIWupAPHfu475Rj1kJy2q/8ASyWJxVkKm+1W1gTAuHbB0qu++Zr+UTtRiSq23/JB7RNDE0zgpraypNp2jozV7WGhj0z0W4WzI250J6mH/UXBtxm5nNmgNMvga6YinxU2Zb7npnzkPfz6iAeqdG4TELVRKim6uqup5qwBB9RE42pwelLpwzZjnuXXk/PSf+zV+g/5TOYk4DunTuk/9mr9B/ymcxJwHdNX/n8S/wAKs/KPqBEyJ0jOdCahfF+F+qH4mSCR/UL4vwv1Q/EyQT53J83+WdCPCMxESJ6cvibXA6v4ivRbE06DOisVOXe1wASVTiwF7buueLA4V69RKKC7uwRe8niewcT2AzojQ+jUwlGnh0HRRQt+snrY9pNye+dLPn2VXJmhCznD/s9h5GJ0FpfVbC4wlqtBS9rZ1ur/AGlsT4yL19leHJumJrKL8CEcDsHRB9cjHVxfy6EnjkVKReW3sm0jWrU61OoxZKZQU2O8i4bMlzxAspA6rzFDZVQBu+KqsOQCLfxsZNdEaLpYSmKNFAqjfzJY8SxO8k85VnzwmqR7CDi7ZsIiJkLhERAEwRMkxAMWmbREAREQDQ6W0T5TFYLFKN9J6qv9W9GoBfufL9ozezMRZ5QkZ1509U0fh1rU1RmNRUIYMRlKsfkkG+4STSB7XP2JPr0/K8njSckmeS6JsjHwp4v9zh/s1P1zzYjaXjmvl8in0UJI+0xHskMgm06SwY12M++T7mw0np3EYoHy+Jd1+aWypz8xbL7JPNn2o/mYzEpbg1KkwtbrD1Aevkvid9gM7P8AUfzcZiU5NSpMOHWHcHr6wvVxO+1rREy58yX0wLIQb6yMxETIXCIiAJrNKabw+EKivXSnmuUzm2bLbNbuzD1zZSqNtfn4P6OI/GjLMMPUmo+SMpbY2Q/XjFpXx2Iq06gdGZMrKbg2oopse8EeE0MRO7CO2Kj4MMnbsSytjNRVfF5mA6NC1yBffV5ytZhlB4i8hlx+pBxvklCW2VnTr4ymouaiAcyygW9cq7anrLRxCJhqNVahV87spDKLKQFDDcTvJ3cpWQQfNHqn1M2PRqE1Ju6LJZnJVQiIm4oE6J1LUjAYQNx8hSPgVBHstKO1Y0C+kK60VuF3Go4+RTvvN+Z4Dt7jOiaVMKoRRYKAAOSgWA9U5uvmnUUacKfVkf0vrTglWtSOLphwHQqW6QcAqVI533Tn1BuHdNrrP+2Yv/ma/wDdeauaNLhWOFp80V5JNsRETUVF16na0YOjgsPSqYumrqgVlLWYNc7iOcnQnLlPzl7x+M6iE42rwrHJNPmzZiluR9RETKWlN7J8NROIeq9RBUVctJCQGObz3APHdZd3zmlyTmAfhvHYRJPojXrG4Wy+V8qg+TVGc25B7hh4kzdn08pS3JlEJqKpl8RK3wG1Wk1hWwzoeaMtRb+OUzdUNoeAew8uyk/Op1Ba3M5be2ZZYZrsWqcX3JdEi76+6PUX91g9yVCfUFmrx20/CIP9NalU9VlyL4l7G3hPFim+wcoruTu8/GhiFe5VgwBKkg3GYcRfslJ6e1+xWKBRSKCHdlQnOR/E/H1W8ZINC7RcNhKFPDrhq5CKFv8A6fSbizefxLEnxlj000rrqeLJEtOJXfwrYf0Wv/S/XHwrYf0Wv/S/XI+hk8Hu+Pk821XTlSk9ChSqMjC9VmRip61QEjq8827BIphNfcfTFvdAf6aI3tABmt1l0ucbiKmIsQrEBFNrqiqAAbbr7ifGaqbseGKglJGeUnutMmbbS8cd3+gO0U2uO67zXYzXfH1dxxTKOSKie0C/tkdiTWLGv4njm/JeWznShxOCTO5Z6bNTcsSWJBzKSTvJKsu/vkslF6j61jRrVc6O6OF6KZbiopO/pEDeCR4CTH4VsP6LX/pfrmHJgnue1dC+M1XVliRK7+FbD+i1/wCl+uPhWw/otf8ApfrkPQyeCW+PksSQPa5+xJ9en5Xnn+FfD+i1/wCn+uRzXXXalpGgtFaNRSKivd8mWwVhbosTffJ48M1JNohKcWmiDk2lnbP9R/NxeJTk1Kmw4cncc+S+J32tnULUe2TF4lQdytSpkHdcAh6gPyh1L1cT2WeJZqNRf0xZ5CHdmRERMZcIiIAiIgCVpta0RXxLYU0aD1Mi182RS2XMaWW/flPqllzEnjyPHJSXYjJblRzn71Md6DX+wY96mO9Br/YM6Mia/f5PCKvQic5+9THeg1/sGPepjvQa/wBgzoyJ57/J4Q9CJzn71Md6DX+wZ+6alY8/+yqeJpj8WnQsT33+Twh6EShsPs90g9r4dU+lUUW78pMkGi9lDkhsRiVC9aUgST2Z2AA+zLZmZXLWZZfYksMUa3Q2hqODpilRphV4nrZjzZjvY982JiZmVtvqy1Kig9YtWcY+LxLpg6zK1esysFJDKzsQQeRBmu96mO9Br/YM6MibI62cYpUil4U3yc5+9THeg1/sGPepjvQa/wBgzoyJL3+Twjz0InOqaq40EH3DX4j5B5zokT6mJnzZ5ZatcFkYKPBmIiUkzl8TMwJmdqzEIiIsCIiLAiIgCIiLAiIiwIiIsCIiLAiIJhgE2lnagakeZi8Sm/c1Kmw4cnqDnyXxPY1A1I3rjMSnJqVMjhydxz5L1cTv4WgJh1GfmMS+EO7MiIiYy4REQBERAEREAREQBERAEREAREQBERAEREAREQBERAEREAREQDmACIidkyCIie2BERFgRERYEREWBERFgRERYEREWBLH2a6qU6oGOq2YAnySdQZWIzvfiQRuHDr48ETLqJvaIfItcTMROeaxERAEREAREQBERAEREAREQBERAEREAREQBERAEREAREQBERAEREA//9k=;" vertex="1" parent="1">
          <mxGeometry x="-425.89" y="394.96000000000004" width="140.29" height="50" as="geometry" />
        </mxCell>
        <mxCell id="1rfu-RK-qWv2y17Ju6D9-26" value="" style="shape=image;verticalLabelPosition=bottom;labelBackgroundColor=default;verticalAlign=top;aspect=fixed;imageAspect=0;image=data:image/png,iVBORw0KGgoAAAANSUhEUgAAAQMAAADCCAMAAAB6zFdcAAAAkFBMVEX///8An+MAnOIAoOTn9PwAmeEAm+LY6/nz+/6JzvDA5Pfg8/sAmOGc0/JavOtGtOmt3fXS7Pl+y+9EsOi65fgprugAo+TL7Plqvuzs+P2n2vRJuOpVtOnc7/q04fbI6Ph9xu4nqeZhwe0Ak+BVveuHz/HC6PgUquZxxO2i1fJMsujY8fuGzvGs2fOH0PFuxe7U5aSYAAALPklEQVR4nO2ca3uiPBCGIQiLykktKFoPuLutre7u//93L4EEIQcSEN2u7zyfetmIyc0wmZkkGAYIBAKBQCAQCAQCgUAgEAgEAoFAIBAIBAKBQCAQCAQCgUADavRkSnswsJ5LKOrBwHwmIXPXA8FzMbB7IXgqBlY/BM/EoKcVPBODvlbwRAx6W8HzMOhvBU/DAL30R/AsDG6wgmdhcBOCp2CAJjcheAYGyY0InoCBcyuCf5/BzVbw7zOwb0cgZIAcx0Z5Mm4i23EQevSwumgAK+AZIGRlP+b+brbNtY/8eRAm+NO2jqD8/w2ZwuaoTf0Q2G8DIGgyQHZ8iM5sE/e884MMObJ+Outd1NRuxbeNI4HWWB/++LSJE0f6A1INYgUNBsgKXmTlODedzReW8HahmG++5VuFbls33DTd/9wkYgOS6da4gOp6QXRYKtq++bHgXjlrwZBe2XYKBqWmu5Vl6zMYCEHFAL3ONFq7+yBhR5dNBQ39XgxypZdM1xaGQkAYINPX/cL5wAxuJRxKXwb5V8c6TwQaDkHJAGV7/W8wt1jimjfMOPQZ5JhDNYSkQ49VKvqX6DwHRCO2M+JmE6c/A8M9eQoEzoAICgbJtsMXguY9csbiZqP4BgaGcWm3hCGtoGCAumTfe93eHJqj6MjAODJ2dD8rwAzseZf2MTO0V1nDZdOcuzIwFnJLGNYKMINs1KH5mpm+RcEBUXIbg7dHWUHOAGnPirlGGdsh+cjGDWvuzIB1PNWFhrYCbAfi8NgtxXx6YGe8k/zKs4YhdGfwzRKbgSqa7S50FHx49ldh/P7+HoerQ7S/dn7KBbJt7rRxIwUM9i9YbzNRnJnLFRkCGihNakhQiUoDi2SzRVZrZUFEXAaXDmZtN3dd94oCBu8m3jGQJEl2nIiMcS1gYA3+IOTiPeIoZqcl5CUnjGrC9shpnVJchR1cpxjkxAKDOnPTIzIHqRew4qP9QDQzI/Qepe/sjXHag6tjrX0rA1y5EHiWmPU+XeLZDuL4p805rUaBS+hUfm7S3rY5RPuD+/6RiUXM+yDg5WZiBiIs8uCgUFqLc5QMTJMzKr/hglH2KAT5L6vylUqJxKNXml8fKzUDm8s89g2Hcj8rEFjzRRMCCpgvLtlRbLsw4Gty9QjjXr4AS7Rm7XO1IqG40v76kx3ntRCg8SxwE+35yuCuvuAg+nC60ijloJid1A8JW5P2uzBI2OtNs6sV3CMuoFqIQ+VZkKhq/oi1/FHG+fbrnexjB1vKAFl3dYfmN8k/zuPYbq34IzZw39soZK9SldT6+ANK8L5WYBiCaZnK3Z8WlpQC3+V8OnfYge7o9KZm4HBR0swiCO48KZrcravLfRtnnhiDzQUHmWBzWBVxacyN3M0ua5L3tgJcP1DlosvTQuQauGWFF1NUaKfZtpIBN9OSCsTdrcAwrLYSANEoCjlj4Ec7xk1iNgWj8bKKATL5gAvHyg9AYFim90uj2XLFeAabDSzcYkh8nSvTYuCFgpgzxgGyKhYdQLnb4WZ1ofaLRj5psf/fFt7P+cN+fnHkDCplY0G8OkW5FWj17UZZ+qx3tfCRrxyQ3CBjP99K7WCzCF+D1eow5pf7C61zNo9AgBmYaKH3U7OwMgX+KSU5IudiSUlMwCBNBRXL2hdXzkOsoGSQm5xmfeZEvfwr2/cljWe4MvVaxkCh2cOSZRqGXPS6SCyeDw586RyYyp4FhQLrMVZAGeSjCvVW3MpKG+IfbuorLM65FP/qzGB33xyhrqqIj1Cg86MpntH4gvy08hQ29zAU4V5nBrPHVY1qCxnIOmm4hQmusHAF+esaHJ83pXGvZ+FxaizmIBSvlauPAUJ8wl3bf8RX2HCI8M8wwJX+94PiOESE+ODgWu3IxR2zxEvQ/xADs1hROe5bjsy6mcfd6V/1pQJ+ySLrxmDbZU/IABIubCJzcZGnkxs+3W4sDWYcQN/uwiDK+hzYvUGSxV3k2LEv8cy/ubKLa9lVeo1sj8ubzok+g8mGDz7uLAkDPBiUBMLqheBs+Wj3J04SvICaBf6MH+0KaTLYBab9YCtoY1BYg2THlUjp9Dw7T8UjjWw1A3e2O2WeYz7aChQM5NvOukqcMxFNZ7uP+TErdiv3Orx/oxQMTHuYKe3o8AxCvPcgl2XadlXCfrwVqBl4w9yXiSlgIKhS3nZIr6coA1kNfSAnnWaCGgr3m6qF7DuprB+cRifJSgIfD/XTJdawA7EVrC9jieY4v0nnVPTjn/5uW5+7tj9p+2vT3fnan4KBlV9rwteOsRlshkFgbDdKBjIr2NiORB722NPv3Oe2k3yOrzdvggTfTV592qOillamwstDxi6u2UGf98xoinkWLJnnkWxUNMmsxW+WK4A63pz2fSIOhm3ro8aABoTT3Y+kftDKmt8z0WkykPuCXgzwf2m9XszArLZXWuxGy2U0PqyC12B1Gkd3NAKDYWDJ3WFfBiYiabyUQW7n+Cbn/+aLVqItqsOr7g/aQqPeDGjpV87ARBcDMxAs9D1GNQYtVnBlwB+KtOsMao6vunAZ5lIGovOU3gwzuLF2uRekSIY70thVfH0W2k9QEAZJuOCE0REG6HipZr7guo0Qd44wsDZHqmBB14vw4QOdNdc2uZ9OfFi/1crg6X43DhO+iNDCoD00Ios0slmaMGicq0rH5MpFiEcYNI7rTOh6UTIzTMF6bxdtCxMzrSwsKP8Iszz+x6d91Xurq2dBESBrMmiWAD/IMicualEGTYMntyB/XG71Br+rjSbNB43fVcKJMlBlJL0YGO9lrxYjGYNtuTKWX7fTeS7Bk89urKrkKK9W3ghL+UabfgzIwhcen5gB3YWfGJrLrYX+8PZ9lk47ntIrlutP6ry0H4MdedzPUgZkTSQxTO+ot93HjUR+jjvTWwkdVFfEDNRW0JcBKXW3MJh4lIHpJCsNCufA9C7cpy6f/1YMPlUzA/YHOtWJfgzIEjneW6G0A3x5L/bbH4nzKY87bH4GmcoIYKnIhkjvBV80RkrYl2aWdRkxgynZDoEjRQkDct2YnvlGSeCPZOHx7IhjDn4hkd1d35SyFLlxNJe6ZbZWhsJCBtNPMvMdDBkDsiM8T5qvF7RRfPj1xt7r6cs4tktjDD58Rh9Zmx1kXPuG1plm1UiTwS6dEp3fql3nOBQWM6CHK5x1410gxQGuxeY496PJ5G0S/f6Tx5S1d6F0fYtJ6wtQkKd7sFKPgZlkVElVEyttl2fgphGd1HOHIeq449heLtvp/a4WDannjY4MRCqPwdF8IVhRBe82uSh+WIYdmL4c/eO1/RmQuowgb6yaJO5fY9B+KlDIAHmcFq0MEN0f1lY/wJPzHcanoU6HrGl84KaMyoVPCQPHDGik2sKgMJT7jFGhLlagGyOZTSPP/kyqqV7GwCEh2v0HzIs7ATMEAxQGr6+vAT0rUD8UI2SA7ORAItkHDbvx6x3XcfUYeC9FFTSiP1I7bSVikIR+lTE/auBXdUXQMV+gJ8WdBfssJNGy0rkeEz8cQffV/I45E333BAroOCX5wl9jgPjkc2AGxoo4yeoY+Rdj0CE0YhiI6srZh4hBWhXjx1+RQbdJsclAkH54tfWFWt6Y0tI62dr0pRj0sQLddaZ67rylEMp13K/EoEjmH8HAmFXH1qW5899h0ClAvo0BraiaKFt+JQa9fEFfBtVbHFAeMKoY2A+S13+XX+jJLvodT7Tb7+XfTGFubpdf+x4aE88reiArcH57lPrvw97KL4oPGrjkb6aMTT/Ofzglf33dnfMgEAgEAoFAIBAIBAKBQCAQCAQCgUAgEAgEAoFAIBAIBAKBQCAQCAQCgUAg0P9C/wEb0MP4nAV6UgAAAABJRU5ErkJggg==;" vertex="1" parent="1">
          <mxGeometry x="-285.6" y="429.96" width="93.45" height="70" as="geometry" />
        </mxCell>
        <mxCell id="1rfu-RK-qWv2y17Ju6D9-29" value="&amp;nbsp;Инженерно-технический персонал" style="text;html=1;align=center;verticalAlign=middle;resizable=0;points=[];autosize=1;strokeColor=none;fillColor=none;" vertex="1" parent="1">
          <mxGeometry x="-1242" y="364.96000000000004" width="220" height="30" as="geometry" />
        </mxCell>
        <mxCell id="1rfu-RK-qWv2y17Ju6D9-30" value="Оперативно-ремонтный персонал" style="text;html=1;align=center;verticalAlign=middle;resizable=0;points=[];autosize=1;strokeColor=none;fillColor=none;" vertex="1" parent="1">
          <mxGeometry x="-1237" y="469.96" width="210" height="30" as="geometry" />
        </mxCell>
        <mxCell id="1rfu-RK-qWv2y17Ju6D9-31" value="" style="endArrow=classic;html=1;rounded=0;exitX=1;exitY=0.75;exitDx=0;exitDy=0;" edge="1" parent="1" source="1rfu-RK-qWv2y17Ju6D9-18">
          <mxGeometry width="50" height="50" relative="1" as="geometry">
            <mxPoint x="-1102" y="451.96" as="sourcePoint" />
            <mxPoint x="-892" y="449.96" as="targetPoint" />
          </mxGeometry>
        </mxCell>
        <mxCell id="1rfu-RK-qWv2y17Ju6D9-32" value="Заказы, графики" style="text;html=1;align=center;verticalAlign=middle;resizable=0;points=[];autosize=1;strokeColor=none;fillColor=none;" vertex="1" parent="1">
          <mxGeometry x="-1032" y="309.96000000000004" width="120" height="30" as="geometry" />
        </mxCell>
        <mxCell id="1rfu-RK-qWv2y17Ju6D9-33" value="Дефекты (фото, описание)" style="text;html=1;align=center;verticalAlign=middle;resizable=0;points=[];autosize=1;strokeColor=none;fillColor=none;" vertex="1" parent="1">
          <mxGeometry x="-1072" y="419.96" width="170" height="30" as="geometry" />
        </mxCell>
        <mxCell id="1rfu-RK-qWv2y17Ju6D9-34" value="Факты выполненных работ" style="text;html=1;align=center;verticalAlign=middle;resizable=0;points=[];autosize=1;strokeColor=none;fillColor=none;" vertex="1" parent="1">
          <mxGeometry x="-1072" y="444.96" width="170" height="30" as="geometry" />
        </mxCell>
        <mxCell id="1rfu-RK-qWv2y17Ju6D9-47" style="edgeStyle=orthogonalEdgeStyle;rounded=0;orthogonalLoop=1;jettySize=auto;html=1;exitX=1;exitY=0.5;exitDx=0;exitDy=0;exitPerimeter=0;entryX=0.003;entryY=0.423;entryDx=0;entryDy=0;entryPerimeter=0;" edge="1" parent="1" source="1rfu-RK-qWv2y17Ju6D9-35" target="1rfu-RK-qWv2y17Ju6D9-13">
          <mxGeometry relative="1" as="geometry" />
        </mxCell>
        <mxCell id="1rfu-RK-qWv2y17Ju6D9-35" value="АСУМБ" style="shape=cylinder3;whiteSpace=wrap;html=1;boundedLbl=1;backgroundOutline=1;size=15;" vertex="1" parent="1">
          <mxGeometry x="-892" y="404.96000000000004" width="90" height="85.04" as="geometry" />
        </mxCell>
        <mxCell id="1rfu-RK-qWv2y17Ju6D9-48" style="edgeStyle=orthogonalEdgeStyle;rounded=0;orthogonalLoop=1;jettySize=auto;html=1;exitX=1;exitY=0.5;exitDx=0;exitDy=0;exitPerimeter=0;entryX=0.003;entryY=0.886;entryDx=0;entryDy=0;entryPerimeter=0;" edge="1" parent="1" source="1rfu-RK-qWv2y17Ju6D9-36" target="1rfu-RK-qWv2y17Ju6D9-13">
          <mxGeometry relative="1" as="geometry" />
        </mxCell>
        <mxCell id="1rfu-RK-qWv2y17Ju6D9-36" value="Склад" style="shape=cylinder3;whiteSpace=wrap;html=1;boundedLbl=1;backgroundOutline=1;size=15;" vertex="1" parent="1">
          <mxGeometry x="-892" y="620" width="90" height="85.04" as="geometry" />
        </mxCell>
        <mxCell id="1rfu-RK-qWv2y17Ju6D9-46" style="edgeStyle=orthogonalEdgeStyle;rounded=0;orthogonalLoop=1;jettySize=auto;html=1;exitX=1;exitY=0.5;exitDx=0;exitDy=0;exitPerimeter=0;entryX=0;entryY=0.772;entryDx=0;entryDy=0;entryPerimeter=0;" edge="1" parent="1" source="1rfu-RK-qWv2y17Ju6D9-37" target="1rfu-RK-qWv2y17Ju6D9-13">
          <mxGeometry relative="1" as="geometry" />
        </mxCell>
        <mxCell id="1rfu-RK-qWv2y17Ju6D9-37" value="АИСКУЭ" style="shape=cylinder3;whiteSpace=wrap;html=1;boundedLbl=1;backgroundOutline=1;size=15;" vertex="1" parent="1">
          <mxGeometry x="-892" y="509.96" width="90" height="85.04" as="geometry" />
        </mxCell>
        <mxCell id="1rfu-RK-qWv2y17Ju6D9-39" value="" style="shape=image;verticalLabelPosition=bottom;labelBackgroundColor=default;verticalAlign=top;aspect=fixed;imageAspect=0;image=data:image/png,iVBORw0KGgoAAAANSUhEUgAAAIIAAAB5CAYAAAD1VvknAAAAAXNSR0IArs4c6QAAAARnQU1BAACxjwv8YQUAAAAJcEhZcwAADsMAAA7DAcdvqGQAACjPSURBVHhe7d0JvK3V+Afw15jMY0mUKJIolbhpEEmKkqiEpJkSRSqRPxJpMDQQEmUqIU0kpVJSKimRkKEMucoUMr7/9X26z7Hubu9z9j5373OH9u/zWZ/3nHdY71rPeua11rvv0hY0Y9zpcdc5xzHu5BgzwhiBMSOMERgzwhiBMSOMERgzwhiBRZoRphMZ31mj6UUqj5Bd+e9//9v885//bO5617s2f/vb35p//OMfcVTA+bvc5S7Nve51r2bxxReP493vfvcort3tbneL6/6+s2ChZQTN/ve//x3lX//6V3PLLbc0v/nNb5pf/vKXza9+9as4/vCHP2x++9vfRnHdM3Ux2A9/+MObRzziEc2SSy7ZLL/88s1yyy3XPPjBD24e/ehHN0sttVTz0Ic+NJjlHve4xwQDLYpYqBhBUw08yf7LX/7S/OQnP2muvPLK5vvf/37z9a9/vbnpppsmmCOlmnaAxRZbbELCczD/85//hLbIe5xPcrh36aWXbjbccMPmiU98YrPSSis1K6ywQjBGapBFSWMsFIxgoP785z83v/71r5sf/OAHzdVXX92cc845zeWXX97cdtttMYD3vOc9m/vc5z5R/E2Cc8AcSbprGMQA6vaf/vSn5he/+EUwlf+ZE/VhDuf8r3hGnauttlqz/vrrN094whOCMR71qEc1D3jAA+7AEJORdEHVKAs0I5BsKv26665rvvnNb0Y5//zzY6AMsIE1EFT5fe973xicVVZZJdS6/6n99AEMpEEwaAZWt9VjoB2Zl5tvvjm0ioLJrrnmmmCIP/7xj8GINBFGUeesWbOa9dZbr1l33XWbxz3ucaEpst7JMGaEAYABfve738VgXHjhhSH97L3BetCDHtQ88IEPDLVNMp/+9KfHkT13zYBjklrd18deQIa6YBAMcOONNwYjfuc73wnGmD17dvP73/8+mAZTrbjiisEQG2ywQbPqqqs2D3vYw+L9vd43ZoQ+oCkIfPHFFzdnnXVWSP8NN9wQUsmZI3mkfu211w7J5+Td7373iwGpCezv7Na8Eh5DKbfeems4oczSt771rTjyUTiiNJO20A7Pfe5zQ1tgiE6TAYs8I8xLNZ7961//Gk7fKaec0nzlK18JjUAd3/ve926e8YxnhLQ973nPax772MeG5NeDX7/bOar+73//e9SpUOccQ8eEZ0humg6mxN8Kx7JzwNyvqIdvcf311zdnn312c8UVVzSXXHJJRCzMAwZ41rOe1bzkJS9pnvzkJwej1nWNGaEHPPezn/2sOfHEE5uvfe1r4bxxCjEAj52D9vznP79ZZpll4hx0EpO08iWobc9fe+21Ia2YIfMIpNqxBodSSUdT/csuu2yYGqHkQx7ykBhc5/Od2pt9Vb/3YQhaQuTCnHAiFQzxqle9KurMZ7ppiQUB85URDMxll13WfPzjHw9CsscItdZaazXPfvazm0033TQYICU03+FIukmhKMJAGHgmBEOw4TRBJpC6oR7YBM3A/7j//e/fLLHEEiHN3s/+8wUMqHOeUbSVhuC7yFt8+ctfDof2ggsuCCbhtOrLtttu26y55ppzMdSChvnGCH/4wx+az372s83HPvaxkCIDJwLYYostmi233LJ5/OMfH4RLovPIEd0gf/e7323OPPPMUMv+Z0LUgTncS8qpaHUwJZ41gBlSQuYj0oz89Kc/DXUvYuAoqofpoBU8KzJ5ylOe0rzgBS8I/0REghHq9unDj3/842CIz33uc9FHmobZednLXtbssMMOoWEWRMwXRmD/P/ShD00QiyRTozvuuGNIEOIjbDpqpIj0U71MCGIbRMWzBuRJT3pSRBAcSlLMj3jkIx8ZA+H59OTVC9qrbszlqB7vYJY4rKIUkQKnELNgIJoCc3rHi1/84mgzJ5FpUU8yhj5hUpruq1/9ajyrHZj8ta99bbRvQcOMMgJi/ehHP2oOP/zw8Ac8Q4q23nrrZvfdd28e85jHhBlwnsQiMIk/44wzmne/+93hpLlG8vkFBp8D+dSnPjWknxZAcM8ZFGUq1Kpa+xTvpiVEBJhOGMuBpYkwAw3hPm3dd999w4RhXnXlO12nYY444ojmIx/5SLRNu0QWb3jDGyJbmUy5QKAQdigoUjVpKYRpS1TQlvCqLWq2Lfa2LU5ZWzRDWySxLVLXFlvbFrUc9xdpb4u9bddYY422mIy2SF5bBrktarYtzmNbtElbpLYtJmHiGaVGnhuk1PC/dnlHMR3tpz/96Xi3dhRfol166aXbwgDRxtNPPz3arxRGimf9XULO9phjjmlLBNEWTdAWk9IW/6ctzBX3LSiYMUYoktWuvPLKbVGtbbHbbbG37TnnnBMM0nlviSLaPfbYoy0SFExTPPB4roRk7XnnnRcDUz83U/Cu4o8Eg2611VZt0QzBoEXa2yLd7ete97q2RBFzMYN2YuqzzjqrLWFwu8IKK0SfMM+ll14a1xcEjJwRdBQTFFXYFlvZFvvaFlveFht6h/uKOm6LyWiLt83OBOMUVRyMUyKDtpiGuZ7JMtOggTAjpizmKRhCW4tZCE1RnMW2mLwJDZGlREZt8StCG9IqmOKSSy5ZIJhhpIyg88wBImGCYsfbpz3taaEW8x6Sg7DFd2gPOOCAtjh4wQgIhWAf/ehH2xISzlVvZ5lJeJ+By2PxYdriFLbLLbdcu/jii0ebl1xyyehLCWmDufUvB/uqq65qN9xww7b4Q2HmMAN6zG9mGCkjpE9ArdMEmOCyyy6b657i+LXFO2+LFx7ShKCIWcKt9tprr53r3l5lQcA111zTvvSlLw0zRoPxa0qoGVoAMxCK9AmK0xnMQDAww9prrz3R1/mFkTFC8bjb7bffPuwhwjAHtSZQ2M4SErYbbbRRSFOJsduVVlqpLZ52SFp972RlfqJuA//h2GOPDQ3Idyghaztr1qy2RBxxrXYOkxloBEyz+eabh38xvzASRjCIqeZJN8ew0ydgQxEIMZZaaqmQjNVWW6096aST4lp971RlQQLJP/PMM4PxmTdRxTrrrNN+4QtfmPBxEldeeWW71lprtcsvv3y7xBJLtCWsbGfPnj3n6sxi6IxADX7gAx8IUyC8EiKKDvK6QhMkEwinFMTiKDIV9b39lAUNmOGiiy5qN9hgg9By2T9MTjPUbRZN0IIEhuAcdNBB7a233jrn6sxhKIyQA0L1Ca3WXHPNYALq8eijj55wrhQDzRzUTPCiF72oveCCC6bFBFkWNGAGppDfQONxINddd9321FNPndB4wJE8/vjjQ3ughVwDIalpNhO42/8V3J5amhzl3jl/3RGlsVHMIh555JGRjZP/N/OmSMuWjkUd1hi+853vbL73ve/Fs+buZdpMysi8LQrIDKN5BescZUdz7QIayaBaWOM+NDHTKV1uwqowRMx3rLHGGjEB5no/GdJ5RnlRX0ju7FZoAiHeO97xjnbFFVcM7t96663b6667Lq6l1yycWn/99SNRJD9AdV544YWRvetW78JcEvotUhJB8IM4xZtssklbBCGuZVb0xhtvjEiJVuBAvulNb4pcRV3XKDE0Rjj33HPDQdLZVVZZJWxfDrAOU/v7779/u9hii4WqXH311eOZRZEJOos+nn/++e0zn/nMcB5FUvvtt184hmkC0FByKRNUq666avhMdT2jRN+TTpPdZsbuPe95T3PaaaeFSdhjjz1ils0MYE7qFEep2WuvvWIq2HTz29/+9pgwYg5MIDEn1hIsCtBnxeRUTqcXyY+ld0VrBr1cZ5WtZHIdTMAdc8wxzdve9raY5i4OZtxvFhX9R2ki5pkRirQ3JTSKBlucYc2eQUYAg67DP//5z6NTZusK5zdvfetbm2222WZibYD5+8MOOyyeX9iRjI9eBnDPPfdsNt988ziHGT7zmc80733ve2Nq2+wjAbEKK2FdRDELsd6CH4FW1jKg5UiBEfpBraLqcsMNN7SvfvWrY+KFyhM6Cg9T5bGBO+ywAy4Kv2C33XaL6/k8/6Fok8jI8ZjZUPcWgk4U/3cW6tP9jt2udys8c88M+pzMqGdkPrtd7yxl0CJikhs45JBDghZZ2P2iLduiLWOiarvttosoAphQtDnhhBOCVp4XdZj5HDXmSSPQBiX0iTl5160tPOCAA2KJVul0qDKcbRGHxRyFCM15550Xq4YS7ivME6bFgpDCVLFQVd2ed6xhgYn7vvjFL0YEYmHrZpttNuXKHxJINVsMA8ySYrHqZLDIhMnj0VvLWELd6F8vFOaO5e/ve9/7ok377LNPmEqaIrWF5XWkvAhBrHm0UuuFL3xh0NA9luwdeOCBTWGIWPu49957x3K3kUZVGKEfpATXxVw77iZdsmMmX2gAnO+6NDPnyFw8qSodvkMdHKmDDz447tOcE088cUoHUl7e3IT7d95557aYlK731YWkldA2njEBRgvVmqlXKfa83X333eM5uY/ODGln4fTJpRQmDokuZiDOJU0AjWQacwpbKcw9UYfrtEI6lq985Stjan6UmLb3QVIt4z755JODs60Ssvoml4SVDoXUkvirrroqNoFstdVWc56+c6HQeS7fAY34UlZY+dvKK1qB/5TX0ZL2ce3b3/52LH3r1I7DxLQZgZq38pjHXzh7YrdRgno79NBDI0KwvKvPvNUijxQSkQJH0P/o9uY3vzk20CREDZxIG3skouz4YqZGhWkxAq6V/bK4E5diAuv20t7ibNrgtttuC4Z4+ctfHhpjjNuBEdCQRth4440j8+h/C3NT6kUJdnTJuPJvrJe0BtKzo8C0GEEYpGEYwaJMCzGXXXbZOVeb4GxOpEbjbMu4x/gfhI1oI3zeZZddIq1Max577LEhYAnhJ63A6bz00ktjK2Dxa+ZcHS6mxQgagxFIfHFmYjMKE5CwaYUas2ydR28fwBj/QyaGMIS9nLSCRBzNYHNMSj3msLxfPgGtrQBnkkeBgRmBCpMZO/fcc2PjBvtmF1DC/gBL1WkNHdXJdJTuTECnyYA27uErlKgghMu5U089NRxEQDcTUsJV2oNzbtKKAz5sDMwI7L+9hUoJbyLmp/4TMmO0hY6ZQbMRdBBGQBwlpcKznaVGErzbfZ2lBqlUut1Xl27odl9dDGiiF0Pkva7bQcUEoK3cCF8g70FjWsNMpG356E7Ikk5Z5hUDMYKGcWbsAtJo3Cyhw0l0TQMvv/zyMAk0gyQJ0zEIOEZy7lQgyaiLc0yOv7XDQFKZ1Krz5ip6Fc+6VztByOtcryJp5Tn90FcgidrW2a7OIpLyHiXNQDe4juHNSdjk473eh4Yp9TQBJrEXU59pBP2AmgHmlRkGyixquFBm5513bk4//fTwaO1dXHnlleMexJNJM3egQ3YHmWMQF/cC5vngBz/YHHzwwUFk0qHT+b5OOJ+TVBiO/aQ+p8oQes6WNlIFPqWjdBso702yID4JNV9COs2hsN294DmMyZFmOmUFZRZTS9R9ci9G0Aa5AlGCiTqbbk0+5XtkIk3Y2ewrG3rUUUfN5ZwnutGrb5TG9IXS4MiOWZks4yWbWCR+Yqm5a6XBsYvHVPN6663XFgJOZNN6QRaxxNCR7SsMExm50qEpi/vy/kLkvp5zn2cc/a/7vUped6zf0Xlft+I+NLBMzdKzwkwTWcNOoJtinadpams1SqjdXn311XEeXLO+I+u0n6JoqYk6e9U9CAbSCOVl8SUTOQNSa7/iG9/4xpB4133iZr/99ovVRxIkuJhtmwzqlMe3t1HOgSqcKZRBnvPX8IAOZQCjbir/LW95S3yAq5tGgKSrZ2hFiTermsxVbLTRRnE/c2l21pwMrWu+RDQ2zBnJvhkBNPjDH/5ws9tuu4VqMp1qPj0be9xxxzWHHHJIqFExMbs31cB6PXtNzTvOFEbBBJDkJBwmieRZarPV7b3JCCIGE3QiMQJlAi4ZyEZgk3v8M3R3jY82NGCEflHseSy59pjNGSZXgAorzlq70047xVQtFWYBJvXVLwoxFrnSL9yLVjbDmMI2Xc7sommaB5uAbBBidooWjtXQw0TfUUO5NySW2sfVuDFXzvjfNQ4iz1fIKEc+ldR5thAhpMFxpor3KqCNoyqDwP2mnFdfffUIvdEzowPgRKZm4bxyYoeJgcJHjctlVlR+rfJ48pn+lGDiYU9FDNcLh0fx90yUfFceZxrJhHVJEC7rNkAE5ZtQCf6GFV5gRbRwuX52XjEQI2Sak/0j8dkwwAgaDxxE9rFfQufAzETxrvnBAP2A8yekBWF10hPQnPDxGfhgtO8wMTAj4EKDTI3VK2Y0LBsu/q2v1WAGJGpw+2SlG8f7n9bpdn9nqYmYYBa0s9v9naVWywmDo13d7q8L8zgoUhhSy1L9tfOMnvIlchP6oAxTI/TO9HRBMgKupPpxKTinYRquQ9RYXquBCaRILcKgQSYDZtp1111jrUPCM+YxhJtTAdHM7GWIhQnYVp75VItk9c9Hs0pcP+fM7al1SSLhs4RRL+g/r9+MKxoNAs8aaMAINTPqh/pSwLox6jyhDGJf4L36wkdpbOzePfDAAyOKKAQOj/fkk0+OfY6uv//97++6f69IaXv44YeHZ2z/g9d3K4UJwju2bK1GUYntlltuGUkXCahuzxY7O1H3TTfdNOfJNvZV+ExPYdC4x7HzWcW7XeOZ15DUef3rXx+La0VF3Z5VRE02qYiaugG9epUiSLGbGg3tHT3ppJMmogY0tjDY8jbXTzvttIlrw8BApqHcH0ecm/Et+B9cV2iDPNcNnjXHbrGK2cm6mMSq90N0g/qZJunrDTfccKL4ypnzqV7lNhKF0CFl3k1jWRQilVs/L/FjbYA+1GoZPKs+EkniTQ/XzyrWZXD4PF+/exBkv5mhdL7Bef2q6T5M9G0akglAo9LxSmigc/n3ZKDWdEpiynxFDZ/Qs4KXGekFBLIqyp5JTJNAvP333z9mQHvBABlkWTvJmzQdYB5lk002mfNfd5hUKvF8bODpzPdb7ez9HOlhoKb5qDGQRiBVgAE0MgcenCOpzhnEqTqBWUiX+ztLMlgnM6gz22AAedGOWUizY9pRdSWSeUE97hH1aHMWjNQL2baE+9VRF++eCtrRq0D2T/11VtZ5ApTX9WEqGg+CvjWChmocaACiaZQBzWsI5Rqpm0yidZBUFl9irpVNYKlWErZbHeqnfs3I2RHkvhr2FJgHEWLVAwfamXVzGi+66KI5V24HZ1RKuF4ulvCs+jixHF47u9KxS5jdtDZjugOUdAVMirHBebQQCXFaIek+LMxNqUngpQYwG4VoyZ1gcHJQRBCTMYLOIJp1eKZW6+IL7cIvdauzG9hrEYANK53Pm7gyMdML2XZL7JmhupgKniwiAEyu7dYPdr5b2/V9ukBbZs8xNUIOtnYzS/oOvWgzXQykEdJZwbWkxoAafA3ngOFg9yFGcm4NqtNncnfaaafIJXSD+hBbqCTdWsM5k1y1yuwFTmcdvqnX3grrJewumgz6aNdWDUky52gyjNSpbRL6L/U+nXWamD/zHxghnV7ACHwf7wbXkkmGgYFmHzlTHCU/puH4pS99aUIVWvBBVZOM7bffPqZTededMMi9GAV0LiWCI2hQEs4biH6kDlN2qm7vREhtmAzawAR0MhwbndpuskHA8Exe3fZ+QOI5m0cffXQIjCOG0m9a0rYAa0UtxrHox3T10JihvKRvlMbEByM95hsIFp5A4eTYkuUTOGUA45N6FrA4P0b/mD17dmyrQ18fEbHBuDBdFF9cc65oojj6f5j07dtHAA5MrlgmXWlPcSXVSQqoTF80ZzqoujH6QxmL0LQ2Cac2Sj8AHS11T//BxBRtNzRtUDAQI7CzuZOZemUqEphEWleiCBPIyeuAhtfwnBQvOz1ZcU+n46Yuqtns21Qlve8a2sM36XZ/Xdhi6n+moF8Kumk302LBavoI2s1sZJJLniId86GhNKBvlAa1n//85yPFKdVpd7FzULzZtvgM8c1l1+0CLoM2Vxq0dDK+UywFW+xn3FcXak9hXoodjG8P1SiEavfee++4p9vzWYcUsEUyRWvNefL2ttvJzGx51n3dnvduz2tn9m0y6HcZoOhrFunsut9Twb1FQNqjjjoqzILP80rZgza45lPEPk2sjXZKOzdMDKQRwGYLnIo7LbsmoaWecO5coxE4SXY7ZRiYEPpYjk3FmUyi/kQb1Fw6dxxE9ZAOuQJQh3eQCjG8+zipjnWhUh3VXQgXy98SNJGQz04i0YT3en9nkaKmDUwuZajWDa6ZaaTK/UDHu971rvha3EEHHRRfRRGK6n8/mqUwZTiiwmHaQNt8eS2B1sJd/UcnWwQ8M0z0HT5C4caIBCxft4lF8obtMgAGijfruo4ghEUsBqyGQTUoYOk6NZcqDxDXAKqPuXG/9yqI5Bz1acClmf2fcI/t471CUzCAIgfz/gY9gbDO61cvb1+bQIiHqXwyyNJ9TJvXQF3LLLNMfFpQyGnFFkGZDPaLWvzLz5LUqhNTzKwEmfbZNKTuXm2cNsrLBkLhypiF86gPYPhaGPWlUFeWb1Nh1K8frKhVWM4+etZneb/xjW9MqNYsn/rUp8J0uKdz9lFkssUWW8S1bbbZJmYjC3EmihlCv+lAtVOhPnKRUHeq3mJf41OA1Hg+q51mVwuzhXl4zWtecwf1S4WLnPyAh/a7T1upcr+/4EOjaFKEIUrRbu3GG28cazv1sxfQzkyjNluu7vPF2uu8d/qKqw93u77rrru2RVDmPDk8DKxfSGByONVH8kkZaeTAiH9pBBxbBjrUWSdcI9UyizJ6YuMsVKC61deJ0t44ep7WkCKm6rP4XgMHdjLpI60KD90z6lCoeFKu7nxPJ2gnUmupuQwmFc2ps7rYT/aI+/1MkQkpMT4Npl7fieAA9wJaFEaIKIHqt3sMLdEAbZlgGkN9IoY60TQsDGQaAJF1khlgFhDxFa94xUTySEPZN2lYC0gsbeM36BQCCzt1hHnwW0e19+se/gNbbUC6JZ3c4zpfwWfoOgedWaBaey0+QUzv5wN0LnCh8vkotW9Rg6ljDkQWBML+jqIdJ/ymZF7T4xJu/AWMbQm6mUmJNma0BprYtSVB5Bra2euYIGwYAYPzfUx16/+wMbBGMEAaa3sWwiGavD9p0SlSYl0ArYAZaIWEZ103wAaMVCFSXXTYNfUZ0BoIgKk4YAhkQDBEXYqaD58Ds2pDAsNI/bKvJFDbOp/1btdoDIyuvQmSaTcyB1b7DXQxH7EFLqU34X9STTMQENJM+2CkTugLPwMt/W0aPLf8KRja85xJ70T7ul3DwsAaAUgNrvf9JASl0jl+pAQRfP/HnkgdsiyNxiA1rsn32/1jsBA8O9wJEqbOGt7r+4wczG7aAnJAzDVwKBMYwdoHO7Aw0GRwr28jZvvUSYNJo1PxHDoDhtk6ByX7oq8GjlDQCpw9g0pjqtegA2E4/vjjg8G91wIXWst178R8BI3JkG4W8dRMNzSUhg+M0shwrHwutkhp/OhEIW6c5+DYfMGh5EiVTsfSNefzWc5Z8YTD8XLsVtzTDZwuDmu3Z+pSJHvOE/+Dd3NYu91fF+3S3rpI//rxrjJYsdGEA6i+bnB/YdRwRg877LBw8grzxjI07Xfds/5GGw5q0ZTtLrvsEl9686zrhenaEnkEjdHa70B069cwMK1gFEcLvUg+rqXShW2lg8GtuNePXeJwqphzhavL++IemqOO/UmYFHVd1NEN6vRM5/2dhVR1Qrs5ZN3ur4v2dKIMTGgh7VdH7RN0Is87ai/k82iQRxpCvgMtmR7hJvPnmvvRNOlqWZ9wuVu/hoFpZyUQSz4BUYoUhePFecxOUOs+D8eWU6f2RdaE60XEBRWYV18NhLyBfIcB0l+lhvPgPJ/Dkb+CgfUbQzpfQuUQEH6Wr6YwZ+AedBORiW74VczCsJbAdcO0GQHnsvdsmoUgQje2MIlCYnjJJMJEFZ9BxyCZYEFmBm2r26c/nFcCwK5LPHFM9bdmCCWfxSy5RTC/x+BvjEDSMQJtwFFEK8yWdXBehZ4YQojKJ0PzUWHajKBD1L7VvIjDs/W5XdzNgXI9F5hyzmgJi1VNJOnowgL9UDC0HAmmZg4NIkeOmjew+qdk3/RTqOm3oUmyha6iFrQhOBxm9Ui5+/wwifc8yL3IV9AWnEPalZOpHaPCQAtTugHn6tQpp5wSA29b/HOe85xoNAJhDASQMiVBFqzY0u2aV6cNnQrCJ6Fb/jrMKMEei3IyMQakngmUuxAtkWKhoxXXlsGLEgBjaJ9IwL3MiejJXIR0M1/gk5/8ZHzB3n18EgyFWdDE8z6uaXOOvvpine8mZAQ1MmbACPMC3r20chns+KawbyPzdkuHJrzqs88+O76w4kes/PRfCTfDY3ZPIXDcMxluueWWdt999420tSaPupRBjZ/8LU7wRJpZO/XHD5VKc0ujF4c22rTjjju2n/jEJ+K3mUQJfqHFtaL2Y0OML9KLRPRXWr0Many7Wgr6jDPOmGu20gzrXnvtFRttpKnNtop0XO+HVtPFPDMCFK0QhMMICOAHvTCIwVagaI0giullv97i0zDJDJPBQPiAtmeLKYp3YDr1OM5rUU9d1G+QSkQTYbGcPxiEHIjiC8U1IR+GEP7VjKStGN5A+gkDcyD6mp8W8l4DXbREhNquGWh9Nc3vedP8GMpKL9dGzQjzbBqAB0zd+byLBJOsI7vHrgG16bxkkOhCYsjeQuqRszSZupOIkaXzDqrah6mo7kKUeG5eVGW3Z9lsSSeOW/aLU9wJWUgZQVPO+sbegzrLQEYGUGaRDyUU5kP50onP7DIxaMR8SBtnP/Q1P5rFMTWHsd12202YnWxvt3bPM4Id5hE4tXQ0ZuwKAWL/n0/bm/3D5YWgwfUXX3xxrHUkEcWDbosNnWuGsBv81G6xnfHJezOO1KT3penx93TKZJDkQRoSXQZ6ztnuKBFEJJcsJCHNPr/v6ybFIYz3aGNhlNBqNI2+o0FxIoM22Qf377nnnrGvtDik8Wl+NE1tUPd1FBgKI2RDTZf6gS9TqexsCRnDRBg0zGAQEYqNpPr4DH7hpDiUc2q6I5gdjEBlI476EEOdyQyDliRoL6Ied9xxfTNCN2Td2qdvNq/6mWCmBxPwJbIf2YaiecLEyECayr7gggviWrd2jwJ9/+5jP5AvF/rIyfO2rf0zZV2kIK5Tt0wBFW+BKxXJM6bqrIXslk0ULfjSu7kJEYhwqhAjVK1JHMkdqnnQQrV3O6/txfGLiS/t9UGw+hdn+kGhaxy11xfQJNMk26h7+QJ7LuvspfxLhpMSVuZm6n2ZaToSozANQ/ERQDUKAgsh5RSEWOJjvkPGwYo4mm21xAuBDK4f9VDkJuqQEiPwJYRQBsagsKuYwfsGJUrn/Z3/GzwMIXkjb+BjoINm9IomCCY14SbfgKkIiZ/jMcjCyWw/YeEXmGrWPx/UFHa6B+r2DdrXgVAaMzSkCmPXedVUIdu+2WabhS0Fqo3K5BtQmSIIYRa7aNJFNOF6Ir3tQsD40GeJy0NtF6JE8fewCzPEH+lcPNsP9F97RQsrrLBC0ICqP/TQQyM01P+kAR/AhzSZSSZBlOBZ12pzMBMYmkZI4HTFgpUSX4eEkRDfPvDBSPPzXuke2sBuKZ65tK1zFl7YMcVT5y07534TNNLYTEndZH8PuQuhwv3UTkY9neglmdohje4HzqSgtZ9k+3oKbZdS7j50EZ3IPFqMYx7ihBNOiAhJYqkbFhqNAGXgovCIrTmUSMLtHCE7oUgF4HYOpBjbj35xMk23upeW4LBJJNWgHZyrC2972MVUcPajW+kGCSPLzLWdhEs00QTOdfYDDYqvENpNzsAwWKuJZt3el2WUGAkjpFrjGSOEAUYcR7/OVjMDNeg+2cfVVlstFp4KQZVNN900zMz8QOcg1KUTV1xxRbvOOuuEiVt22WWD+f3v8zn6ViOZQOKN2RQRWeSL+aDb+7KMEkNnhBoajxBCIwMsHCMFNTMAhpDBk7HbZ599QisgqJgaQ1j5bAXzTKJzEOqSKOaqPeKIIyIMliNQZAylhaWi9YkWw+yes5fRD36iASagDWxcEVYnOt9Vl1FipIyQwO1Un9wC58kA+8QsYiUQS85dytUuI4RiTjhcCOeTvxgK8WcC3QYiCyePpqPBSLZ0sr4p8iSZ9Kpx/fXXx6/B04wYgCboZALofFddRomRM0Kqf/5AianD08cI1Ki8O8/cPTX8L6rw5Tb3l3AyNAPiYYwS0sWehlGicxBIdnFUY2/EqquuGm0xz8DcaaOf+ccg3QbMfIHIiUaUdeUTMAedTACd763LKDEjGiEZQTHbRipkH6l/WUbSxUlzX94PiM9c+LVZUkTt0igI71kpbfUxMxwt93cy1aBAcHWoiyYzk+rn+6V/MaN3W4tp5lCbtt122/iYdrYZ1KE9HEhpZ44wc0fLmTijHdMn6EQ98J1llBh6+DgVJIiszsk1/6WDEUb6uKbff5BQAplJ1ySXCpEjdJSlE26WwYhznnOffQBWSlnqVZgsFo+UQYrwTSiWxXM1dN07spTBj+SP5WEmgGQ/TQBZBwFCPO9TjzUXwsJZs2bdYeWQeoTDRx55ZITMsojFvEVobCJJiJhZw05MNhyd7R8mZpwRENwrrVrykzQ2fhTpiBSyBR4yb5Zl5bLtbJ6/i+MZG2aKlMVPCXkG0aWqMRgYcN9QlNEsztvEWkELZZMxsl7PyH7ayCs1bvBs3pUDSCY08GZLDZzsoIUilrpjPvVmXXnESGZYZU7lCDAJJsA4fuQEk06G7G83eMeoMKOM0Pkqa/rk4YtpiEE1GAbAal4JGAkdA5lEThh8aWAaxdfRzA8YTCt+DKx1fol8tlc3Xc+SmsPg52pmR4MnIYbBaCzapq7P395vtZapaV+Lky7GOJjPvIFVWcU8xHsmQ692wlTPzgvmCyPoUP5NG1iqZW7eEi0SVWx0SJylXSTJRhLSB3UdQKqZCDl7WUcLPtWR0m4iB5P5nzlJjWTASbxBVQycI81h8st3mLWh+AWhEUh1PQcC2on58r3MFmYw+NprQ41JJnMWOaE2ZoQeyIExm2iCxhY5hPU/bWAFL5vKXFgTaWm3QctmJ3EMMiQDMBcYxED5m7bBEMkMpN7gGGRmyLtIv/oxhIE3oIl8j8EvTm9oHZ/Tk1LGBLSS9xVnNlYr0yC0mkWroL39DORkw7FIMwJogmKQSBT76kvo/paTN1iIy+6b1jYPwSk0eLWUJqGyvkT+XxdIM5B+A+S1Gq5hAOqfI8lx9UOdfAkrmmggzMSU+SQgBrDYFMNCZ52TDWi39ycWeUZIaIqS6pZTKMJAdFJt0EgclY3olqxZSewcVUyC3ZP1QCfx+iGmezyfjih/BFOaKna0s4tj6TpT4uMVNFf+DjYGzfd3w5gRpkDdFJ02CGy/byhgBr7ETTfdFNLJkTNLaEaPU2bXFQbhzFk6T+1jDBojizpzkPMdzAQ/grp3xITUvvUEBpzU00rKzTff/uuwnrPYxuALCYWuzJY29QPP98KYESaBsNHAiOsxBLNBU2AUAylEI5lsvEIihXsYhcfvHJvvvoz5+QsGnk/BfzDgVH+Gsv5WP8ZwDiPxH0QOTy0aYPVSMJ9pde9mXpBylIM1SiwUjACaSRVjCqpaPkHhsIk2MApNkd3h8GESUoop0hdwBPe67sg3wQz+zvPgftqGo8rmk34rpAw+U6TehXXgO7HQMEKNZAqSagAtj+PEWbyCSah0DOLcZFCPYsCBumfjDba1leJ+TqpdT0wNbVKbmEWFCWChZIRENt2RVGehNah8TJHhJB8gUQ8iJmA2aA4q3tGgG3DaI4+JfG7MCAsRUsVP1cV6UDsH17P5fK97FgUs0owwCiDXosgI094Wf2fFosgEMGaEMQJjRhgjMGaEMQJjRhgjMGaEMQJjRhgjMGaEMQJjRhgjMGaEMQJjRhijoGn+H2YKiSO3FWDbAAAAAElFTkSuQmCC;" vertex="1" parent="1">
          <mxGeometry x="-1063.5" y="524.56" width="60" height="55.85" as="geometry" />
        </mxCell>
        <mxCell id="1rfu-RK-qWv2y17Ju6D9-40" value="" style="shape=image;verticalLabelPosition=bottom;labelBackgroundColor=default;verticalAlign=top;aspect=fixed;imageAspect=0;image=data:image/png,iVBORw0KGgoAAAANSUhEUgAAAGoAAABrCAYAAACffRcyAAAAAXNSR0IArs4c6QAAAARnQU1BAACxjwv8YQUAAAAJcEhZcwAADsMAAA7DAcdvqGQAABYfSURBVHhe7Z0HsBTFFoYbwYQZwQgqgqAioGLACCiIAoIWCkawRFFRuSiCCQFFUYKiYhkKFcmIiaSIAmLGAJgBFRPmgAFz6ne+v27vW5a99y7vsbszW/tXdS27O9Mzt/8+5/zndM9SyRtcEZHHeqWvRUQcRaJigiJRMUHBxKh///3X/fLLL65SpUquatWqbr31CmsOFgxRn332mbv33ntF0Jlnnum22247kVYoKJhp98orr4ioq666yr3++uvun3/+Kf2mMFAQREHKO++84/78809Z1BdffFEkKor48ccf3cKFCx1eHKLefvtt98cff5R+WxiILVGQEtoPP/zgPv30U1e5cmU13OD333+v7woFBWFRCIlff/01ofjefPNN9/nnnxeJigIghUYsWrZsmfvpp59E1iabbKLXFStWSLIXCmJtUVjMX3/95d544w3FqeD6IOijjz4qEhUFBBKITyg+LOqwww5z++yzj9twww3dW2+9VVCCIvYxili0atUqWdfhhx/ujjzySLfRRhu5559/XoKiUBDrGAUQEj///LNcXp06ddyee+7pNthgA7k+8ikILARREWuLIj598MEHcnv169d3O+20k9txxx3d+uuvr+/fe++9hIuMO1mxtiiKsIsWLXLfffed23///d1WW23lttxyS5GFhVFKCscGC4wrYm1RK1eudF9++aVEA26P2LTFFlu4gw46SFb1wgsviMxCQCyJoqZHbFqwYIH7+uuv9RnVcsihNW7c2FWpUkUW9eSTTyqngtQ4IxbLHMQiZDgDvnTpUvf000+r+vDNN9/IoqpXr+7uuusuqT6ExEsvveSOPfZYt9lmm4k4XOKBBx7oDj744EQs23rrrUt7jwciSRTVBohBtS1fvty9/PLL7tVXX5WS+/3335Xc4tJwc7xHkg8dOtTVq1dPouGTTz5xBxxwgAq04XjIgjgqF5DUsmVLt99++8llEtP4LsqIDFGQQ07EIAeXxSvxB1IoC2FZG2+8sWvatKlkOJZFslvSs6fr07ev23bbbSUakOssHs6YMcPtvvvusi7Injt3rq4FgYE0kuPatWu7tm3bukaNGun47bffXsdFCXklClm9ZMkSLUuwTDF9+nSRATkQQywCuKt27dq5PfbYQxaw8847u6+++spdccUVbv78+W748OGuW7dubvPNNxdR/EkjRoxwV155pWIV/UMI1onrhNznnntOVgo4JpC2zTbbuCZNmkiQ0IJIyTeySlRq11QQEAEff/yxFNnkyZP1GRYAQWHhD4l99NFHu0MOOUTuDGKCWOB7pPecOXNEBIN9xx13uNNPP12V84DHHnvMnXTSSbJGYhZujpzq77//1rW4LgTS+B7rxKLpH+IgjXiHhRH7QnzDTWLVOZf7EJUt2MAkmhHjzV15czneZqi3Qff2x8Kkt4HxLVq08AMHDvQzZ870NnjeYpQ3y/I2sDrfXKMa/7aB9iYe/C677OItf/I20Ktdi7Zs2TJvcUn9jx8/PvE5fQTwb5sc3izbW+Lszd36a665xlt80/1xrk0Kb6R5mwTerM7bBNL1uIdcImdE3XLLLd6CuN911131x++www7+kksu8Y888ogGNRARyKCFPsJr+M4SXH/aaadpIDt37uzffffdxDmhmXV4swZvVuGvvvpqDSyfQ0zoL13jGmZt3tyjnzRpku/Vq5cmBJPKLMqbgPF33323N0tVP7lCzvIou5ZecRuPPvqoYhJKrUOHDm633XZLVA/SuRTOpfGdDaaKrSGRtUFUbEpFtWrV3FFHHSVX98ADD8ithv7DvaQD3xOvcHmdOnVy119/vVzj1KlT5QpxmflAzhPemjVrKqdBoQUCymqQEv4dCOSV3CkksORQkJ8K4oxZr+IZC4vERvrjfXK/5TUAOTVq1JAiTDchcoWcE8UMJx/69ttvlSdl2gj0NP5NsZVkl8CPevvwww81+MngmPvuu8+Zi9V3r732miyR64bSU6YtXDuo0HwgZ6rv1ltvdYMGDdLsRz0xs4MrWlugGpHa5EIMXteuXZ3FO1erVi31h3u68MIL3ZQpU+QCKTNxTdQj17U4tNbXJXEmx6M6ctttt7mTTz55NZWZbeSMKDZHEpOYzQwSuRJ5FAOHHOe1PNAX52GRxCfOJ5bgjrAUEwzurLPOUs6DXGdS8B2kMchIcnIk+km1vnSATNIGJsKmm26ayKW4h5tvvtkdd9xxaV1utpAzorAAqg0MGvGDSsGECRM0CH369BFZuLJ0oB8ag0SsoeJA0koSDNn0RYnIlKX67tGjh8hDqPD5nXfeqYGGzEwHFxc5bdo0VUeoWjRr1kx9E7OOOeaYhHXmDBCVLdjMLbORB9nAK6dCSqc7JrUhnZ944glvyafyMXNByn0OPfRQ5WJNmzZVXkWfderU8RaX/KxZs5gt3iaEt+Q4bb/p2tKlS3379u11rik/pQTkddxDPpBzMUGBlNke9uEB3BOf81lZsHuV+0LBIUYoJ+21116qGpx44olya+xGspxKKq1///6KS6hMXCSujPJRRcDVURDmfnCz3CNulnvk/ozE0iNzi8oDDaX/zjoQAbg7ykcvvvii3BiuBBJYtuB7SkZ8lgqOYfAeeughN2/ePBGE64MUyktmaTqGQW7evLnr2bOnquuUnXC5qDfc1RFHHKHBD5MkGcQ+NsXg8rg/3Otvv/2mY1F93CPXQ6CU5aazBvvjsoZUdzJq1ChvsUhuy/54b7mUN0vw9kcr46dqYVJ7jfNCM0vyXbp00bmm6rwR7S3gexMq3khQf5R+zNLk8ig/mYX4kpISlYHatGkjF5aub5pJelU8cJ007okKisU1lY/o2+Kdrplr5HRaMNttQLSswNIDVsEMJwEOUjfdTAd2r5LZNARBWENavHixGzlypKwRy6LajXu84YYbZBHMfFwk57///vsSCWVdA7eHm6Mgyyox98ZewRYtWuh69IULxI3mGjmPUQAlNnjwYDds2DA1SjVhSb0sQDAPAuAuiTuUnRj0cePGKeFl1faiiy5yF198sVweau3aa69VPGzQoIEUGjGGPioCspzJwz2yhEKVHncHiflCXogiblDeYXCxAlqYpeXNdqoNIY5B9v333++eeuopxZHOnTtLNp9wwgn6NxZKPKPOR//U7ohBCAquhYWFFoDFcG+AtIEEGkviNZfJbTrkhSgGjAVDFBqDT8YfUBZRuE0sh7wJFUdJ6MEHH1SQb9WqlSoFLLFjTVgW60eIkttvv13WxWIgFoGQgVgIwkqTyYIo3B6TgO+4Hm4UlxmKwPlCXojCz+NOSHT79u3rJk6cmNhsUh5RuDpIYl/52LFjNYDEEspFWBkDzaBjqb1799YrFnTTTTdpoyaVCgaevkC6a3E+ZJNEX3755bpHXCh7ByExX8gpUaH6QJyZPXu2BoNG/sNsTx24MNP5PBRUAVKbSgcV+LPPPltL5lQecGkcS8OCLr30Uh2P5WKBxBkqI/TDfYQWrkvlgVgGKSxtPPvssxIrSHWKwfTP38BxuUZO8yiWJNg4wg4hYgADCBkUVNu3b+9at26tAQ5xAvA9ie7jjz+uIiuE8hmDxlK7yWn1GwhKbnXr1tWxVNhRiJCCS2NZHgsEHAc4juvSF4kyCTWTg70Z3BfXYnsAbpZcir5yCrvBrMEGZY1mSau3AfAjRoxQPkR+w9I7uYmpstWONTLUzAL8ZZddplzGhIE3F+Y7dOjgzRoTK7epjfN4NevzXbt21eqyKUXlbYMGDVJ+RZ6Veg73wD1SbjJxohKSuT6VuViy53r5QM5jFDObGJCcN/FvGu4rGcEyCOTEFWY8lsQzUOeee65r2LBhmYVR+9vUKC3hApHzyG6uwUYW+gvWFMB74hD3iMUHy+YzYiOf5bQQm4S8iAnAvjyAS0E+lwdyLBQYA81CIHGJRDQ5uENKKqjV4TYpHbG1DIkPCcQbXFpyfAoILo3jIAdBgkRPdsf5QFaJChaRrhGLEBQkleWpKSyIgSVR5d/M6GB5wWrCvwF9h1cGnQFGpnMNzue9uTmlBMnnB4T3obDLljZ21ZZ3j7lA3iyKMhDF04qsCYtAWjOwKC7UHnKcFWOCPQMLAanWwXvUGd+NHz9eGzQhGTeK8sNCU0lKBufiLnmch9Qhue98IG9EgUxkLu4uuCnyIAaMz9gJi2BlwIO7AhATwLJ5r169VFYiJqEYcWm4QFICLAuURQL9Qm6+SQJ5JSoTkByTN1GRIC6NHj1aO2gZPNwS1sWyB5YSSMJSqEa0adPGTZo0Sd/hutg9S3mJPnkAjn7D8eVZVxQQaaKY8cQnrIbkFjfE4LNngRIRVgJJxx9/vEijNISAYH8Gi4lYLO+7d++uZ6mIi1Qy+AyrzKRAGxnYTMobQv5SVrNYot2qliT7vffe20+bNk15DPmPuUM/ZMgQ36BBA1+tWjXlSWxHHjBggHa2su7F+hTbmc3lqT/Os+RXa021a9f2Dz/88GrXS0by56ktH4g0USTG1113nRJj9nybO1NSClm8kpzOnz9f+9br1aunZLZ69eoij/0OzzzzTOJ4Elz6NFHiW7VqJSL79OmzWtKbjPBZupYPRNr1EVtCXQ7FF9QXLdQG9913Xy3wsdaEgmRRkthDPCMhBvZ3JkQBSSufs6xPLQ+hEgfklagw6GU1gj4FXGINBdWg+miQh2Rnixj7MIg5EItkp17HCi/KkPPD8WYNIoxaHiBWcQ5EpiJcJ13LByJrUQwiwZ4lDRbuKKSSezHYDC5Vd2Q3ZEAo1Qc2eCI0KPyypsRGTPb4UZQNa1CoP4QJ5JNPQTZ9Rh2RJSokuqwf4fIo5TCgqEB2CVE1gERIYVWX9Sl2JbHKC0GoO0pASHI2YrLSi7XRB+fQeM8CZhyIyukyx9qAvAnpTQHVFJ+2EPNgAHkR8huXRsGVfedYDbEpJL4QywPYlIs4DuuEMCwKwrE2Fh1Zo6IPSkSUmfLl1jJBZIlCRPAcFVbDIy8IhVGjRokoLIA9F1TQKeoy8KnATbJBBZdI8ov4YH8f7hRycJc8/0ulAisM8S+ysFkWORgRftGiRb5Zs2Z6vNNUnTcLUT7FU4Tnn3++Hs+0uCP5na4ly27WrVq3bq09ehajvBGo/tivZ7FPj61yXJQROaIYMBJUkltzU0pkyY8gqUmTJn7w4MF++fLliVwqk0bibC7QmxJU4gxB5up8jRo1tJg4ceLEyBMVKTFh9yO3RtGUXAhBQbwhh8KNEYvOOeec1eJRJiBWIR7MEvW76ORYCA1yLwQFBVoUYJQROdUHUQwg6i4s1pFDIRrYqMm/ITRThLjDOZBDPCopKZFER2QwGYhh1A259tr0nUtEjigGlkBPIZZZzgBiXVQRmPnkQ1hTpoGfgQ+DDzH8rgTyHlVJP4gOhAbvOS6qZEWKqDD4lHWY5azkMvMhbsyYMXqKkE2XyHQGNFPQL0RA0IABA7SPkPfsnuUa9I8FgyJRGYJZT+5DY6/Ceeedp0asYn8dz8+S0LLVzIRC6VlrggGHIBrboEmQ2Ug5a9YsSXH6JGYxEUgF6C+Qn6m15hQ2eyIFc3V+2LBhejSnXbt2ehRmxYoV+hEO5HrVqlUls9nKNXXqVG0zS1V5SHOUI2qP6jpby6iqW8yTHB85cqS2f1nS6y0PU59GnLaJcb4RVno30UHkLIoYhAWg/HBLKD4UG2Wifv36KcFl5hOz2BhDlYIkNlgDwCJQc/yGH1vFqG4Qh8444wz9wAevWBJb1KhUcE3iIIXdyKKUsEiA2cxmTCyHHMektJJaZjjfYSFLlizxQ4cO9Y0aNVIyzDoU1kDSyvoUxy1evNh37NjR16pVS2tZpva0yGgCJbGBkuOw3rARtHnz5kqMo2pRkSKKxb3Zs2fLTdWvX9+bcNDA0XBnvDLQJia0OstD1rgzFgFJZCdPnqxEmUoG5EBA27Zttcq7cuXKBAG80iCe32KC0IYNG6624hs1RIooLGLChAl6JJMn3BcuXKhBC2TRwkBy7IIFC3zv3r0Vs6g0UGWoW7eu3tP4USyebscqAeeH19AvW5chlsnBj1uFY6OGSMUokk/iDZVstj2zCbIssK7E6i7PQvGAASu35F0sDCK9eV6KHUrszSNxNmISai68kkeRQPPDV+RrVNR5jSIiRRQLgshkKghUzKmK22Qq/XZNMKgsXyAsqGaw9RmikfLkSogIRElYhqcvCAvgPdXzsNbF8jwiJIqIDFEMFMqLPIeB5bEXqgYgkMUx5q406FQu2FyJquNhNayRf7Nqg2WRFPM9D7SxERNwHufTX7AqJgUKEPDzPxU9S5w32E1HAgiJ6dOnSwCg5PiFFmIIIiI03iMA5syZ41u2bKk4xCM4/JucCsFAjJkxY4aq7vx5VMqpvJvVlV7pvzDi1efcuXOlIrnumDFjEsowSogMUeb2JJUZ3MaNG+sXKANRvNJstvvhw4dLMJCkIiC6d++eEAwMPOAcc6G+W7du+g0LCEUZkjSvWrVKkwKE40kJLE9Tfz169FDiGzVEhiiLDf6CCy7Qz5hiIbxPJgoyqCIw8FgdVgKxSHUGPpkkLIL3vI4ePVrkQwJSngVEflgEcAzN4pp+NITjTjnlFG8Jd6K/qCASMcqIkFLjBzyow/FMLrEDUDC1/EY/8cZSOlvB+DERtjCzNoVqI6bZ36IYRuxBzfGe1y5dumg5n718fMajPvwQycyZMyU0+IxrsdTPudwHogLwXbqWF9iF1ynCLM2kBWARbDXGmmrWrKltzFgGlQTyJKyoSpUqqv8ZObIIzg8uMZNGba9///7a/ozrpPLRr18/uUgjx48bN06fUQskxnH9cI3ke6blA+uUqNQ/qKIWziF5hRzmDUkrpJHMdurUSWKApXh+4vqee+7R87zh/FQyKmrEsSlTpqg/9k7gQi0X8/PmzdP2Z1wuiS9xkGMhKxCW3PKBvLo+u77cnv3xyn9wYTYw+qUwEll+eQWJzo8asiOWJ+DJrTj+fwGJNMkx/2MBRV6KvSS5bOTErXJ98ig2ZVLEjRLW6S9gJnfFYPK+ou45jrjA1i+SV2JU+DlTfoCKJfhTTz1VW7wAn68LQAg/0XPjjTcqJpFsE6sgi58o4Ncy2ZIGKrpmJg/k/b/IClEMPksVrJpiIQT1ZKQSSJJJshoeCKDkQ4moY8eOeh4KS8DyAhi45La24BwIgRwmx9ixYxP7M7gvyk4shbBHPUw4EK6V/EpFBKHCD2llE1n5TVlmKHvCUVa4EGZcIIsBhzxagMWDxN7wANaiUGJUGZj9kAWSieH45PeZgvO4D9ajsCImFO8hL7hVrsc9cGz4DIR7DK9MSDbLDBkyJEF2NpAVorAMfj7NArT+IEhiQPl3IIpX3oeB5n068H06MsJt/6+3T5/cF9dNvkZqf6nXTr0u51McZnsAheFsIWu/0kyQJihTgys0JA8ZuRh1SdxlNpE1oopYt4hM9byI8lEkKiYoEhUTFImKCYpExQRFomKCIlExQZGomKBIVExQJComKBIVExSJigmKRMUERaJigiJRMUGRqJigSFRMUCQqJigSFQs49x/77KtcvHOaFwAAAABJRU5ErkJggg==;" vertex="1" parent="1">
          <mxGeometry x="-1003.5" y="499.96" width="63" height="63.59" as="geometry" />
        </mxCell>
        <mxCell id="1rfu-RK-qWv2y17Ju6D9-41" value="" style="shape=image;verticalLabelPosition=bottom;labelBackgroundColor=default;verticalAlign=top;aspect=fixed;imageAspect=0;image=data:image/png,iVBORw0KGgoAAAANSUhEUgAAAHcAAABWCAYAAAD1yQkZAAAAAXNSR0IArs4c6QAAAARnQU1BAACxjwv8YQUAAAAJcEhZcwAADsMAAA7DAcdvqGQAABjbSURBVHhe7d0J9G1THQfwbUqDRIMylDmJBpk1eFSohFCkLJmSijJFI9YiNEmKZi0hSoX3UL1exjKmvEIhQs9cpLnUaX9+/fdd51333v+9/3uu3vv7f9fa69z/GfbZZ//2b/6d81+gykhTmJRYcGw7hUmIKeJOYkwRdxJjSud2wD//+c/00EMPpXvuuSfdfffd6Xe/+126884701//+tc4Bk94whPSU57ylLTccsulZZddNj396U9PSy+9dHryk58cx+cFTBG3hj/84Q/p+uuvT1dccUWaPn16uv/++9Pf/va39Pe//z394x//SGWqbBdYYIH0xCc+MbaLLrpoEPUlL3lJevWrX51e9KIXpeWXXz4WwP8TU8TNePDBB9NPfvKTdMIJJ6TZs2env/zlL+mPf/xj+s9//hOEfPazn52e85znpCWXXDK41X4L4d57702/+MUv4pwFF1wwPe5xj4vjz3zmM9Pmm2+e3vjGN6bnPe95sQj+H3hMExcBL7vssiCqrb//9a9/pWc84xnpVa96Vdp4442DqMsss0wQdqGFFkoLL7xwEJN4xs0IfN999wXH/+AHP0g//vGPW9z81Kc+NW2zzTbpne98Z1p55ZXj2kcViPtYxG233Vbttdde1eKLL14tssgiFniVxWp13HHHVddcc02ViVZlHVtlYlf//ve/q8ytreZv7eGHH64ygassuqs///nP1R133FHNmjWr2nPPPasllliiysSssriupk2bVp1xxhlVlhBjd3908Jgk7s9//vNq2223rZ72tKdVmSOrF7/4xdWxxx4bBEdMBJwICuH/9Kc/VZdeemncw6LJIrvK+rf6wAc+UGUjbezs0WO+Fcu///3vQ09mQoXh0y9YwVdddVW69dZb4+/Xve516bDDDkvPf/7z4+9hYCrLdBLN7kVUf+ITn0iZq8Mwe9Ob3pQykUPcjxyIOz8Bd2RrtsrWaHCFlnXhuA33ODdPerRs/FTvfve7q+zqjPU8HHBs1sOxLSicTMxvueWW1bOe9awQ03vvvXf129/+dsISol/Md5x77bXXph122CHlyQkr9PGPf3x66UtfGsZON+RJTLfffnu67rrr4hpuy7777pt22WWXsG6HBf/3oosuSmeffXZ6/etfH+4Qy7lMLS6+5ZZb0iGHHJKuvPLKMNx23XXX9J73vCf85F5jHwqIO7+APnzXu95VLbbYYqEvjz/++CqL59Bx3VqeyOD0POlh4Ky00krV5z73uTCAmgBuvfDCC6vs20b/2223XZXVRHBl4czy++abb47jxsCQy+qgypZ2nDMKzFfEveGGG6q11lorxCvjBOF6wYQykvbZZ58qc2yVXZrqoIMOqrIuHDtjOBC5N910U5X1aIj5rEer7Fa1jLJCXCh//+pXv6qye1Rl37nK7lJ1+umnV1kXj53VLOYr4mYDqlpjjTWCuGeddVa4Ib2Ac3FpFt0x8bvtttvQ1mohknbXXXdV+++/f+jRFVZYodpoo42q2bNnx7G67i2wH7IvXL3sZS8LTt9ss82qG2+8seP5w2LSJg7yREZM+Lvf/W7KExeRokyItNRSS42dMXHkeQtL+JRTTkl58aSsJsJ6zy5VykSOc+jZdpR96667bnrb294WseiZM2emb3/72xEVaxqTlrjcjgsuuCD98Ic/jEnMui6tuuqqY0cnDgR6+OGH049+9KP0kY98JAw6oUfJg6233roVT+5E3AKRKi4YIotknXzyyWFwWZBNYlISt3DtN7/5zZj8DTbYIL3hDW8IC3ZY4NpsGKVjjz02iKR/IcvVV189ONe+XoQtIEGEJS28rIfT9773vVbGqSk0SlyTOqpmUolXMHn+Bsfsx02l4Vqx4mzFpuxbRuBAvHgQ6L9Ts2iOPvroCJ5wqxDEotlqq61StuDHru4OfRgzrLPOOmnttdcObj/zzDMjveh4U2jMzzWhP/vZz1I2Ysb2NAscIWOT3Z+YYFEeHInQiOsxNH8by2mnnRZ+5yte8Yr01a9+NVJw/aDXdPBPP/ShD0V/9Cy9a0vcn3TSSaHXe6H0Xb/HeeedFxzsmc4444y07bbbNub3NkZcEy+MJ7gwCtBr2TeNScCddFwJQBTORljN37I1uGq//fZLBx98cFpkkUXi3PHQiQAgA0Q37r333ulJT3pSiGPjgOx7B9Ht64VOfc+ZMyfttNNO6fLLLw+D74gjjuh7rOOhMbH8m9/8JkRV9vuCCGXCm2q4kxiUOsMhiy+++FzHC/zGYRaDc7J7MqHJskjqEMf++Mc/Hr/dP7tk8YxLLLFEGEcMo4lABYcxWhj0rjxxU2iMc7kcBxxwQATxP/jBD4aB0ZR4KUMsXFn+tm0nAuOG/iKSiWJij3vSft54KPdwPwv2ve99b1jea665Zsr+cjr11FPDEGKoHXfccbGQ+rlH+3S7hiv0jne8I+ZOeJIV3QjyzRrBd77znWrFFVc08uqiiy6KXOeokCc8nH73sNXKPtGnPfbYI6I/Qo4CGY4NitLnnXfeWe28884R9Jd8+NrXvlZlfR4pvMx1ESS59dZbW00euBf0WW9w7bXXVtlqjrnLhI59TWC+dIWsdo3oLQ3y84T4ZnUSc1yTidQx6QcYh0ceeWT4tIy0vfbaK8pnBC+oCO30008PiVXaJz/5yeD0QYDri5Rr0iCdL4lbJr8O+zRiWdmLyVLLVCd8v7BA9DNjxozwldVYvfKVr0zve9/7YrHITGWui/0MIW6XpsRm1qxZUSk5COhrBqIxsxeawnzNuVpB4WRhwF//+tcxUTiijrIAxoN+uHVf+cpXovpxtdVWSwcddFAQAHH5uXQwS/ztb397y5giLbheq6yySvzdCfWxl/Ez+NRo+dvCbAojJ24Rk52aFa42mJtRB65BJG5Pt8aF0PShL64Pg4Qrxlo3UXzjThiPwMSqCNRdd90VVjH3hIhHdIQQyuQSZd2esp0R9xYbFpTYfffdI3AyCOpRLc8+iJTphcatZeUrEtclgW7/xz72sbGzHglRnR133DHKQHGAh3O9QIF463gok1K2JtnC0M+nP/3p6LsTyvnteOCBB9KBBx6YLrnkktCzfFBJfURFBJa3KcPRapv5txaX/V/4whfS+uuv39Kf/cI9jZNuP/TQQ6PPRoC4TaCTtaypMLSvW8uTVmXCRoIbMnGqww8/vFWS0umaXi0TLSxlhW+K3tqt09I6QQrxpJNOqrK7U2VftsriOH5vvPHG0aT0FL55LlWOzsl+d5x3/vnnRxXkoDCW22+/vVp11VVj7F/60pfGjgyPkXKurlXvX3PNNWNnzQ3HcRCfeNq0acEZRCoxqKjshS98YXrta18bdcN1lCG3b0FUylgYPcTmpz71qbEjc6MT5+JUnMMCNg7cT60ohVGY7jkYWCuttFLafvvt43wcza9XnzyRxISxCwB5fmomu1ohKRpB7rwRdOLcPDlRhpInqmerJ935pQcffHD0o2Lh6quvDm7u1Dr1RQJkqza4QB1yFpmP4FqtE+xXKcGPzcZUtM9+9rPVUkstVWXLu3rNa14TJTtvfetbY19elOH3Fo7t1u94MF8klWf+/ve/P7Z3eIzUoMKJwmksz/aGC7gRYtJ187/OUXQXC7T4lO1NjLe9sZCFB/Ozhc/IYOsX7i0JgAvpQPrWez9sAW6PyNE3vvGNcHdwKcmgWM8Y3U8bFK7xtgKJ43lZ5E1hpMQl0vLKT1tsscUjWuaCSG6rFGR5mrwmYIJKUp7RI/dax3gEYBEjpua37BLxzGA666yzInlg0RKd3KBC2My1cf0gBHZuljYR1sySKConifymMFLi4gRujoH3anRXnWPrvwcFgvBLBeMtGFxWXK1+J77c/6c//WnYD1wb0oUPaqxcHvYFSVH6nMiYXcutI8lw7kSTHN0wUuKa6OJWdGuq/wULmqgfLiCySQf1xBdffPFc4UBjGg/ZXohrGU/cKovES10WIskgUSAbVAfiDkpg53N/5IX93nDDDfsaX78YKXFBSmu99dbr2ui0epXERCYJMYpYBCIVFyAEbstuSnBvv/26jtVvYVh0rtUQVIiR9dwEBFxOPPHEkAp0t4DJfEXcX/7yl7HSu7Xs1wX31okzCHCYFJ8+6HigE7lRO++8c0StcKD0XCHueEQmerP1H8EF5yKwffTvC17wgrGzhoPFki3jMDgtJkYcMd8ostxvBN1SftJv9nVr+cGqbFi1UmVZ9FXvf//745jq/Lw4Yn8ncD04/YIWmQhVtr5b9+WeZKJHZX+WDOFe9Zv+ywulyosjghRrr712vCGgr7x44vrx2ngwRm8aervQuL1HdMstt/R17SAYOeeyigUpujXhuk033XSu1Fwe19iv7nAOTn3uc58bYp0445pwrYBhIpDy5je/OTiQaJblYfn2AsPGuThKn/SsMh3P0YTING7ShJ1BLHtvSQ0zF2g8iTIwULgJ9ErWZ6OkZ8NRBQIRhxxySF+cW5D1VpUNnkimb7XVVq039wRQZs6cWeUFEIl14cNswMT+bsBR2RaItwhx7KGHHhoFAPXnaefU9tYLns94hRuNN+vaas6cOeNeNxGMnHNZgqzNesNJpTmeJ27s7P8hj2vs1yPhmJYno9X23HPP4FpgfQpdytTgNEabSklVilKB0nWCBu33BJLA9TgL52622WZR/kKquA+Ubb8o49VIgXPPPTfsDBKEj8zgFBBxvGmMlLgGzPEn1urNq4y2kt8yIIwXBobzTV79Qf2utzrKPuJM5WCJTws0fP7zn4+FI2KleoJxRVTzKaXzfKikXUQTyQgrya8vC8bkM3j0W+7vfr0alLGVJlqmnsvC49u6VzEAR4WRcy7XQVWfAvF6ExzQvHmuKEw0aVDUJ1MF/5e//OVW3tXvr3/960Fgx0SUhBPpOBEh5TCqJ1jbJhkBcJJ8rACFSkcWN8LWUe43CCwYBXuSGFwsNoLkfBM6vBcWOkyxcQPgaiAUsbvrrrvGZwFMBEOB2Hn5y18+l3/LkLJl9AhDSnp7WCsa0ZWS+pQBDkKcbiiTbctl4arIRPFvRZhMIv9REEJmh0sjTyxrdNttt8U1jhG97u9vsWkc223y+yWwZ3EvrhhR7H7CmMKW3B5qwng9o/tPZOH0RF6xjaCTQZVFbDQGU3srWZzMOXNVMDJevEOrHwZVFp+tfuqtXKO5V7k+Ey+MqLxowg1iuEyfPj32y1LJ+nz4wx8ON2S55Zar8qKrjjzyyHB/sg0QxlZ97P00qP+dVUyVRW/MyVve8pbI+BjLBhtsUGWVEQZflg5hBPp0Q16IMf6mMfIPI8lVWrk4qB10HrHHFRLsbxeB2ZIO10ZwfRDQrWqZBDZIks985jNxr/KREWG+knc2PiJclop0cQx34eb28XRDnsdojDSGnPt6NfPSSy8N3e5lL9xJ79P/9HdeBHHNKDFy4nqH5qMf/WjHl6Tyag3R50svLFr6sACBiC3vBk0kclPeOjCRJviYY44JQ0m/iOYbGRaN48Qhvc/YEjWiIiwOCQhqxTnEdV0FIEyx9OlUqUWqST9XX311iH2ilurx/s+WW24ZhXNCoxOxLyaCkVZimFzWISuxE8rk49wsniLgT0+pCz7qqKNi0hBjIkAA19L37oNT7NPcE1FY6I5pCO5+CG5K6F1EVgXifBxtC7YW5o033hhFdCQMjqVfWcJi0GuttVa8qIZj5YFLosH9EVf1hqqLLLaj+oOkMI4mMXLiWtFEXzvqE20C66U0JkjQ3oRZ6YOg9FtaQRGxiGxciKM5xz7EZmwZL4khY4UzC7yj5Drn68s1jDZiHywii0EiBGElLkTg6uqojGnSEBd6VUMgLrHLDanDZJv8icAEeixbKI843qM6no29KJclWoluwQxEttBs9UnCCIoQu8S1ZnESu5LtxD//ul1nl/FMGuLyKRk03WBivCUnK1InMM7QcLEJ7oXyCBYKY0ifdeiHDqbbi563D8q1tuW3Y4wgxEMI4hvRcbZ+lLKC8ZaSH+eSMqUPhHUvdoQUoa1+EVg/k4K4PqTFKOoG4sybcs7hWxbgEsYY578fA0Q/JlgfXHdc5NFYydKO+rrhhhtCD9unz/qj138jggWi/EfCoL7o5F+94UeyIJRn1BCy9GG/35pxbbLJJpEc8NahcycNcVmf/u4G3CYS5LMDJqLAx0qEJlm6Jo6hpb8i2hCgPnRiskycxPcXv/jF+BuX+eIMI829LBqE7bVg9Iu4LGUFcSWJzrXhziCsMtRCxLItqO/XjwXn7XnBHX8/WsQduSvkm8W+IN4NJgDH1QlLDJpIn/NjtXobgY9qwuqtDiLRNSSAxcTYofuIUZzrHgrQGDuuLWK5EyxQnM6wYhFziYzPgqOHPY/a6mLdl7EUourbQhLaPOecc2KBkxrG0q4yRonGiOvBCuq/iTRv3HeD43RS3Zc1OcWYQlQftjbBBe2EheIyqbbEWSbdOPwmhhk4iEIFjAdE/da3vtWSGAX0LggZkg5gLIWotsZeJAwpYYG6fxHb9bkZNUbOuQL0vQwqDyu15r0enFBQJkxpqtUvLtwLFokkBX+yLIwCkyuuy9824e1WbDsk0RHVeZ1cMcGKk08+OY4bo4agRVX47RjOxekW1jDW/4SRBzNh5IdptaxzI7mdiVJlH7H1/UOJd/s6NbfXsrUccd3SV56EKlvZ1YYbbhjfVPQRz6z/4nuJ4sGaz/35W9w267QqG1CxP7sk1b777tu6v0/4HXjgga0PWmexOG7L+js+3Scu7Q2D0pdSG+PNUiLOywvpEdeWVo7lRRf3znq19c1J8fT99tsv3mcaZWx55MTN+itemurWvFjlRSgPV+/PBMyYMSOqIjIXtAiDkF7tMHmIgPjuaZ+WDZXWt4w1/RqDj3simL5sy8JqbwiHGJtuumkkQLLh1eorG0IR+FfZ0enaTk0yxddZ1UgVAj5axB3KWq5fSnRKmDNGRHfKq4zOGe8WmTgddZHrVGsQb+OBBcpoygsg9He9P/2oghAm7BcsXP0RsXVkIoQFPt4zFRhLCWiUMbHUHw1r2SAnjLKiNV9RLZyLGwvnTsY2LOZbzmWMcPJZplZrJ7Bs+ZDdVmqewFbYbzwYg/PLWIoUKK3sAwZbqZSsw7Xuxxpunw6RqnoQA3Cv83DgIC+aFXD1GJpiA/zm+YZzGT5FD3Zrzps99l3i9mYFZ38yvkdseN2ae9C7dLBEeLlnp3NLmzZtWpVdk0fckzGnVprh1n5N9pujlrp+vjH6RrJigvbz+21qqbMlHl9+HxXnNrxU/gd6z0rs1nAC3dwJdKdkt/RZp2tLcw9RKVsvanGVSAN5407naziDDm8HfSyGDe3XcMW4MXXkeQv3StCk/fx+mkyRsehnlBhaLGuZY1pi2USpahQdsr8TGBmS4XzSTpBXVYEhyjQe3KOIM2MpIhPa729McqsWRTv4rprFVYcwaicVguCCM+2viPYDYtkrMCJpCvfEwhF9nhLLUERVcYV0WXeFJmMbFvrgezOofDPk3nvvnTfFcu6jte30ezKiPN9EG5EuApaJHDHobhJuWAxF3DJYyAZNS6woVTHwyYo6oQZtwAugehCZ5zAq4g6tcxERUWVeOORedFbY7RUPbkSvgQ/yUGVyXKMNMez/K3DsrFmzorbMay2+0WWu2CFN69yhiAuIa7KtRol5lRd8P9kXCfNOA7ZP9KcE0w3BvnoUB8rQbJ1blwb1Y01jkEU3KBicjE9+tYyXtxCU1I6Cg4cmbv1ypaHyqfKXao7aRbMwnAcQThTeK0lzq5nu4SIR784phEd0rWRpHCP2292TpsGiNiaLdiIqRjZJ0IT17RkLPAsuladW8anEqLhGTaMx4pZVJ0Ll49AqKDxUIY5Etdc7PHApJEMgRKN7nGMyrWC/EVazD1FFj1xvxatEVLLi2CjAF5Zctwi9/6v4rUTb+pkuBJXqE4O2iNV1lXSmeeKX+4oPN6u4ZWX+mkSjnGuA/kYwE2RrH2KpaFCPZKKE3jxYN+4rD1q2+uTzKlXxDpEid/9xpJ7/bRLG6tvK/F7fc/SWgEUH/UyXBIXrlPpI6vvoi7AneCaci6jmpY7yvE1hKFnQ/qB0rQpDW4QF5+BAhCSqcIC/HSfuOjXHy+86d/sb/BYIwCGjaO5Xnq3cvzT37tWcb+tcv+vPVOaBFFODZa6cV9DPwhkEQ1vLBcKJKgMNuhMUb7MOQZkKcQVEqxVbJsBvC8Cq1n+ZNIYIUW9iFH+PWizjWmLZO0y9khztMH7qSPjU2whEMDXCgOwEn3VQRlSON8m9jRFXiQuTXv1RN4gDIyBi2SJOyZnah8D2afq2ynGo1e2Ycx0z6a4fFdyb2Cy63r0HBcPQeIuE6QYVnsK2JRQ7TxKXdSxeatsJnW6DqEWXlQm0zwM6X0NEx4YY5jwNX6VVkWkxwDxJXOA24LYp9A/uYV29zLPEncLwaJK4zXvOU5hnMBTnTmHexhTnTmJMEXcSY4q4kxhTxJ20SOm/uR5Dy/RkSkQAAAAASUVORK5CYII=;" vertex="1" parent="1">
          <mxGeometry x="-1003.5" y="559.96" width="69.19" height="50" as="geometry" />
        </mxCell>
        <mxCell id="1rfu-RK-qWv2y17Ju6D9-42" value="" style="endArrow=classic;html=1;rounded=0;entryX=0;entryY=0.5;entryDx=0;entryDy=0;entryPerimeter=0;" edge="1" parent="1" target="1rfu-RK-qWv2y17Ju6D9-37">
          <mxGeometry width="50" height="50" relative="1" as="geometry">
            <mxPoint x="-932" y="552.96" as="sourcePoint" />
            <mxPoint x="-962" y="429.96" as="targetPoint" />
          </mxGeometry>
        </mxCell>
        <mxCell id="1rfu-RK-qWv2y17Ju6D9-49" value="" style="shape=image;verticalLabelPosition=bottom;labelBackgroundColor=default;verticalAlign=top;aspect=fixed;imageAspect=0;image=data:image/png,iVBORw0KGgoAAAANSUhEUgAAAP8AAADFCAMAAACsN9QzAAAAkFBMVEX////tHCTsAADsAA/tGCD+7u/5wcPuLDPtFR7sAAntERvsABHtDRj6y8z85OT0jY/+9fXvNz71mpz829z3r7H709T96+z0hIfwTFHuMDfyam7/+fr3qKr95ufzgYT72NnvREn1lZfxXWH2oaP3ra/ydnnwWFz4urvuIivxZmruLTTuNjzze37wW1/vQEX1kJPD2WgMAAAHtUlEQVR4nO2baXeqOhSGJURlUnHEeahVsbb2//+7K0N2EsDTnnMPxnv7Ph+6VkmA7GRnT8FGAwAAAAAAAAAAAAAAAAAAAAAAAAAAAAAAAAAAAAAAAAAAAAAAAAAAAACA/z9hV7AyPRQjDJjgxfRQjDAPrAx7aXooRoh5Lj/rmB6KCUKWi2+5oemxmKAj5HeudTx+9bn/bNbx4L/FwM7lDw51PH7eWW5qefDfgsyfW4f563R2w2j5zI41IPO3qeHp49YgGu6fWP6m2P48qMX8nVuN12fW/5rNX6P5/h4tannyd5iMonPf8uLLvNeqtsIDX5i/ddX9p+i8vcRBEE/n69Hwi7etRutj24unh0EdW+n3aR2ZG3gO59wJfMamI7Vx7LRvvAnnb/H4LbkQyyB48jljrp/enzwhcFkc6VNwiNsZ3m1yx9PkbWlXm120dxnh9MY8S8VhlmLiB24ql2xO/+XuIG8P35nNLR3us7lqJeJsbrg3azTW2tscdv1KW+olfGHF0d/Gz7Zkil+8UrMaBHccv7Ld51K3J8J23EKHqVvo6BkNpzdWUBx5NipfLEtpcTPsbH2XFbOX4TCawpaQ3x6d7VJHbnACOneHz93MDg5ZZbPTT1tPWivXHuZNxVt6QkWcc5WycMeU4R8zbV87jvKvl/m5V1a5/e1e0jiR4jsuc3nsMl92ZUKFjrSFnOyv5znqBPhVLuUBNBXxA+bNptvYlerOUiMYzfoJdNVJ/+3HraTxhTaP2x+l6j7c+SSavcvfoyuJbV/P563vKnPKJkbk39K6eCwap0o4GdACck/2XFH0Zyn3y73BdnRxchETEMyL3ZKL9iDdWOHSljpgDxoG2NO4/GmXrg5pAtiJLo7cgkwpkdjNrjr+oejrTAs3Jz2PFF6tYpoAZ1aXjL+gSRroawW9kZgWT15+p9rXXul54ZXDF5vFO2b/r6WLsdXpG8p5YQZKKrR6zkVvENaOc7LLV7FUbCz7TaggutfuFxGD0JUZ7XTpEvQRaI99EE2ydKyrt0RBsSGkFWSKqwo7An31xGT5qY9oLGibcVvPLbqypPb4MHgvtC8fpuRVtJABGJP5i79+MEnlvuo35x5FgTTD3pefUzOk0qVyJqW6VOlZkvn7OkXvzgp7ZS9CvvLkUWzt70rPqRlaJWfaaelQqkur8s3a16LZeT0ysuq5UZM3lxaZzOrj5SclvwXqBcgq0aj6VeaPWDTHp9Hu8NEPGHNltiRCBUsouVuqLKwr3cpDOFTnPRpiVE25g0uR+ng3tW5z5vpJAUG7O98rE6lopUFI1Xi4/etrEXg1Qtvv1r4WgzbzvTspVG7+ZPJXDvKOpFcPTwGr0zodYf9l6f9de8ZSC+Iz5GzkdeKd2E4Ve+eNXPCjiyDNb8mfj+osNrWmpuG2kDxzJ3DZ4UoyZd2m4mZW2v4yfWQPEFlD5iSOfRcxYnnyqdQrwzZZEO7ZNwsQxNPotdnwCtGvxe/KeKq5pvwLNlSSWofNu2R95TLZivm7kvi2/7IcdyeZtyNb4X+m/5Of5bw0CLLBQVS7wAVo/b/heVtVFrwn/Cdnn2oARTE9SysEMvnTMueUhTxSav1rgX6TVWGZfsVnRelfcYn62GWokGmPTP7s4nMpqqxwq3VDSUnBpFfxQeZPFgT2d06DSa94nlRui+GghMyKVlR4EMIsOdtCw6CXEwmfXJUoTu9EhLTc+byEgfSHBf+3k8tvoABMqUch+x0xP0esl7RgSp1WZq5a6U5ui1LyV9S0jfRAJqo/MqY5V4+KhnuSFozklx/D6KXLuSwUZLHDUql9MfV4e6IohokzMFl7YIrz2SjhmwhXerJKQ+4/rDZ/S1nq8LK5mitphtOXFmAsK+D5UcKjobjMcrf5zgw/ZUTnUlVEisDbo+Gm0xotFP1XQ5edVHYR/fTVENFr5xt9tVZCRwO1r4SWHKzD2udo3/sI5OGU06aOygEgd5P8ONmusqYX9DOhwtNV0fXcrRbCbM4uh/3gsGXKMRArlp8exVFRTe4FtprIcSUhKWbKaRTwKSW4zd7HYb71mJpR5q6SokGRF/HbewK1o380JH6j6d9JXC2t9C8tpRAtMVcTdWFvs5cn/0VnR8mfN99WJtzBpXpwj2Bz7/CTaxZ5VUgVM4fZq0gguX0thAovMnNsVWWcthnblzP0K4tAtqfHI5F+fpdXMY/Fg3zLY2MKf3K3SAenN31YlybAYV8Hn7USzllxBrjtlr5DOqhb2/vIr861DX8TZruStiLz9UqBf5HMY+GGmfkPiTdzmwX53k3rF2+7iu+fTtu0wBfcsBmVsU595ue3ejbbJiZjTkXUNCw46UeBrTbLbR/dYJ7w9D7lyYi92fGwvPdBVvfUO5zn88N68KpEcePoZvZvWMd95i+olpBVA6Jigt96vyb93dnLoFt6hzkWYRgu/iwHTW69e3hJWZKSOabv+qNX/feQUfIzrfbDoGSKxz9lxTUo+SOf8bMgb2jm+xbjWObqm8+A8ouhp/5lS11Q8sdNFLjMI0tsBuq7T4BM/n7mDybr/cXQ09OVX5T8yOhnQb8X/5HBLwAAAAAAAAAAAAAAAAAAAAAAAAAAAAAAAAAAAAAAAAAAAAAAAAAAAAD4IfwDxpxmW/4zpQsAAAAASUVORK5CYII=;" vertex="1" parent="1">
          <mxGeometry x="-412" y="464.96" width="90.61" height="70" as="geometry" />
        </mxCell>
        <mxCell id="1rfu-RK-qWv2y17Ju6D9-50" value="" style="shape=image;verticalLabelPosition=bottom;labelBackgroundColor=default;verticalAlign=top;aspect=fixed;imageAspect=0;image=data:image/png,iVBORw0KGgoAAAANSUhEUgAAATYAAACjCAMAAAA3vsLfAAAA2FBMVEX///8zMzM90sUwMDBA1sUqKiouLi5C18U4zMU70MQ+1MUkJCQ3y8U1yMU2ycWAgIAVFRX5+fmqqqpD2sUhISHIyMhISEg8PDw3NzeHh4fCwsLj4+Pq6urPz88cHBwAAABVVVXt+/mTk5O2trYRERFubm4wwsTv7+/FxcVOTk6ysrLa2tqWlpZqampfX1+enp7x/Pvf+PWw7OZc3s165dWH3Nqe4uLC8Oxp09Kv7eSf6uHP9PCJ5tov0cFo3NF029Oj7uFU0sy96+qO3t2n5eRu1dTQ8PFXy83ZT/8LAAAR3ElEQVR4nO2cC3fauNaG7TpyCCaAiQ0GjDE4LhdzSZp2Om3a6UnP9PT//6NP1pZkyTdI4vl6Vo/etTrT4gvmYUv7JqFpSkpKSkpKSkpKSkpKSkpKSkpKSkpKSkpKSkpKSkpKSkpKSkpKSkpKSkpKSkpKSkpKSkpK/+O6u3/8+OnT589fPn/+/Ondx8f7u1/9RP/NulvcP3768v7h8uvl168XX1O12+R/X9+0//ry7vF+8asf8b9Od4/vvjzcYF1eXl5cpH/a7fQP0Zs3b65SeH99/nh/3u1mUV7Tf/b5f4keAVnKjGBL1b7gzKiuUn17d47NxfO+rNvBP/4h/p+1+PT+RoDGuV1I0K4otqurpw+nTa5n6ZIM8zfDtvgEhsawXTBo3NjaQO0qU+skuN8d28f3Nzc5bJcwRCVju8qMDVNrXT29s2tv+3tju/vXzU0BG1gaw9bOj9EUGwb3oXaK+62xLd4LyJg/4Ngu5KntSsLWan2rG6gMm4lAlvP7YLuXBujNZYkffUPJXWXYWhRb60cNN4rN2BxCqih3hu1Pp/6qeKW9qjgAWk198V+15/4zWjzc3BTG6GV57CGMUGZt2N6qswfAZiDXZiIv++4My/W1VRQPDXO0H+TCOd9dhiOkDw/HmTB5rshls6nmH0Orx161Z8dDepPDMdG0BE6x7Rm8RcIvTma5F16nu/dl1C4FL/rmBLbWv09hs1z55eP8Fmt+9PeOZRqGiYJNJOCxo0PgIDiA4jV/PYLLdkkYoIBhc2N8EpyrH6dxesrcSuwDnBsyo5x68EJc78PO1r/KTC2PrZ2HJlLrtL6fwraWXx7001eNZRwY1FdY5ph/Hr+HLIM7kcA7siOTOXmld3B03QFs9nHE76EjJz6gdCYdTbUBuYWhT9i1fXKtl58kXqj7Ekuj0NocW2FiE6C1Op3OU5U7ZdhmJdh0Y2RmPtYMlvTg9OAIr+MjTs+WsHnpYYptjJDkqOEKjM0fkQPBDi61xwEBGzY0Az6UGBundia2VufvemxomzDZGTZZaARsV7FjUAbUjAxnaQvYQIDtiMzinQg2+taIjtIpUES7Zqh9FJnJyWgafRRz0Rwzgq3brTI35kkNFoB4UwmbgRyLmQs1jCVQQ33HM/rwdxNF5dhmHmL3sSyTD1aCbUauNRz4Mia38E005BEeysYoG6FyNloMPWBiw9g6nYrZjcVtBhWSsZnBJo5HdCKz4hUhQezHGh1nSTLrAVS0WUnYTKs/j/HIix1qqcEQ3ydAIjY7JP90yJxpU9vbN+MQHquHaLvgRwVs3OA6ZG7rdH6UByH5LIF8II7N9LYr2/bHYCdokx6L4fMdqFlEhKKBjiI25PWiGR58CRijgQ4uvs9qPUTiuwzIbGYO01Hqw5fRb8ghFJKqC7nwIWajJWO08/REoOFhWh7z1mOzwAvYxP3hD4iPJeSjm0PuQwaEqXUQsKGQMl2CsVk9Os/7B0t4l6kOxFNfGsGXMWqm2rd4X4OtYogK4J4eNe1viq18lNZiM0f04+9MfmyAUkomj2UxCuCYaJknZTYzRJmVEs1GpvAu1Hmm94rBrS61RnRfMkYZsws5ZJMyeIot9Z9337opte6HWmylc5s5pGdFxKIML2Ef1QjHPaYhsRlzy7GZQ2pcNoxRIc21x5aAbU0mTYRHqU8Ag+E1oJKp7YKlVTSFbxcjXS5iYR8A21Pp5MY9KeTypuRJEcPmAjYSNsC4Mx0mCyIM68ixoZDO61PwlUhIQbaBgG1FDNUwBtqWvAE6iHnsK/RJjD6knCoL2dpQLsocQuYPUgtbPBFsnW5pCEKxoUFZ3MaxzTg2O86NaiZnWcQ2I9YE45d9AaK1aUdyAs5e4cuwGgratC+yrV1QcG2hONkGYmXW1mn9ff+fb2Rm63av/1ONrZCTnsRm5NUfV2EzRkIKspawJWSAozCC+dFrKGiTsnghaMtjK/UHkB+0KLXudalPqMtJy7CxQTryZEF4XzpIdUeYsQbiIKWewBiFIxijzVDT7h5KqWVVtpLapGRtrTTSxdiusUrzq2djWwbEOeySnNIwLY/NhjjZyfwjjWo5NvA12HbT/zRWIRUqbaITPTcXpZFuamrX3W5p9ag2lS/DFpGPiMalz5vDpkEeYHr87hPAxLHZwyzRN82m6pgL2R9cyJFuSb3oqtUShyi1NbC2Gmy6eXTdNcivx+ZvIExjk6E/WO6wlpMybMcAHE5IuU0oJY5N22UexsliwaawSc0qIakqYsvMjRBjxoZVGrixACS4Bc3nx3ps2pjEu1YI3JK4H2D10awMW4JoNjs6ukmy3plSckXOMFh+b/RzFv96bPl2cmV+IBUnWVp1BjYu2rmqwTalob8eLwfLeAjOkoYOeWw0OE7DPGM4NHmZLsNmx2yUorChoK0cG6t8lBXCpTEKlY9ul3FrCJu2hRKaaSETOfChrY1fji3hc5eBsrqRgE2LaPFOD45NUQNsl1KZrd1mfZdiEp+b2MjMxsdoY9iwM6VWwwvmLLEvYNMiqbgrVneppiGd7poK2jTmSaUWHy/pZtyqbI1hu250kOKBtTSlQrezYbNSEZs20IVzDT30cti0Ha2SxI1RY3GbPLVxL5rPqqSZTRii13XW5sjBvokA2236D4tjSztPOM1nBrEdOrwgjpw9t5PJnFwmYtOiYUDPNVAwjlAe23oEiWuDbe0SbO2s8gFplZwiyG60expbgHKi2NK/OjyVh0PZOJouPQshK/1zmGTh1mROCusSNnIuFj57NLAjmiVk0z/N4ocNrqsDbMLihXY2Pvmaj/KsqtPqdmRrK43b7JUta2ULL3MgK6H1TF+ZjOPDfjxwJUTF81L5US8+xONoxQqX5ojfmVXDGwvatBTbZSH6YIsX2LxW3XjhCUINtlepwOfkuX5IC5f8SmhNGOa6+tJnK7U2qTXK60W8ylbZr8oi3X8M20kdaSVzyYxrCVkq2vNTwPxoC6chMWwX2cQmL8vKJraCnYmxx6/CtptDKTMYp2PfXi0hZjEsPv/7Q6GD05QwNtkd1K6UEfxBV0xG67Ct/LxgbpvCP175/BOLuGeMJRxvt+OQ9pqF+X8LlUz9GUGb7Z96tgK2wlKZsjJbB4/QorFVpPJ9S5ID1ZvBPP1HMCy75BmycI6LhTyoudNABJG+AyCAnpj1nPUybuCkz6ZXu948tlxntLpg1O1yahzdH2XvUBu3oddic9Dt/PYWY9NpTY1QM/hSG80104DQcLZ1d8nJdcysV1Qq7EnF0uRFPviosDW5YFSP7aws4aVy9JQbYGNvYOmDzLTiPlj1cxIrF8Z1TUuVWVuh7ZKDVgw85JDtl2EzPLN/O7eyuyNzL7YtpqBnzaGnsS0eLtleF8EllMxrLdnYOiXG9muw6Z6Hbk0zwPOREwRodIhevcjjTGy8M1rjD4rYCtTenocNNYxN1z3rODmO433cW26byKDOxXYJyPL+oDTQLdaLuGpaMHjGYXuHbhvHpgfu6TOfodkZ2G6E4EOKdK/yGxBqg48T2AwzorPMNCHhegk2O1nG4ebQ20rxfLZOejqID5tDfBQ/DcU20ex17xCG8aAwifnpVZswTu8qrrnO/p4s8ZX7XcLeT3MRrWJV5nbyIK1qjMpVtiyFT8H9/HkWthPtZRwWbzesRGL0ssXhtofSStFh5S/ZwkI85/PDzNqSAz3oLSXos5hdhUYDLU7vhUbkUcZBGg157qpHd0yY4xQ5Wf5Ay1Ce0a8oNi0eLi5y64tKi5NXwhCVZrYfi/uns7DV90m1ZG8hVmAzHX3HwNg6wbZ3D6wAZ5iWuWSH6brLZejwits+s0Z7hyyhbLcFbF6GDbOMaf8Bv+vGTbFZWc/GqNqNuBB7oyK2q/Kabp5a2on/Tj3C21dY22STrQxP5xUrZn1OqF9sNkKjAB9m69noqkCPf1TdcHhCsIotcV2vORyS/1FrIxn+aJNdqVujmbbai3XlamuTYw+hpltmbIITpdgW+B7nYENre0VVgs0dMn/LbAPWozJs6YoQ4dNgbtTemJEJx7Iybi+QLqJphIRNulJ39itYo8RUY235JYAnOqM5bHc4ZP5JsdWsARE2Dx2K7eVpSNk6yLDAQgy2ztLLDAZPU7yhZ0YiNukYOgDSATdgPHuJTS0Rm3TUCFz7ECBeYkfzs7G18w4hnyB0C9j+PAMbnjtAZevbYGm4YYXLwfYY63SBgitjMy1jE3q0AYjZrERsyByGbOE0XaJJvwt8zBqFG0NooUrYTISPso5PcLSj47EHX5y3O+4qGtKLwsxWUjDic1tJmY1he/v2BLbsyy5gS0aw0rFHjtgRtD5hCwfHhn3kJEkmR2g347MjARsKB7PEhXY+2/cyoPOetRmsk1k0NnjDXsRmeks3SbYb2o4l3a0ZLIMdVWdkC7ENXzVEszXhJPgAU8vmthRbSq1uoVYttiPUX9k0r61HUMZOBGxoQ11xQudsRGZ+umsBls7YgCJdPEn8AT2PBmTY6xSxGRaUL4EUXX5/RpbAjS0LPN58efdR1OMj/s/37+/+eBJTeBHbW9ALsdGVono2IGD9LSnMMZfAd07RlX7UGACbRfcWzTwy2M0URQIXog23mQgVXQIKaWcWvgyYFs/AdlksTn6rOvljpytPbBzb9WuwTSEoH24n9BcvJmP4DHGGzVlmAfsA/Icx49gCWk2D/gsUwF3Y9GJF+UeRsDms57ykG7KeY23SSpmvn6tOvn8q1oswNvvHGdgMKwDdojw2SAF1M+C/eUFfSLtPNG5zhLAvgTFsRJqQXBHZe+jtpctsIliKbghJA126L2LjmysHz8bWlgPdOmzFKltqbT/OGKTmeDugyuekkSWHV9wuPY6N719IBfsUYCjK2NgGmmWOA5XrFbGx1YdA+WxsbWGInsaWa4zmsNUteUbVWcK2CpuZYROrsxDIn8IGCwal1bqz5rBJkS440Xd12Lp0welzsdUkVy4LKXJyjGyQimtYp3R7x6AW27bPLZZpWzJIX2ttPPj4Wolt8dTt5sYondvOwFadyifwlIdBQRp3CeLatDW4EGNSi21NXYLAe1l0CS/HdiH/XsUZ2K5fgq3a2qABbJbvKqbYhMmNZo0m6cdVY0ssIRIjStitmsGWax+cwiZCe3udbus7a26brKT2soANtkkZiPfkphOQmCUgVg9a0VwANm9XY6OLQQy0o1/HdE/zgqYGqVzSPWlt1zlr0z6cxoYzPL4/o1AUh1GH2Nrw2Yb8zEIgJVcG2kz8le3P9jSDgvC+GhuNxPCFceLbK3+yQUaD2NpyCn96kBat7RxsPJVHVgGbDRtfkDeezNxoOUKk8wzDMkvlcbYe90KDfni6XKEG2wz2xmNuehjHQ5OVORrGxkdpPbbr6xdZG1dZw8+FT2haaDiynKrCkYGR8xIPXTlegw2D4YVdC4nb6JvCJrT4TmLLmZuIrXT78ll9Urb+FpskwxL7ErZcwdGhh+uw+aGjy1c1jk1oIJwYpNeyvd01gs0+etJ6bxNRLDyV96QCrsU20tdh02ZDKZDG02uj2HLt5I9VJ989XeegXf/Uno2tvL28HWZ1f8NCPVa3oNhQL+SFXB1ZfA00vNjn2BzyDmznWhI62bdhBuO9KWALZGy3z8L2kBkb6x9U/jyW/Wce21uC7d8UW+k23HgeSKK/TTkgL996/Lxk7NEfKrKsfbYggWLrz5I4/Z0P8kNGwyMvBs3TnUX9OcN2mJN34Nvc/N0wsExyVwf1bPIst4hE3j3yAHOWym/heYbpG6/JXWnNoZzEl/S3YaXd8H9V/4rdh5w/eAvrF74DtZ+lm76TtStrTZ5mOiF/F4Pg2WA/xPa3JyuX89hcbRX18GF9GG+F/JTcxZ340puthROm297GQ+YoXK5tbQbPsspOnbBTfXgeklOs6CPXLCZZfHkQxijm9tdj9cn3P54kbD/pqo8/Ump/ljrSZwlHxFN/JT1tho3+0Jv/3JUxJ34G7veUiE3pbClsL5LC9iIpbC+SwvYi2QH8oGRDP7LzP6MtUf53UpWUlJSUlJSUlJSUlJSUlJSUlJSUlJSUlJSUlJSUlJSUlJSUlJSUlJSUlJSUlJSUfpH+D2jLWSIUeNwpAAAAAElFTkSuQmCC;" vertex="1" parent="1">
          <mxGeometry x="-301.87" y="522.72" width="109.72" height="57.69" as="geometry" />
        </mxCell>
        <mxCell id="1rfu-RK-qWv2y17Ju6D9-51" value="" style="endArrow=classic;html=1;rounded=0;entryX=1;entryY=0.5;entryDx=0;entryDy=0;" edge="1" parent="1" target="1rfu-RK-qWv2y17Ju6D9-13">
          <mxGeometry width="50" height="50" relative="1" as="geometry">
            <mxPoint x="-422" y="469.96" as="sourcePoint" />
            <mxPoint x="-682" y="529.96" as="targetPoint" />
          </mxGeometry>
        </mxCell>
      </root>
    </mxGraphModel>
  </diagram>
</mxfile>
